<?xml version="1.0" encoding="utf-8"?>
<!-- Generator: Adobe Illustrator 27.5.0, SVG Export Plug-In . SVG Version: 6.00 Build 0)  -->
<svg version="1.1" id="Capa_1" xmlns="http://www.w3.org/2000/svg" xmlns:xlink="http://www.w3.org/1999/xlink" x="0px" y="0px"
	 viewBox="0 0 2122 2122" style="enable-background:new 0 0 2122 2122;" xml:space="preserve">
<path style="fill:#FACABB;" d="M1412.676,710.691c-8.434,5.762-16.625,13.582-24.059,21.926c0.402-4.25,0.75-8.488,1.027-12.734
	c7.141-7.129,14.777-13.57,22.617-18.406c-1.32-22.391-4.965-44.707-10.91-66.34c-14.332,7.66-27.43,18.695-38.926,32.328
	c-1.531,1.813-3.523,1.668-4.977,0.598c-4.035,5.871-7.73,12.113-11,18.648c-1.121-0.039-2.258-0.078-3.414-0.113
	c0.328,15.449-3.563,31.305-10.73,45.324c10.797,5.527,20.199,14.168,26.863,26.379c12.996,23.84,3.676,60.457-10.289,81.844
	c-1.242,1.906-2.563,3.762-4.016,5.508c-19.77,23.938-53.066,27.059-82.203,17.691c-23.934-8.32-34.336-34.332-39.539-58.266
	c-1.426-6.57-1.82-12.848-1.355-18.805c-18.574-0.434-36.684-4.23-51.77-11.98c-27.391-14.078-40.691-41.418-41.129-70.332
	c-4.406-27.898-28.449-45.832-55.879-47.754c-0.422,34.492-0.848,68.988-1.27,103.481c-0.039,2.836-2.617,4.551-5.262,4.008
	c-4.621-0.941-9.246-1.887-13.867-2.832c5.129,6.691,10.262,13.379,15.395,20.07c3.262,4.254-3.961,8.387-7.18,4.195
	c-7.27-9.481-14.543-18.965-21.82-28.445c-2.438-3.18,1.563-6.746,4.695-6.105c6.598,1.348,13.191,2.695,19.785,4.039
	c0.406-32.832,0.813-65.668,1.215-98.5c-34.777,1.609-61.281,25.227-67.27,59.578c-0.008,0.051-0.027,0.09-0.039,0.137
	c-1.406,13.566-5.367,26.691-14.098,37.68c-11.051,13.914-27,23.242-44.109,27.711c-10.363,2.711-21.305,4.086-32.285,4.313
	c0.566,6.176,0.191,12.699-1.297,19.543c-5.199,23.934-15.605,49.945-39.543,58.266c-29.129,9.367-62.43,6.246-82.199-17.691
	c-1.453-1.746-2.77-3.602-4.012-5.508c-13.961-21.387-23.285-58.004-10.289-81.844c6.117-11.215,14.555-19.418,24.25-24.969
	c-5.066-10.621-7.852-22.351-8.613-34.371c-0.145-2.273-0.246-4.582-0.305-6.918c-3.969-8.672-8.664-16.945-13.941-24.547
	c-0.945,2.715-4.336,4.496-6.617,1.695c-10.793-13.258-23.191-24.734-37.387-32.59c-5.539,17.668-9.594,35.855-11.898,54.219
	c8.223,4.074,15.984,10.945,23.18,19.16c0.07,4.379,0.211,8.73,0.414,13.051c-2.961-3.906-6.047-7.711-9.391-11.277
	c-4.355-4.648-9.359-9.633-15.09-13.035c-4.148,42.523,1.266,85.672,19.566,125.043c1.184,2.551-0.266,4.918-2.219,5.879
	c0.008,0.012,0.012,0.023,0.019,0.031c9.688-0.457,18.195-2.148,25.633-4.863c29.367,87.652,91.566,154.445,177.945,189.551
	c0.02,2.332,0.043,4.703,0.066,7.105c0.32,33.961,0.793,74.43,1.469,116.344c1.508,0.129,2.934,1.023,3.477,2.898
	c5.637,19.352,13.316,37.578,22.246,55.609c1.254,2.531,2.512,5.09,3.742,7.664c4.063,5.172,6.859,12.266,8.609,21.066
	c1.012,3.25,1.863,6.551,2.488,9.914c4.227,22.777,2.473,46.902-0.481,70.539c37.742-1.43,75.688,0.914,113.352-1.77
	c2.891-0.211,4.191,2.121,3.961,4.355c20.352,0.348,37.348,1.117,51.477,2.219c-1.25-11.973-2.297-23.953-3.043-35.953
	c-0.996-16.152-0.301-31.672,3.715-46.824c1.68-9.805,4.551-17.656,8.871-23.289c4.078-8.945,8.25-17.754,12.203-26.641
	c-1.508-2.641-3.098-5.258-4.805-7.859c-7.453-11.371-15.961-22.445-24.961-33.027c-7.75-9.105-16.762-17.461-26.758-24.926
	c-10.031-7.492-21.125-13.969-32.801-19.605c-13.109-6.34-27.25-10.953-41.602-14.992c-15.019-4.227-30.391-7.664-45.231-12.316
	c-14.656-4.594-28.926-10.078-43.984-13.742c-3.906-0.949-7.992-1.926-11.68-3.453c-0.125-11.695-0.234-22.848-0.332-33.316
	c34.027,13.824,71.797,22.734,112.789,26.066c0.66-0.961,1.73-1.645,3.25-1.648c91.898-0.262,188.961-22.945,250.141-96.563
	c1.613-1.938,3.742-1.652,5.207-0.391c28.543-34.148,49.531-74.645,63.402-117.633c6.82,2.691,14.609,4.465,23.398,5.215
	c0.18,0.016,0.379,0.023,0.566,0.039c4.531-6.867,8.039-17.195,10.785-29.191c-0.914-0.906-1.41-2.234-1.008-3.856
	C1410.57,768.785,1413.563,739.758,1412.676,710.691z"/>
<path style="fill:#FACABB;" d="M845.703,621.914c0.902-1.43,2.035-2.805,3.414-4.078c11.922-11.031,30.98-10.605,46.082-12.328
	c2.645-0.301,5.305-0.395,7.934-0.27c11.922,0.578,23.141,5.75,28.742,17.168c16,2.969,31.484,8.68,43.391,19.723
	c13.516,12.543,20.273,29.617,22.133,47.605c12.887-24.773,37.961-41.359,67.383-41.98c0.109-8.789,0.219-17.578,0.324-26.367
	c0.07-5.356,8.379-5.359,8.316,0c-0.117,8.871-0.223,17.738-0.332,26.609c24.898,1.938,46.738,14.66,57.594,35.481
	c0.531-2.793,1.172-5.574,1.934-8.34c7.766-28.031,28.574-42.801,53.313-49.953c0.047-0.144,0.086-0.281,0.145-0.422
	c5.156-13.07,17.074-18.906,29.777-19.523c2.633-0.125,5.293-0.031,7.934,0.27c15.102,1.723,34.164,1.297,46.086,12.328
	c1.035,0.961,1.895,1.988,2.664,3.039c26.539,3.211,52.422,12.152,63.605,35.394c-4.848-70.688,0.621-128.141-34.762-168.945
	c-1.34-1.543-2.711-3.082-4.105-4.617c-33.039-23.984-71.281-41.563-110.973-49.938c-57.191-12.063-114.641-8.766-172.644-8.66
	c-3.313,0.004-4.57-3.164-3.793-5.586c-45.332,4.281-84.5,14.043-118.121,27.719c0.992,1.789,0.879,4.246-1.344,5.652
	c-18.629,11.797-37.469,22.477-55.285,34.563c-0.906,1.027-1.797,2.039-2.707,3.086c-46.063,53.137-35.742,106.453-38.605,161.934
	c0.188-0.289,0.355-0.586,0.551-0.871C806.023,633.519,825.102,625.527,845.703,621.914z"/>
<path style="fill:#FACABB;" d="M1263.57,650.262c-14.41,7.105-35.762,4.688-51.25,3.559c-12.281-0.902-26.801-7.633-27.781-19.969
	c-14.602,4.59-28.223,12.32-36.367,25.766c-9.891,16.32-11.773,36.277-10,54.969c4.309,45.352,45.262,61.973,85.066,62.438
	c9.105-37.379,53.949-58.965,91.629-51.199c3.223,0.66,6.387,1.547,9.477,2.648c9.383-18.25,13.676-40.203,7.727-59.914
	c-7.512-24.926-30.895-34.961-56.129-38.816C1276.715,637.82,1271.961,646.125,1263.57,650.262z"/>
<path style="fill:#FACABB;" d="M801.402,729.609c4.016-1.645,8.176-2.91,12.434-3.785c37.648-7.758,82.445,13.781,91.613,51.098
	c1.594-0.035,3.18-0.082,4.754-0.16c18.586-0.914,37.106-4.266,52.637-15.277c20.492-14.535,27.492-36.863,26.859-61.234
	c-0.477-18.379-4.766-37.813-18.781-50.816c-10.289-9.551-23.016-14.922-36.453-17.965c0.828,13.856-14.742,21.395-27.797,22.352
	c-15.488,1.129-36.84,3.547-51.246-3.559c-7.855-3.871-12.527-11.387-12.473-18.953c-13.203,2.57-26.262,7.176-35.527,16.453
	c-12.648,12.656-15.238,30.563-14.148,47.785C794.027,707.453,796.555,719.164,801.402,729.609z"/>
<path style="fill:#DFDEDD;" d="M1179.242,1577.41c-2.664-46.777-8.828-92.996-15.754-139.309
	c-6.348-42.441-13.535-85.031-17.996-127.797c-14.129-1.102-31.125-1.871-51.477-2.219c-0.199,1.926-1.516,3.781-3.961,3.957
	c-38.02,2.703-76.332,0.297-114.43,1.809c-1.18,8.734-2.441,17.367-3.551,25.809c-1.68,12.762-3.5,25.516-5.391,38.258
	c53.898,8.637,111.309,10.453,164.828-1.32c5.227-1.156,7.445,6.859,2.211,8.008c-54.773,12.059-113.078,10.242-168.254,1.48
	c-8.641,57.574-18.344,115.07-22.27,173.148c-9.602,142.109-5.402,284.816-4.535,427.113c80.492,0.121,162.988-0.512,244.004-1.781
	c0.57-91.609,2.145-183.148,0.766-274.758C1182.766,1665.66,1181.758,1621.492,1179.242,1577.41z"/>
<path style="fill:#C0D6D4;" d="M579.32,1365.363c13.73-3.758,27.586-6.875,41.109-9.805c62.59-13.52,126.426-19.23,190.184-23.938
	c-7.023-10.938-13.336-22.121-18.902-33.168c-0.355-0.699-0.48-1.387-0.465-2.047c-50.906-3.469-154.781,0.328-224.875,47.578
	c0.141,0.148,0.281,0.293,0.406,0.473C571.438,1351.121,575.59,1358.137,579.32,1365.363z"/>
<path style="fill:#C0D6D4;" d="M930.152,1958.883c-0.219,0.078-0.441,0.16-0.691,0.203c-66.043,12.574-133.738,14.387-200.676,9.359
	c-22.582-1.695-45.078-4.137-67.543-6.961c-6.422-0.801-12.84-1.707-19.289-2.301c-0.563-0.055-1.133-0.105-1.699-0.16
	c-0.465,0.832-1.262,1.516-2.473,1.816c-0.273,0.07-0.547,0.133-0.817,0.199c0,8.441,0,16.883,0,25.32
	c0,0.402-0.055,0.762-0.141,1.094c86.133,2.902,184.438,3.25,293.543-0.938c-0.004-0.051-0.016-0.102-0.016-0.156
	C930.293,1977.207,930.227,1968.047,930.152,1958.883z"/>
<path style="fill:#C0D6D4;" d="M932.082,1142.918c-0.469-1.613-0.012-2.93,0.891-3.828c-16.699-1.293-85.793-4.098-112.195,34.809
	c-5.648,8.332-26.539,97.641-26.418,118.488c1.641-0.559,3.508-0.156,4.531,1.871c29.832,59.188,81.117,124.25,153.859,122.582
	c7-45.461,14.125-91.016,17.41-136.84c1.73-24.109,0.676-46.473-9.73-68.629C949.824,1188.777,939.098,1167.004,932.082,1142.918z"
	/>
<path style="fill:#C0D6D4;" d="M628.652,1963.039c-87.801,20.379-182.168,19.352-263.734-22.672
	c-30.25-15.578-58.535-36.23-82.438-60.949c-2.855,25.023-4.883,50.148-6.164,75.273c-0.016,0.23-0.059,0.438-0.098,0.648
	c63.188,10.082,184.109,25.785,352.52,31.824c-0.051-0.258-0.086-0.516-0.086-0.805
	C628.652,1978.586,628.652,1970.809,628.652,1963.039z"/>
<path style="fill:#C0D6D4;" d="M246.293,1816.727c8.438,15.512,18.594,30.137,30.094,43.707
	c11.383-88.488,33.246-176.453,70.246-257.316c-8.82-11.184-16.75-23.105-23.68-35.648
	c-53.766,10.129-97.535,120.465-97.535,171.402c2.832,31.148,18.027,49.941,17.512,75.793
	C244.211,1814.641,245.484,1815.234,246.293,1816.727z"/>
<path style="fill:#C0D6D4;" d="M329.348,1561.895c6.234,11.453,13.363,22.414,21.246,32.801
	c13.129-27.711,28.039-54.563,44.984-80.258c30.535-46.293,68.25-92.234,116.105-121.563c18.266-11.203,38.656-19.066,59.547-25.219
	c-3.531-6.543-7.367-12.91-11.633-19.004c-0.695-0.992-0.844-1.965-0.664-2.836c-105.73-17.703-255.598,103.895-234.488,214.355
	C326.152,1559.469,328.207,1559.797,329.348,1561.895z"/>
<path style="fill:#C0D6D4;" d="M241.633,1826.43c-3.242,29.188-31.383,28.91-15.746,119.906c0,0,14.438,3.125,42.152,7.68
	c1.418-27.426,3.703-55.031,6.98-82.613c-12.648-14.109-23.855-29.434-33.238-45.824
	C241.73,1825.863,241.691,1826.148,241.633,1826.43z"/>
<path style="fill:#C0D6D4;" d="M815.43,1338.93c-0.598,0.441-1.336,0.746-2.234,0.816c-76.953,5.645-155.5,12.145-229.957,33.645
	c23.742,50.703,33.168,108,40.043,163.051c6.281,50.328,9.918,100.977,11.922,151.715c0.215,0.047,0.422,0.086,0.641,0.172
	c19.082,7.023,40.551,8.813,60.609,10.879c28.922,2.98,57.977,4.766,87.027,5.863c28.754,1.094,57.559,1.648,86.328,1.082
	c18.98-0.375,38.766-0.246,57.441-4.102c0.414-0.082,0.797-0.094,1.168-0.074c0.793-50.727,2.961-100.801,7.406-143.051
	c2.738-36.449,6.559-72.848,11.945-109.285c1.207-8.164,2.449-16.316,3.699-24.484
	C892.902,1425.941,847.344,1385.824,815.43,1338.93z"/>
<path style="fill:#C0D6D4;" d="M869.809,1714.465c-29.672,0.516-59.367,0.023-89.016-1.188c-29.664-1.215-59.363-2.953-88.879-6.242
	c-18.676-2.086-38.477-3.844-56.379-10.066c2.07,57.844,2.082,115.797,1.43,173.516c0,26.664,0,53.324,0,79.988
	c1.41,0.02,2.82,0.195,3.981,0.301c19.336,1.805,38.555,4.801,57.883,6.73c76.016,7.609,153.148,7.902,228.422-6.43
	c1.098-0.211,2.055-0.012,2.848,0.426c-0.293-35.082-0.656-70.156-0.879-105.227c-0.973-41.777-1.516-88.992-0.918-135.992
	C909.227,1714.055,889.152,1714.129,869.809,1714.465z"/>
<path style="fill:#C0D6D4;" d="M465.5,1440.816c-46.113,45.953-81.805,102.188-109.012,161.344
	c20.125,24.57,44.766,45.418,72.793,60.535c60.715,32.754,130.492,37.426,197.621,26.75c-2.375-69.332-7.558-138.789-20.183-206.789
	c-6.652-35.84-15.055-73.578-31.336-106.93c-12.223,3.715-24.336,7.844-36.301,12.473
	C511.039,1399.047,486.531,1419.855,465.5,1440.816z"/>
<path style="fill:#C0D6D4;" d="M627.184,1697.758c-68.387,10.633-140.5,6.156-202.098-27.891
	c-27.605-15.25-52.086-35.445-72.371-59.316c-2.422,5.445-4.797,10.902-7.074,16.387c-32.141,77.258-51.648,158.949-61.895,241.824
	c23.75,25.867,52.422,47.461,83.227,63.324c81.25,41.859,174.234,43.07,261.68,22.41c0-28.004,0-56.008,0-84.012
	c0.371-32.926,0.461-65.855,0.047-98.781C628.394,1747.121,627.953,1722.449,627.184,1697.758z"/>
<path style="fill:#C0D6D4;" d="M1322.43,1294.258c1.02-2.027,2.891-2.43,4.527-1.871c0.121-20.848-20.766-110.156-26.418-118.488
	c-26.402-38.906-95.492-36.102-112.188-34.809c0.895,0.898,1.352,2.215,0.887,3.828c-5.348,18.348-12.363,35.906-20.824,53.023
	c-6.172,12.492-12.832,25.023-15.746,38.777c-7.332,34.602,0.73,73.738,5.332,108.317c3.27,24.625,7.066,49.211,10.824,73.805
	C1241.43,1418.34,1292.625,1353.375,1322.43,1294.258z"/>
<path style="fill:#C0D6D4;" d="M1879.688,1826.43c-0.059-0.281-0.098-0.566-0.152-0.852c-9.359,16.363-20.578,31.75-33.262,45.938
	c3.293,27.422,5.586,54.957,7.008,82.5c27.715-4.555,42.152-7.68,42.152-7.68C1911.066,1855.34,1882.93,1855.617,1879.688,1826.43z"
	/>
<path style="fill:#C0D6D4;" d="M1838.883,1879.48c-23.902,24.824-52.223,45.594-82.48,60.887
	c-82.648,41.766-176.598,43.164-265.301,22.305c-0.199,7.891-0.348,15.785-0.367,23.688c0,0.309-0.039,0.602-0.094,0.875
	c169.422-5.988,291.035-21.773,354.461-31.895c-0.039-0.211-0.086-0.418-0.098-0.648
	C1843.727,1929.695,1841.711,1904.578,1838.883,1879.48z"/>
<path style="fill:#C0D6D4;" d="M1541.898,1365.273c3.805-7.184,7.98-14.164,12.641-20.816c0.129-0.18,0.27-0.324,0.406-0.473
	c-70.098-47.25-173.969-51.047-224.875-47.578c0.02,0.66-0.113,1.348-0.465,2.047c-5.566,11.047-11.883,22.23-18.898,33.164
	C1387.297,1337.234,1467.453,1343.043,1541.898,1365.273z"/>
<path style="fill:#C0D6D4;" d="M1481.074,1959.039c-0.57,0.039-1.145,0.086-1.711,0.145c-6.441,0.645-12.863,1.5-19.289,2.301
	c-22.453,2.816-44.957,5.336-67.539,6.961c-67.016,4.824-134.547,3.234-200.676-9.359c-0.254-0.043-0.473-0.121-0.688-0.203
	c-0.082,9.164-0.152,18.324-0.207,27.477c0,0.055-0.012,0.105-0.02,0.156c108.309,4.156,205.957,3.84,291.633,0.996
	c-0.098-0.352-0.16-0.727-0.16-1.152c0.023-8.594,0.191-17.176,0.418-25.773C1482.02,1960.238,1481.438,1959.688,1481.074,1959.039z
	"/>
<path style="fill:#C0D6D4;" d="M1550.09,1367.805c12.789,4.051,25.406,8.598,37.781,13.758
	c31.094,12.953,58.035,36.594,81.012,60.695c42.348,44.402,75.625,97.047,101.637,152.641c7.949-10.406,15.145-21.422,21.449-33.004
	c1.141-2.098,3.199-2.426,4.902-1.723c0.078-0.395,0.141-0.789,0.215-1.184c19.824-110.145-129.344-230.816-234.703-213.172
	c0.188,0.871,0.031,1.844-0.66,2.836C1557.434,1354.77,1553.574,1361.188,1550.09,1367.805z"/>
<path style="fill:#C0D6D4;" d="M1754.348,1932.086c30.824-16.184,59.492-37.652,83.266-63.453
	c-10.848-88.715-32.25-176.887-68.863-258.16c-20.84,24.664-46.168,45.551-74.742,60.602
	c-61.773,32.52-131.957,37.242-199.945,26.672c-2.004,56.652-2.043,113.402-1.426,169.938c0.652,0.664,1.09,1.59,1.09,2.801
	c-0.074,27.91-1.543,55.793-2.398,83.691C1578.691,1975.051,1673.277,1974.652,1754.348,1932.086z"/>
<path style="fill:#C0D6D4;" d="M1485.93,1696.922c-18.609,6.5-39.344,8.301-58.785,10.355c-29.672,3.141-59.492,4.977-89.305,6.105
	c-29.504,1.117-59.055,1.688-88.574,1.039c-18.625-0.41-37.887-0.512-56.254-4.141c0.543,42.188,0.156,84.543-0.621,122.988
	c-0.293,39.418-0.789,78.832-1.152,118.219c0.789-0.426,1.734-0.621,2.828-0.414c75.188,14.313,152.484,14.211,228.422,6.43
	c19.313-1.973,38.547-5.09,57.887-6.73c0.824-0.066,1.773-0.172,2.758-0.242c0.84-25.781,2.105-51.555,2.254-77.348
	c-0.613-0.66-1.023-1.551-1.035-2.699c-0.43-38.004-0.477-76.016,0.168-114.016
	C1484.855,1736.664,1485.297,1716.805,1485.93,1696.922z"/>
<path style="fill:#C0D6D4;" d="M1774.473,1603.457c3.941,8.73,7.723,17.52,11.328,26.355
	c30.102,73.855,48.805,151.664,59.078,230.613c11.5-13.512,21.672-28.125,30.145-43.699c0.813-1.492,2.086-2.086,3.367-2.063
	c-0.516-25.852,14.68-44.645,17.512-75.793c0-50.316-42.699-158.574-95.563-170.988c-0.656-0.16-1.316-0.289-1.973-0.414
	C1791.406,1580.07,1783.398,1592.121,1774.473,1603.457z"/>
<path style="fill:#C0D6D4;" d="M1537.965,1373.047c-10.527-2.848-21.117-5.352-31.555-7.734
	c-65.152-14.836-131.777-20.688-198.285-25.566c-0.902-0.07-1.641-0.375-2.238-0.816c-31.871,46.832-77.348,86.898-135.793,86.227
	c6.793,44.551,13.297,89.141,16.336,134.078c0.703,10.418,1.313,20.828,1.871,31.25c2.598,34.68,3.996,72.898,4.602,111.492
	c0.367-0.02,0.754-0.008,1.164,0.074c19.391,4,40.008,3.84,59.707,4.141c28.914,0.449,57.855-0.043,86.75-1.223
	c28.918-1.188,57.848-2.879,86.621-6c19.344-2.105,39.926-3.863,58.328-10.641c0.254-0.098,0.504-0.152,0.746-0.195
	c2.488-70.949,7.82-142.094,21.105-211.652C1513.945,1441.82,1522.363,1405.43,1537.965,1373.047z"/>
<path style="fill:#C0D6D4;" d="M1694.242,1661.477c27.141-15.363,51-35.582,70.625-59.453
	c-10.895-23.367-23.051-46.152-36.637-68.172c-30.629-49.645-69.094-99.168-118.703-131.215c-19.281-12.453-41-20.789-63.215-27.254
	c-23.977,49.691-33.203,106.922-39.961,161.059c-6.336,50.754-9.984,101.828-11.977,152.996
	C1561.934,1700.199,1633.656,1695.758,1694.242,1661.477z"/>
<path style="fill:#F7B8A7;" d="M1184.203,1131.805c-0.047-2.367-0.102-4.73-0.145-7.082c0-0.008,0-0.012,0-0.027
	c-0.055-2.492-0.102-4.973-0.152-7.445c-0.004-0.141-0.004-0.285-0.004-0.426c-0.633-32.512-1.004-62.855-1.102-88.457
	c-42.188,13.34-87.555,18.598-131.676,18.723c-3.84,0.012-4.914-4.242-3.25-6.664c-40.992-3.332-78.762-12.242-112.789-26.066
	c0.098,10.469,0.207,21.621,0.332,33.316c3.687,1.527,7.773,2.504,11.68,3.453c15.059,3.664,29.328,9.148,43.984,13.742
	c14.84,4.652,30.211,8.09,45.231,12.316c14.352,4.039,28.492,8.652,41.602,14.992c11.676,5.637,22.77,12.113,32.801,19.605
	c9.996,7.465,19.008,15.82,26.758,24.926c9,10.582,17.508,21.656,24.961,33.027c1.707,2.602,3.297,5.219,4.805,7.859
	c5.32-11.953,10.242-24.055,13.984-36.891c0.496-1.727,1.742-2.609,3.117-2.848c-0.039-1.629-0.078-3.262-0.113-4.891
	C1184.223,1132.578,1184.215,1132.195,1184.203,1131.805z"/>
<path style="fill:#F7B8A7;" d="M1318.039,739.109c2.289-3.355,4.395-6.926,6.305-10.637c-3.09-1.102-6.254-1.988-9.477-2.648
	c-37.68-7.766-82.523,13.82-91.629,51.199c5.281,0.063,10.555-0.152,15.707-0.629
	C1268.348,773.66,1300.539,764.754,1318.039,739.109z"/>
<path style="fill:#F7B8A7;" d="M1332.305,731.922c-7.484,14.641-18.523,27.273-32.066,35.305
	c-21.438,12.711-50.492,19.703-78.473,19.047c-0.465,5.957-0.07,12.234,1.355,18.805c5.203,23.934,15.605,49.945,39.539,58.266
	c29.137,9.367,62.434,6.246,82.203-17.691c1.453-1.746,2.773-3.602,4.016-5.508c13.965-21.387,23.285-58.004,10.289-81.844
	C1352.504,746.09,1343.102,737.449,1332.305,731.922z"/>
<path style="fill:#F7B8A7;" d="M873.492,782.785c-22.059-4.109-46.926-11.094-63.625-27.086
	c-6.816-6.531-12.137-14.117-16.078-22.367c-9.695,5.551-18.133,13.754-24.25,24.969c-12.996,23.84-3.672,60.457,10.289,81.844
	c1.242,1.906,2.559,3.762,4.012,5.508c19.77,23.938,53.07,27.059,82.199,17.691c23.938-8.32,34.344-34.332,39.543-58.266
	c1.488-6.844,1.863-13.367,1.297-19.543C895.594,785.769,884.266,784.789,873.492,782.785z"/>
<path style="fill:#F7B8A7;" d="M826.371,757.828c23.144,13.789,52.148,19.645,79.078,19.094
	c-9.168-37.316-53.965-58.855-91.613-51.098c-4.258,0.875-8.418,2.141-12.434,3.785
	C806.688,741.008,814.738,750.894,826.371,757.828z"/>
<path style="fill:#5A99CD;" d="M1468.203,423.539c-65.508-136.391-223.738-194.492-366.504-194.926
	c-5.359-0.016-5.363-8.328,0-8.313c138.648,0.422,291.793,54.625,363.648,179.969c-37.195-121.395-173.309-269.324-409.43-269.324
	c-241.234,0-376.852,169.133-412.027,301.129c4.637-7.496,9.488-14.773,14.426-21.766c24.008-34.051,51.836-64.023,85.621-88.594
	c80.512-58.527,175.422-92.117,274.195-101.414c5.336-0.5,5.289,7.813,0,8.313c-94.43,8.891-186.324,40.52-263.84,95.848
	c-34.906,24.914-64.367,54.801-88.801,90.039c-21.801,31.441-43.395,67.883-46.129,106.926c-0.188,2.695-2.414,4.027-4.516,3.992
	c-8.473,38.719-11.664,76.851-10.781,111.762c4.398,174.145,82.75,192.191,127.375,194.723c0.594,0.035,1.188,0.066,1.773,0.094
	c-0.586-0.719-1.152-1.496-1.707-2.324c-0.008-0.008-0.012-0.02-0.019-0.031c-1.742,0.863-3.898,0.609-4.961-1.684
	c-29.43-63.324-27.769-137.336-4.777-202.566c0.051-0.168,0.113-0.34,0.164-0.508c11.563-36.785,32.582-75.731,65.941-109.91
	c11.859-12.457,24.773-23.723,38.762-33.777c18.949-13.625,39.898-24.008,59.586-36.48c2.309-1.461,4.512-0.32,5.539,1.527
	c33.621-13.676,72.789-23.438,118.121-27.719c0.484-1.504,1.742-2.723,3.793-2.727c61.766-0.113,124.394-4.648,184.824,11.328
	c50.66,13.395,99.754,39.5,136.91,76.797c75.285,75.57,101.965,192.488,76.242,294.691c-0.898,3.578-4.984,3.641-7.008,1.641
	c-2.746,11.996-6.254,22.324-10.785,29.191c-0.602,0.906-1.207,1.766-1.848,2.551c44.293-2.168,124.688-18.348,129.148-194.816
	c1.664-65.586-11.004-142.535-46.23-213.352C1473.23,425.992,1469.707,426.672,1468.203,423.539z"/>
<path style="fill:#864436;" d="M757.141,824.809c-7.438,2.715-15.945,4.406-25.633,4.863c0.555,0.828,1.121,1.605,1.707,2.324
	c-0.586-0.027-1.18-0.059-1.773-0.094c38.848,82.727,104.004,156.156,203.711,189.563c-0.023-2.402-0.047-4.773-0.066-7.105
	C848.707,979.254,786.508,912.461,757.141,824.809z"/>
<path style="fill:#864436;" d="M1306.473,941.824c1.324,1.133,2.09,3.047,1.441,4.883c36.141-33.906,64.285-74.453,85.359-117.301
	c-8.789-0.75-16.578-2.523-23.398-5.215C1356.004,867.18,1335.016,907.676,1306.473,941.824z"/>
<path style="fill:#864436;" d="M1324.461,504.934c-8.566-7.906-17.672-15.316-27.188-22.227c1.395,1.535,2.766,3.074,4.105,4.617
	c35.383,40.805,29.914,98.258,34.762,168.945c0.199,0.43,0.434,0.832,0.629,1.266c4.063,9.09,6.051,18.988,6.266,29.063
	c1.156,0.035,2.293,0.074,3.414,0.113c3.27-6.535,6.965-12.777,11-18.648c-1.836-1.352-2.82-4.199-0.902-6.473
	c12.391-14.695,26.73-26.516,42.445-34.613C1384.883,580.59,1360.023,537.789,1324.461,504.934z"/>
<path style="fill:#864436;" d="M770.188,663.309c1.094,1.344,1.199,2.871,0.742,4.188c5.277,7.602,9.973,15.875,13.941,24.547
	c-0.344-13.973,1.242-28.731,8.93-40.566c2.863-55.481-7.457-108.797,38.605-161.934c0.91-1.047,1.801-2.059,2.707-3.086
	c-15.66,10.621-30.539,22.332-43.766,36.902c-24.203,26.672-43.637,57.945-56.781,91.5c-1.773,4.527-3.441,9.102-5.016,13.711
	C745.023,636.84,758.578,649.047,770.188,663.309z"/>
<path style="fill:#864436;" d="M903.523,619.488c9.207,0.363,18.871,1.16,28.352,2.918c-5.602-11.418-16.82-16.59-28.742-17.168
	c-2.629-0.125-5.289-0.031-7.934,0.27c-15.102,1.723-34.16,1.297-46.082,12.328c-1.379,1.273-2.512,2.648-3.414,4.078
	C865.273,618.484,886.219,619.004,903.523,619.488z"/>
<path style="fill:#864436;" d="M855.422,650.262c14.406,7.105,35.758,4.688,51.246,3.559c13.055-0.957,28.625-8.496,27.797-22.352
	c-10.16-2.297-20.723-3.262-30.941-3.668c-13.582-0.383-27.242-0.453-40.781,0.813c-6.316,0.598-13.074,1.387-19.793,2.695
	C842.894,638.875,847.566,646.391,855.422,650.262z"/>
<path style="fill:#864436;" d="M1223.902,627.801c-7.426,0.293-14.898,0.723-22.23,1.98c-5.688,0.977-11.48,2.297-17.133,4.07
	c0.98,12.336,15.5,19.066,27.781,19.969c15.488,1.129,36.84,3.547,51.25-3.559c8.391-4.137,13.145-12.441,12.371-20.52
	C1257.832,626.977,1238.766,627.391,1223.902,627.801z"/>
<path style="fill:#864436;" d="M1272.535,620.875c-0.77-1.051-1.629-2.078-2.664-3.039c-11.922-11.031-30.984-10.605-46.086-12.328
	c-2.641-0.301-5.301-0.395-7.934-0.27c-12.703,0.617-24.621,6.453-29.777,19.523c-0.059,0.141-0.098,0.277-0.145,0.422
	c12.07-3.492,25.082-5.184,37.973-5.695C1237.805,619.106,1255.297,618.793,1272.535,620.875z"/>
<path style="fill:#3D1C10;" d="M859.98,1235.742c-14.672-15.426-21.566-34.938-25.012-55.605c-0.879-5.281-8.887-3.035-8.016,2.207
	c3.449,20.692,10.41,39.406,23.902,55.637c13.309,16,31.277,28,46.984,41.457c4.043,3.469,9.949-2.383,5.875-5.875
	C889.105,1261.043,873.277,1249.719,859.98,1235.742z"/>
<path style="fill:#3D1C10;" d="M1131.512,1376.598c-53.52,11.773-110.93,9.957-164.828,1.32c1.891-12.742,3.711-25.496,5.391-38.258
	c1.109-8.442,2.371-17.074,3.551-25.809c38.098-1.512,76.41,0.895,114.43-1.809c2.445-0.176,3.762-2.031,3.961-3.957
	c0.23-2.234-1.07-4.566-3.961-4.355c-37.664,2.684-75.609,0.34-113.352,1.77c2.953-23.637,4.707-47.762,0.481-70.539
	c-0.625-3.363-1.477-6.664-2.488-9.914c-2.25-7.242-5.332-14.223-8.609-21.066c-1.23-2.574-2.488-5.133-3.742-7.664
	c-8.93-18.031-16.609-36.258-22.246-55.609c-0.543-1.875-1.969-2.77-3.477-2.898c-1.324-0.117-2.723,0.356-3.648,1.281
	c-0.902,0.898-1.359,2.215-0.891,3.828c7.016,24.086,17.742,45.859,28.348,68.453c10.406,22.156,11.461,44.52,9.73,68.629
	c-3.285,45.824-10.41,91.379-17.41,136.84c-72.742,1.668-124.027-63.395-153.859-122.582c-1.023-2.027-2.891-2.43-4.531-1.871
	c-1.664,0.563-3.066,2.121-3.113,4.02c-0.016,0.66,0.109,1.348,0.465,2.047c5.566,11.047,11.879,22.23,18.902,33.168
	c-63.758,4.707-127.594,10.418-190.184,23.938c-13.523,2.93-27.379,6.047-41.109,9.805c-3.731-7.227-7.883-14.242-12.543-20.906
	c-0.125-0.18-0.266-0.324-0.406-0.473c-2.465-2.695-6.836-1.008-7.438,1.832c-0.18,0.871-0.031,1.844,0.664,2.836
	c4.266,6.094,8.102,12.461,11.633,19.004c-20.891,6.152-41.281,14.016-59.547,25.219c-47.855,29.328-85.57,75.27-116.105,121.563
	c-16.945,25.695-31.855,52.547-44.984,80.258c-7.883-10.387-15.012-21.348-21.246-32.801c-1.141-2.098-3.195-2.426-4.902-1.723
	c-2.117,0.855-3.695,3.309-2.273,5.914c0.254,0.469,0.527,0.918,0.781,1.383c6.93,12.543,14.859,24.465,23.68,35.648
	c-37,80.863-58.863,168.828-70.246,257.316c-11.5-13.57-21.656-28.195-30.094-43.707c-0.809-1.492-2.082-2.086-3.363-2.063
	c-2.766,0.055-5.566,3.031-3.816,6.25c0.855,1.574,1.781,3.113,2.668,4.664c9.383,16.391,20.59,31.715,33.238,45.824
	c-3.277,27.582-5.563,55.188-6.98,82.613c-0.012,0.223-0.023,0.453-0.035,0.676c-0.262,5.125,7.313,5.305,8.215,0.648
	c0.039-0.211,0.082-0.418,0.098-0.648c1.281-25.125,3.309-50.25,6.164-75.273c23.902,24.719,52.188,45.371,82.438,60.949
	c81.566,42.023,175.934,43.051,263.734,22.672c0,7.77,0,15.547,0,23.32c0,0.289,0.035,0.547,0.086,0.805
	c0.731,4.18,7.094,4.273,8.086,0.289c0.086-0.332,0.141-0.691,0.141-1.094c0-8.438,0-16.879,0-25.32
	c0.27-0.066,0.543-0.129,0.817-0.199c1.211-0.301,2.008-0.984,2.473-1.816c0.566,0.055,1.137,0.105,1.699,0.16
	c6.449,0.594,12.867,1.5,19.289,2.301c22.465,2.824,44.961,5.266,67.543,6.961c66.938,5.027,134.633,3.215,200.676-9.359
	c0.25-0.043,0.473-0.125,0.691-0.203c0.074,9.164,0.141,18.324,0.199,27.477c0,0.055,0.012,0.105,0.016,0.156
	c0.195,5.195,8.328,5.156,8.297-0.156c0-0.004,0-0.008,0-0.012c-0.867-142.297-5.066-285.004,4.535-427.113
	c3.926-58.078,13.629-115.574,22.27-173.148c55.176,8.762,113.48,10.578,168.254-1.48
	C1138.957,1383.457,1136.738,1375.441,1131.512,1376.598z M465.5,1440.816c21.031-20.961,45.539-41.77,73.582-52.617
	c11.965-4.629,24.078-8.758,36.301-12.473c16.281,33.352,24.684,71.09,31.336,106.93c12.625,68,17.808,137.457,20.183,206.789
	c-67.129,10.676-136.906,6.004-197.621-26.75c-28.027-15.117-52.668-35.965-72.793-60.535
	C383.695,1543.004,419.387,1486.77,465.5,1440.816z M628.652,1870.484c0,28.004,0,56.008,0,84.012
	c-87.445,20.66-180.43,19.449-261.68-22.41c-30.805-15.863-59.477-37.457-83.227-63.324
	c10.246-82.875,29.754-164.566,61.895-241.824c2.277-5.484,4.652-10.941,7.074-16.387c20.285,23.871,44.766,44.066,72.371,59.316
	c61.598,34.047,133.711,38.523,202.098,27.891c0.769,24.691,1.211,49.363,1.516,73.945
	C629.113,1804.629,629.023,1837.559,628.652,1870.484z M927.25,1951.074c-75.273,14.332-152.406,14.039-228.422,6.43
	c-19.328-1.93-38.547-4.926-57.883-6.73c-1.16-0.105-2.57-0.281-3.981-0.301c0-26.664,0-53.324,0-79.988
	c0.652-57.719,0.641-115.672-1.43-173.516c17.902,6.223,37.703,7.98,56.379,10.066c29.516,3.289,59.215,5.027,88.879,6.242
	c29.648,1.211,59.344,1.703,89.016,1.188c19.344-0.336,39.418-0.41,58.492-4.184c0.387-0.078,0.777-0.133,1.16-0.211
	c0.043-0.008,0.078-0.023,0.117-0.039c-0.023,1.809-0.063,3.621-0.086,5.43c-0.613,43.613-0.555,87.215-0.273,130.813
	c0.223,35.07,0.586,70.145,0.879,105.227C929.305,1951.063,928.348,1950.863,927.25,1951.074z M947.769,1449.641
	c-5.387,36.438-9.207,72.836-11.945,109.285c-3.578,47.605-5.293,95.313-6.117,143.328c-0.394-0.16-0.828-0.25-1.289-0.277
	c-0.371-0.02-0.754-0.008-1.168,0.074c-18.676,3.855-38.461,3.727-57.441,4.102c-28.77,0.566-57.574,0.012-86.328-1.082
	c-29.051-1.098-58.105-2.883-87.027-5.863c-20.059-2.066-41.527-3.855-60.609-10.879c-0.219-0.086-0.426-0.125-0.641-0.172
	c-2.004-50.738-5.641-101.387-11.922-151.715c-6.875-55.051-16.301-112.348-40.043-163.051c74.457-21.5,153.004-28,229.957-33.645
	c0.898-0.07,1.637-0.375,2.234-0.816c31.914,46.895,77.473,87.012,136.039,86.227
	C950.219,1433.324,948.977,1441.477,947.769,1449.641z"/>
<path style="fill:#3D1C10;" d="M1286.352,1180.137c-3.496,20.965-10.555,39.75-25.012,55.605
	c-12.957,14.199-29.195,25.359-43.734,37.82c-4.078,3.492,1.828,9.344,5.879,5.875c15.813-13.555,33.223-25.684,46.98-41.457
	c13.734-15.754,20.504-35.285,23.902-55.637C1295.234,1177.102,1287.23,1174.855,1286.352,1180.137z"/>
<path style="fill:#3D1C10;" d="M1878.391,1814.664c-1.281-0.023-2.555,0.57-3.367,2.063c-8.473,15.574-18.645,30.188-30.145,43.699
	c-10.273-78.949-28.977-156.758-59.078-230.613c-3.605-8.836-7.387-17.625-11.328-26.355c8.926-11.336,16.934-23.387,23.895-35.988
	c0.254-0.465,0.527-0.914,0.781-1.383c0.129-0.234,0.211-0.469,0.297-0.699c0.695-1.988-0.258-3.797-1.75-4.777
	c-0.262-0.176-0.535-0.324-0.824-0.438c-1.703-0.703-3.762-0.375-4.902,1.723c-6.305,11.582-13.5,22.598-21.449,33.004
	c-26.012-55.594-59.289-108.238-101.637-152.641c-22.977-24.102-49.918-47.742-81.012-60.695
	c-12.375-5.16-24.992-9.707-37.781-13.758c3.484-6.617,7.344-13.035,11.633-19.152c0.691-0.992,0.848-1.965,0.66-2.836
	c-0.602-2.84-4.969-4.527-7.438-1.832c-0.137,0.148-0.277,0.293-0.406,0.473c-4.66,6.652-8.836,13.633-12.641,20.816
	c-74.445-22.23-154.602-28.039-231.191-33.656c7.016-10.934,13.332-22.117,18.898-33.164c0.352-0.699,0.484-1.387,0.465-2.047
	c-0.047-1.898-1.453-3.457-3.113-4.02c-1.637-0.559-3.508-0.156-4.527,1.871c-29.805,59.117-81,124.082-153.605,122.582
	c-3.758-24.594-7.555-49.18-10.824-73.805c-4.602-34.578-12.664-73.715-5.332-108.317c2.914-13.754,9.574-26.285,15.746-38.777
	c8.461-17.117,15.477-34.676,20.824-53.023c0.465-1.613,0.008-2.93-0.887-3.828c-1.02-1.012-2.582-1.477-4.012-1.23
	c-1.375,0.238-2.621,1.121-3.117,2.848c-3.742,12.836-8.664,24.938-13.984,36.891c-3.953,8.887-8.125,17.695-12.203,26.641
	c-1.086,2.383-2.168,4.773-3.242,7.188c-2.352,5.324-4.199,10.688-5.629,16.102c-4.016,15.152-4.711,30.672-3.715,46.824
	c0.746,12,1.793,23.98,3.043,35.953c4.461,42.766,11.648,85.356,17.996,127.797c6.926,46.313,13.09,92.531,15.754,139.309
	c2.516,44.082,3.523,88.25,4.191,132.398c1.379,91.609-0.195,183.148-0.766,274.758c-0.004,0.598-0.012,1.195-0.012,1.793
	c-0.035,5.313,8.094,5.352,8.289,0.156c0.008-0.051,0.02-0.102,0.02-0.156c0.055-9.152,0.125-18.313,0.207-27.477
	c0.215,0.082,0.434,0.16,0.688,0.203c66.129,12.594,133.66,14.184,200.676,9.359c22.582-1.625,45.086-4.145,67.539-6.961
	c6.426-0.801,12.848-1.656,19.289-2.301c0.566-0.059,1.141-0.105,1.711-0.145c0.363,0.648,0.945,1.199,1.762,1.547
	c-0.227,8.598-0.395,17.18-0.418,25.773c0,0.426,0.063,0.801,0.16,1.152c1.027,3.902,7.27,3.813,8.063-0.277
	c0.055-0.273,0.094-0.566,0.094-0.875c0.02-7.902,0.168-15.797,0.367-23.688c88.703,20.859,182.652,19.461,265.301-22.305
	c30.258-15.293,58.578-36.063,82.48-60.887c2.828,25.098,4.844,50.215,6.121,75.211c0.012,0.23,0.059,0.438,0.098,0.648
	c0.898,4.656,8.477,4.477,8.219-0.648c-0.016-0.223-0.031-0.453-0.039-0.676c-1.422-27.543-3.715-55.078-7.008-82.5
	c12.684-14.188,23.902-29.574,33.262-45.938c0.887-1.551,1.813-3.09,2.672-4.664
	C1883.953,1817.695,1881.152,1814.719,1878.391,1814.664z M1546.313,1375.383c22.215,6.465,43.934,14.801,63.215,27.254
	c49.609,32.047,88.074,81.57,118.703,131.215c13.586,22.02,25.742,44.805,36.637,68.172c-19.625,23.871-43.484,44.09-70.625,59.453
	c-60.586,34.281-132.309,38.723-199.867,27.961c1.992-51.168,5.641-102.242,11.977-152.996
	C1513.109,1482.305,1522.336,1425.074,1546.313,1375.383z M1484.352,1870.484c0.012,1.148,0.422,2.039,1.035,2.699
	c-0.148,25.793-1.414,51.566-2.254,77.348c-0.984,0.07-1.934,0.176-2.758,0.242c-19.34,1.641-38.574,4.758-57.887,6.73
	c-75.938,7.781-153.234,7.883-228.422-6.43c-1.094-0.207-2.039-0.012-2.828,0.414c0.363-39.387,0.859-78.801,1.152-118.219
	c0.301-41.051,0.355-82.109-0.215-123.145c0.277,0.059,0.563,0.098,0.836,0.156c18.367,3.629,37.629,3.73,56.254,4.141
	c29.52,0.648,59.07,0.078,88.574-1.039c29.813-1.129,59.633-2.965,89.305-6.105c19.441-2.055,40.176-3.855,58.785-10.355
	c-0.633,19.883-1.074,39.742-1.41,59.547C1483.875,1794.469,1483.922,1832.48,1484.352,1870.484z M1486.219,1688.133
	c-0.242,0.043-0.492,0.098-0.746,0.195c-18.402,6.777-38.984,8.535-58.328,10.641c-28.773,3.121-57.703,4.813-86.621,6
	c-28.895,1.18-57.836,1.672-86.75,1.223c-19.699-0.301-40.316-0.141-59.707-4.141c-0.41-0.082-0.797-0.094-1.164-0.074
	c-0.301,0.02-0.582,0.059-0.844,0.133c-0.602-37.23-1.746-74.449-3.758-111.625c-0.559-10.422-1.168-20.832-1.871-31.25
	c-3.039-44.938-9.543-89.527-16.336-134.078c58.445,0.672,103.922-39.395,135.793-86.227c0.598,0.441,1.336,0.746,2.238,0.816
	c66.508,4.879,133.133,10.73,198.285,25.566c10.438,2.383,21.027,4.887,31.555,7.734c-15.602,32.383-24.02,68.773-30.641,103.434
	C1494.039,1546.039,1488.707,1617.184,1486.219,1688.133z M1754.348,1932.086c-81.07,42.566-175.656,42.965-263.02,22.09
	c0.855-27.898,2.324-55.781,2.398-83.691c0-1.211-0.438-2.137-1.09-2.801c-0.617-56.535-0.578-113.285,1.426-169.938
	c67.988,10.57,138.172,5.848,199.945-26.672c28.574-15.051,53.902-35.938,74.742-60.602c36.613,81.273,58.016,169.445,68.863,258.16
	C1813.84,1894.434,1785.172,1915.902,1754.348,1932.086z"/>
<path style="fill:#3D1C10;" d="M1154.309,834.094c2.477-4.746-4.703-8.949-7.176-4.191c-32.023,61.492-133.449,61.492-165.473,0
	c-2.477-4.758-9.648-0.555-7.176,4.191C1009.316,900.984,1119.473,900.984,1154.309,834.094z"/>
<path style="fill:#3D1C10;" d="M879.355,690.203c-0.277,0.262-0.535,0.566-0.758,0.949c-0.332,0.461-0.523,0.922-0.641,1.371
	c-3.027,6.57-1.703,14.973,4.141,19.59c6.746,5.336,16.508,3.133,20.785-4.109c3.676-6.219,2.289-14.773-2.461-19.969
	C894.504,681.551,884.418,684.207,879.355,690.203z"/>
<path style="fill:#3D1C10;" d="M1219.02,690.203c-0.277,0.266-0.535,0.566-0.754,0.949c-0.336,0.457-0.523,0.918-0.645,1.371
	c-3.031,6.566-1.699,14.973,4.141,19.59c6.742,5.336,16.508,3.133,20.781-4.109c3.672-6.219,2.289-14.773-2.457-19.969
	C1234.16,681.551,1224.078,684.207,1219.02,690.203z"/>
<path style="fill:#3D1C10;" d="M1307.914,946.707c0.648-1.836-0.117-3.75-1.441-4.883c-1.465-1.262-3.594-1.547-5.207,0.391
	c-61.18,73.617-158.242,96.301-250.141,96.563c-1.52,0.004-2.59,0.688-3.25,1.648c-1.664,2.422-0.59,6.676,3.25,6.664
	c44.121-0.125,89.488-5.383,131.676-18.723h0.004c47.625-15.051,91.195-40.394,124.336-80.277
	C1307.512,947.648,1307.75,947.18,1307.914,946.707z"/>
<path style="fill:#3D1C10;" d="M1332.305,731.922c7.168-14.02,11.059-29.875,10.73-45.324c-0.215-10.074-2.203-19.973-6.266-29.063
	c-0.195-0.434-0.43-0.836-0.629-1.266c-11.184-23.242-37.066-32.184-63.605-35.394c-17.238-2.082-34.73-1.769-48.633-1.387
	c-12.891,0.512-25.902,2.203-37.973,5.695c-24.738,7.152-45.547,21.922-53.313,49.953c-0.762,2.766-1.402,5.547-1.934,8.34
	c-10.855-20.82-32.695-33.543-57.594-35.481c0.109-8.871,0.215-17.738,0.332-26.609c0.063-5.359-8.246-5.356-8.316,0
	c-0.105,8.789-0.215,17.578-0.324,26.367c-29.422,0.621-54.496,17.207-67.383,41.98c-1.859-17.988-8.617-35.063-22.133-47.605
	c-11.906-11.043-27.391-16.754-43.391-19.723c-9.481-1.758-19.145-2.555-28.352-2.918c-17.305-0.484-38.25-1.004-57.82,2.426
	c-20.602,3.613-39.68,11.605-51.352,28.691c-0.195,0.285-0.363,0.582-0.551,0.871c-7.688,11.836-9.273,26.594-8.93,40.566
	c0.059,2.336,0.16,4.644,0.305,6.918c0.762,12.02,3.547,23.75,8.613,34.371c3.941,8.25,9.262,15.836,16.078,22.367
	c16.699,15.992,41.566,22.977,63.625,27.086c10.773,2.004,22.102,2.984,33.387,2.75c10.98-0.227,21.922-1.602,32.285-4.313
	c17.109-4.469,33.059-13.797,44.109-27.711c8.73-10.988,12.691-24.113,14.098-37.68c0.012-0.047,0.031-0.086,0.039-0.137
	c5.988-34.352,32.492-57.969,67.27-59.578c-0.402,32.832-0.809,65.668-1.215,98.5c-6.594-1.344-13.188-2.691-19.785-4.039
	c-3.133-0.641-7.133,2.926-4.695,6.105c7.277,9.481,14.551,18.965,21.82,28.445c3.219,4.191,10.441,0.059,7.18-4.195
	c-5.133-6.691-10.266-13.379-15.395-20.07c4.621,0.945,9.246,1.891,13.867,2.832c2.645,0.543,5.223-1.172,5.262-4.008
	c0.422-34.492,0.848-68.988,1.27-103.481c27.43,1.922,51.473,19.856,55.879,47.754c0.438,28.914,13.738,56.254,41.129,70.332
	c15.086,7.75,33.195,11.547,51.77,11.98c27.98,0.656,57.035-6.336,78.473-19.047C1313.781,759.195,1324.82,746.563,1332.305,731.922
	z M962.84,761.484c-15.531,11.012-34.051,14.363-52.637,15.277c-1.574,0.078-3.16,0.125-4.754,0.16
	c-26.93,0.551-55.934-5.305-79.078-19.094c-11.633-6.934-19.684-16.82-24.969-28.219c-4.848-10.445-7.375-22.156-8.129-34.063
	c-1.09-17.223,1.5-35.129,14.148-47.785c9.266-9.277,22.324-13.883,35.527-16.453c6.719-1.309,13.477-2.098,19.793-2.695
	c13.539-1.266,27.199-1.195,40.781-0.813c10.219,0.406,20.781,1.371,30.941,3.668c13.438,3.043,26.164,8.414,36.453,17.965
	c14.016,13.004,18.305,32.438,18.781,50.816C990.332,724.621,983.332,746.949,962.84,761.484z M1238.945,776.394
	c-5.152,0.477-10.426,0.691-15.707,0.629c-39.805-0.465-80.758-17.086-85.066-62.438c-1.773-18.691,0.109-38.648,10-54.969
	c8.145-13.445,21.766-21.176,36.367-25.766c5.652-1.773,11.445-3.094,17.133-4.07c7.332-1.258,14.805-1.688,22.23-1.98
	c14.863-0.41,33.93-0.824,52.039,1.941c25.234,3.856,48.617,13.891,56.129,38.816c5.949,19.711,1.656,41.664-7.727,59.914
	c-1.91,3.711-4.016,7.281-6.305,10.637C1300.539,764.754,1268.348,773.66,1238.945,776.394z"/>
<path style="fill:#3D1C10;" d="M791.348,523.359c13.227-14.57,28.105-26.281,43.766-36.902
	c17.816-12.086,36.656-22.766,55.285-34.563c2.223-1.406,2.336-3.863,1.344-5.652c-1.027-1.848-3.231-2.988-5.539-1.527
	c-19.688,12.473-40.637,22.855-59.586,36.48c-13.988,10.055-26.902,21.32-38.762,33.777c-0.793,0.84-1.598,1.664-2.383,2.512
	c-24.855,26.781-43.816,58.621-57.754,92.277c-2.067,4.98-3.984,10.031-5.793,15.125c0,0-0.008,0-0.012-0.004
	c-0.051,0.168-0.113,0.34-0.164,0.508c-22.992,65.23-24.652,139.242,4.777,202.566c1.063,2.293,3.219,2.547,4.961,1.684
	c1.953-0.961,3.402-3.328,2.219-5.879c-18.301-39.371-23.715-82.52-19.566-125.043c5.731,3.402,10.734,8.387,15.09,13.035
	c3.344,3.566,6.43,7.371,9.391,11.277c-0.203-4.32-0.344-8.672-0.414-13.051c-7.195-8.215-14.957-15.086-23.18-19.16
	c2.305-18.363,6.359-36.551,11.898-54.219c14.195,7.855,26.594,19.332,37.387,32.59c2.281,2.801,5.672,1.019,6.617-1.695
	c0.457-1.316,0.352-2.844-0.742-4.188c-11.609-14.262-25.164-26.469-40.637-34.738c1.574-4.609,3.242-9.184,5.016-13.711
	C747.711,581.305,767.144,550.031,791.348,523.359z"/>
<path style="fill:#3D1C10;" d="M614.848,525.418c2.102,0.035,4.328-1.297,4.516-3.992c2.734-39.043,24.328-75.484,46.129-106.926
	c24.434-35.238,53.894-65.125,88.801-90.039c77.516-55.328,169.41-86.957,263.84-95.848c5.289-0.5,5.336-8.813,0-8.313
	c-98.773,9.297-193.684,42.887-274.195,101.414c-33.785,24.57-61.613,54.543-85.621,88.594c-4.938,6.992-9.789,14.27-14.426,21.766
	c-16.863,27.289-30.621,57.656-32.84,89.352C610.867,524.066,612.797,525.391,614.848,525.418z"/>
<path style="fill:#3D1C10;" d="M1101.699,228.613c142.766,0.434,300.996,58.535,366.504,194.926
	c1.504,3.133,5.027,2.453,6.707,0.289c0.906-1.18,1.285-2.789,0.473-4.484c-3.141-6.531-6.488-12.891-10.035-19.074
	c-71.855-125.344-225-179.547-363.648-179.969C1096.336,220.285,1096.34,228.598,1101.699,228.613z"/>
<path style="fill:#3D1C10;" d="M1009.863,418.523c-0.777,2.422,0.481,5.59,3.793,5.586c58.004-0.105,115.453-3.402,172.644,8.66
	c39.691,8.375,77.934,25.953,110.973,49.938c9.516,6.91,18.621,14.32,27.188,22.227c35.563,32.856,60.422,75.656,74.531,122.043
	c-15.715,8.098-30.055,19.918-42.445,34.613c-1.918,2.273-0.934,5.121,0.902,6.473c1.453,1.07,3.445,1.215,4.977-0.598
	c11.496-13.633,24.594-24.668,38.926-32.328c5.945,21.633,9.59,43.949,10.91,66.34c-7.84,4.836-15.477,11.277-22.617,18.406
	c-0.277,4.246-0.625,8.484-1.027,12.734c7.434-8.344,15.625-16.164,24.059-21.926c0.887,29.066-2.105,58.094-9.059,85.707
	c-0.402,1.621,0.094,2.949,1.008,3.856c2.023,2,6.109,1.938,7.008-1.641c25.723-102.203-0.957-219.121-76.242-294.691
	c-37.156-37.297-86.25-63.402-136.91-76.797c-60.43-15.977-123.059-11.441-184.824-11.328
	C1011.606,415.801,1010.348,417.02,1009.863,418.523z"/>
<path style="fill:#3D1C10;" d="M615.676,583.719c15.531,44.234,38.344,86.098,64.59,124.856c2.984,4.406,10.191,0.254,7.18-4.199
	c-25.836-38.137-48.469-79.328-63.75-122.867C621.93,576.484,613.898,578.648,615.676,583.719z"/>
<path style="fill:#3D1C10;" d="M714.305,571.563c-20.395-37.352-46.293-74.07-53.301-116.898c-0.867-5.281-8.875-3.031-8.02,2.207
	c7.121,43.516,33.426,80.941,54.141,118.887C709.695,580.465,716.871,576.269,714.305,571.563z"/>
<path style="fill:#3D1C10;" d="M771.012,499.93c-24.859-37.719-43.684-79.516-56.289-122.867c-1.496-5.137-9.516-2.949-8.012,2.211
	c12.789,43.988,31.895,86.574,57.125,124.852C766.769,508.578,773.973,504.422,771.012,499.93z"/>
<path style="fill:#3D1C10;" d="M839.66,444.715c-20.66-40.555-31.582-85.039-49.25-126.844c-2.078-4.922-9.234-0.684-7.176,4.195
	c17.676,41.824,28.57,86.254,49.246,126.844C834.914,453.688,842.086,449.48,839.66,444.715z"/>
<path style="fill:#3D1C10;" d="M953.496,397.953c-8.086-45.805-29.426-87.754-40.297-132.813c-1.254-5.211-9.269-3-8.016,2.207
	c10.875,45.066,32.211,87.016,40.297,132.82C946.406,405.438,954.418,403.195,953.496,397.953z"/>
<path style="fill:#3D1C10;" d="M1011.141,247.949c12.117,45.379,11.977,92.812,20.891,138.785c1.02,5.258,9.031,3.023,8.016-2.211
	c-8.914-45.969-8.773-93.395-20.891-138.781C1017.773,240.566,1009.754,242.766,1011.141,247.949z"/>
<path style="fill:#3D1C10;" d="M1121.422,249.828c-1.363,47.816,1.496,95.559,4.473,143.266c0.336,5.32,8.648,5.352,8.316,0
	c-2.98-47.707-5.84-95.449-4.477-143.266C1129.887,244.465,1121.57,244.48,1121.422,249.828z"/>
<path style="fill:#3D1C10;" d="M1226.73,399.059c0.625-40.98,18.746-79.641,16.414-120.875c-0.301-5.328-8.613-5.359-8.309,0
	c2.328,41.168-15.793,79.895-16.414,120.875C1218.336,404.422,1226.648,404.418,1226.73,399.059z"/>
<path style="fill:#3D1C10;" d="M1352.875,327.816c-10.613,40.359-24.969,79.555-37.305,119.387
	c-1.594,5.129,6.434,7.309,8.016,2.207c12.336-39.832,26.695-79.027,37.309-119.383
	C1362.258,324.836,1354.238,322.633,1352.875,327.816z"/>
<path style="fill:#3D1C10;" d="M1417.465,420.84c-15.332,30.246-34.301,58.418-50.738,88.047c-2.605,4.688,4.574,8.879,7.176,4.191
	c16.445-29.625,35.41-57.797,50.738-88.043C1427.063,420.262,1419.891,416.055,1417.465,420.84z"/>
<path style="fill:#3D1C10;" d="M1472.68,520.824c-17.949,26.832-36.785,53.082-53.727,80.586c-2.813,4.578,4.383,8.746,7.184,4.191
	c16.934-27.5,35.766-53.75,53.723-80.582C1482.852,520.551,1475.645,516.394,1472.68,520.824z"/>
<path style="fill:#3D1C10;" d="M1451.504,705.586c13.328-27.742,29.77-53.754,44.766-80.582c2.621-4.684-4.559-8.875-7.176-4.195
	c-15,26.828-31.441,52.84-44.77,80.582C1442.016,706.199,1449.18,710.418,1451.504,705.586z"/>
</svg>
