<?xml version="1.0" encoding="utf-8"?>
<!-- Generator: Adobe Illustrator 27.5.0, SVG Export Plug-In . SVG Version: 6.00 Build 0)  -->
<svg version="1.1" id="Capa_1" xmlns="http://www.w3.org/2000/svg" xmlns:xlink="http://www.w3.org/1999/xlink" x="0px" y="0px"
	 viewBox="0 0 2046 2200" style="enable-background:new 0 0 2046 2200;" xml:space="preserve">
<path style="fill:#4F494F;" d="M648.245,834.031c-10.454,3.602-22.689,5.502-36.96,5.219c-27.244-0.545-52.206-14.981-72.424-36.51
	c-0.207,6.7-0.414,13.399-0.647,20.1c2.269,0.136,4.487,1.649,4.593,4.562c2.178,60.407-5.429,120.471-6.25,180.804
	c-0.5,36.455-3.143,100.871,41.328,113.915c2.041,0.599,3.049,2.104,3.274,3.731c5.008,1.526,9.714,2.335,13.726,2.249
	c13.596-0.303,33.166-14.224,41.568-31.582c-7.627-63.643-7.167-129.974,14.978-189.396c2.117-5.687,11.303-3.229,9.158,2.521
	c-28.312,75.977-20.564,163.615-6.106,241.749c0.232,1.266-0.008,2.362-0.518,3.274c17.323,0.505,42.844,0.854,58.641-5.715
	c26.529-11.032,19.45-47.808,31.185-79.768c4.373,29.666,4.012,60.806,13.43,88.52c9.544-3.984,20.898-6.578,31.485-8.837
	c-0.687-0.561-1.2-1.402-1.4-2.582c-3.271-19.389-4.577-39.249-4.777-58.894c-0.172-17.055-0.601-35.606,4.777-52.027
	c1.897-5.793,11.071-3.312,9.158,2.526c-5.439,16.6-4.818,35.677-4.376,52.937c0.051,2.018,0.111,4.039,0.182,6.063
	c9.451,9.961,11.391,25.657,16.28,40.245c8.428,25.152,4.714,20.794,25.925,20.953c42.978,0.323,32.385-38.744,47.318-77.596
	c6.046,13.213,10.995,32.115,17.861,48.237c-0.235-22.123-0.424-43.233-0.581-62.66
	C775.731,1033.063,687.067,949.401,648.245,834.031z"/>
<path style="fill:#4F494F;" d="M564.992,596.481c32.653-0.917,60.222,13.101,82.821,34.325c5.884,0.359,2.493-0.118,8.307-7.885
	c12.417-16.588,15.888-40.863,24.036-59.712c3.984-9.211,7.872-18.715,12.24-27.939c12.574-63.686,44.41-124.48,78.594-178.892
	c3.249-5.171,11.47-0.409,8.201,4.793c-30.836,49.079-58.848,102.45-73.559,158.83c-4.919,18.849-20.862,82.932,17.52,77.687
	c2.612-0.359,4.575,1.185,5.459,3.105c4.474-3.274,6.763-10.676,10.825-19.968c8.024-18.346,14.587-46.078,25.662-65.381
	c0.215-0.846,0.43-1.675,0.647-2.486c18.321-69.06,52.495-134.413,84.635-197.804c2.771-5.462,10.964-0.654,8.203,4.795
	c-30.142,59.445-61.804,120.347-80.615,184.563c-6.458,22.047-22.818,74.249,10.944,82.767c2.854,0.72,3.738,3.209,3.246,5.432
	c24.309-3.664,24.054-45.343,33.072-67.135c1.051-11.818,2.698-23.573,5.177-35.204c16.777-78.662,59.972-150.319,105.815-215.223
	c3.501-4.959,11.742-0.225,8.2,4.793c-43.42,61.475-84.826,129.019-102.599,203.01c-4.237,17.634-6.983,35.5-7.935,53.614
	c-0.394,7.493-0.66,14.964-1.243,22.449c-1.109,14.157,0.339,31.953,19.144,31.654c8.542-0.136,16.755-1.336,25.173,0.614
	c0.522,0.121,0.957,0.318,1.354,0.548c0.22-19.122,6.002-42.778,13.945-62.013c0.2-3.795,0.523-7.523,0.96-11.103
	c4.272-35.25,14.605-69.628,26.549-102.963c17.207-48.02,37.981-94.676,60.124-140.603c2.66-5.517,10.848-0.697,8.2,4.793
	c-21.246,44.069-41.424,88.815-57.936,134.903c-11.154,31.127-21.476,63.131-26.365,95.93c-4.26,28.578-7.281,78.753,33.539,78.736
	c3.433-0.003,4.939,2.981,4.525,5.603c0.692,0.094,1.39,0.197,2.092,0.311c10.639-31.9,19.627-65.374,36.796-95.602
	c0.43-9.15,0.88-18.303,1.589-27.441c2.036-26.218,5.03-52.315,9.55-78.23c1.051-6.026,10.201-3.463,9.158,2.524
	c-4.373,25.064-7.357,50.334-9.211,75.706c-1.538,21.047-1.174,42.458-3.635,63.398c-1.582,13.455-9.259,43.054,6.402,50.751
	c11.856,5.826,25.71,5.311,38.769,6.639c7.665-93.555,21.057-187.433,1.266-280.462c-1.271-5.972,7.882-8.514,9.158-2.526
	c14.999,70.51,11.31,141.348,5.272,212.249c1.708-14.514,2.744-30.248,7.514-43.301c-1.407,19.137,12.131,46.366,17.156,65.232
	c4.624,17.351,8.713,33.327,24.069,40.805c0.697-1.309,2.021-2.238,4.004-2.137c55.15,2.819,36.026-76.426,28.231-108.445
	c-16.898-69.426-26.935-144.561-61.339-208.07c-2.918-5.387,5.283-10.181,8.203-4.793c20.218,37.329,31.476,78.607,41.038,119.74
	c8.023,34.51,16.848,68.948,24.245,103.592c0.326,1.516,0.652,3.11,0.98,4.735c8.661,20.513,13.008,43.149,17.535,64.563
	c3.651,17.275,2.296,28.406,19.238,31.7l0,0c-0.935-2.41-0.202-5.335,3.047-5.906c21.085-3.711,22.373-29.846,21.737-46.984
	c-1.094-29.397-8.198-58.56-16.328-86.714c-8.503-29.452-18.586-58.469-29.962-86.936c-7.18-17.965-14.317-36.534-24.083-53.301
	c-3.089-5.303,5.119-10.08,8.201-4.792c10.929,18.753,18.841,39.691,26.731,59.841c12.538,32.023,23.854,64.666,32.473,97.978
	c3.471,13.407,6.985,27.428,9.444,41.604c13.639,19.457,25.587,44.507,34.542,65.677c4.919,11.628,7.031,28.99,16.422,34.307
	c0.376-0.758,1.063-1.425,2.132-1.88c47.508-20.175,17.947-78.26,8.506-113.72c-16.909-63.496-44.082-123.315-69.749-183.598
	c-2.37-5.568,5.808-10.411,8.2-4.795c14.317,33.626,29.232,67.026,42.488,101.091c12.543,32.249,21.81,65.098,32.135,98.047
	c2.769,8.834,5.929,18.606,8.521,28.633c11.321,23.224,12.834,53.351,27.78,72.662c2.324,2.999,6.207,5.194,10.835,6.639
	c-2.604-1.25-5.174-2.731-7.644-4.393c-5.053-3.4-0.306-11.631,4.79-8.203c9.544,6.422,27.931,14.822,32.473-2.185
	c3.901-14.607,0.695-32.196-1.884-46.818c-5.3-30.033-14.234-59.283-22.55-88.583c-8.585-30.245-15.658-63.31-31.051-90.938
	c-12.629-22.674-28.78-43.112-41.497-65.735c-3.004-5.346,5.202-10.133,8.203-4.795c16.239,28.893,38.986,54.442,50.867,85.695
	c14.029,36.91,23.512,75.929,34.088,113.933c5.206,18.702,9.635,37.541,12.47,56.756c1.928,13.081,5.351,30.172,0.511,43.011
	c-2.304,6.119-5.596,10.315-9.499,12.958c1.069,4.616,2.082,9.246,2.999,13.9c26.175-18.809,56.721-28.073,89.207-24.069
	c-13.981-108.341-37.986-226.472-90.887-315.735c-53.113-89.624-156.817-127.926-244.468-143.41
	c-101.429-17.916-212.287-21.961-311.781,15.848c0.174,1.569-0.475,3.166-2.383,4.103c-73.413,35.995-135.912,90.473-178.72,160.707
	c-23.298,38.229-37.706,77.985-47.086,121.663c-4.699,21.888-9.178,43.827-14.604,65.548c-5.705,22.823-11.346,45.648-10.669,69.348
	c0.144,5.045-6.258,5.916-8.628,2.657c-0.692,8.057-1.291,16.128-1.804,24.205c6.141-1.443,12.54-2.139,19.084-2.152
	C563.209,596.794,564.012,596.506,564.992,596.481z"/>
<path style="fill:#4F494F;" d="M1390.083,839.25c-16.474,0.328-30.263-2.228-41.685-6.998
	c-15.855,49.342-39.901,95.829-72.637,134.997c1.897,1.627,2.822,4.681,0.757,7.16c-38.516,46.35-89.366,75.494-144.867,92.579
	c0.003,1.41,0.01,2.845,0.016,4.277c0.005,0.897,0.005,1.779,0.01,2.685c0.01,2.496,0.023,5.018,0.04,7.579
	c0.003,0.879,0.01,1.778,0.016,2.665c0.01,1.69,0.02,3.383,0.033,5.101c0.008,1.281,0.02,2.587,0.028,3.88
	c0.01,1.389,0.02,2.779,0.033,4.188c0.013,1.42,0.025,2.858,0.036,4.295c0.01,1.271,0.023,2.547,0.033,3.832
	c0.015,1.528,0.03,3.07,0.043,4.616c0.012,1.228,0.025,2.463,0.038,3.703c0.018,1.637,0.036,3.279,0.051,4.934
	c0.012,1.177,0.025,2.364,0.04,3.549c0.018,1.682,0.038,3.368,0.058,5.068c0.013,1.104,0.025,2.221,0.038,3.332
	c0.025,1.887,0.046,3.777,0.07,5.685c0.008,0.576,0.016,1.162,0.023,1.74c0.099,7.551,0.205,15.244,0.326,23.06
	c0.005,0.435,0.013,0.862,0.02,1.296c0.018,1.301,0.04,2.62,0.06,3.929c17.04-4.121,34.401-9.438,48.857-8.769
	c-0.558-23.212,4.047-57.661,16.798-76.573c-0.712-9.654-0.876-19.379-0.498-29.169c0.235-6.106,9.734-6.129,9.497,0
	c-1.195,30.98,3.127,61.124,13.569,90.339c2.069,5.783-7.112,8.251-9.158,2.526c-1.731-4.845-3.279-9.716-4.684-14.617
	c1.711,8.857,3.825,15.956,6.498,18.359c8.62,7.749,39.929-6.551,53.54-5.833c0.788-21.568,3.782-45.216,11.484-65.167
	c-2.63,6.811,2.991,27.309,9.949,43.617c-18.147-60.922,2.567-121.438,17.869-181.934c1.501-5.937,10.661-3.418,9.158,2.524
	c-16.229,64.161-39.067,128.143-12.212,192.892c1.394,3.365-1.294,5.573-4.184,5.651c0.821,0.95,1.614,1.718,2.357,2.213
	c12.424,8.294,47.128,4.618,55.331-10.244c2.991-5.422,1.475-35.851,1.981-44.279c0.667-11.118,0.361-23.656,3.128-33.251
	c-2.216-17.275-3.832-34.591-3.936-51.969c-0.265-43.526,9.185-86.171,12.328-129.449c0.439-6.071,9.943-6.116,9.499,0
	c-3.135,43.16-13.375,86.029-12.331,129.449c1.074,44.769,10.449,88.745,15.383,133.14c0.351,3.158-2.039,4.643-4.514,4.517
	c0.144,0.361,0.27,0.75,0.417,1.107c36.278-5.083,84.99-6.253,102.223-51.098c18.621-48.45,3.135-113.369-1.053-164.479
	c-3.61-44.047-6.008-88.745-8.57-133.474C1449.828,819.545,1421.473,838.624,1390.083,839.25z"/>
<path style="fill:#FAD6DB;" d="M1509.149,649.125c-6.015-18.185-15.749-31.003-27.714-39.37c-0.846,0.329-1.849,0.376-2.984-0.01
	c-53.391-18.232-101.78,2.241-137.015,44.019c-3.951,4.691-10.635-2.062-6.717-6.715c9.294-11.02,19.541-20.625,30.561-28.54
	c-0.917-4.653-1.93-9.284-2.999-13.9c-8.16,5.522-19.02,4.216-29.275-0.703c-4.628-1.445-8.511-3.64-10.835-6.639
	c-14.946-19.311-16.459-49.438-27.78-72.662c4.398,17.002,7.125,34.744,3.464,49.976c-0.841,12.161-5.389,22.173-17.199,26.102
	c-3.322,2.422-7.157,4.59-11.571,6.465c-4.51,1.915-8.541-3.082-6.927-6.321c-9.391-5.318-11.503-22.679-16.422-34.307
	c-8.955-21.171-20.903-46.22-34.542-65.677c2.756,15.878,4.184,31.953,2.665,47.598c-0.394,4.085-1.064,8.246-2.072,12.288
	c-1.882,11.51-6.417,20.776-15.436,24.399c-3.092,1.973-6.659,3.441-10.843,4.176c-2.754,0.485-4.77-1.2-5.573-3.252
	c-16.942-3.294-15.587-14.425-19.238-31.7c-4.527-21.413-8.875-44.049-17.535-64.563c4.998,24.854,9.752,61.344-2.415,83.518
	c-3.079,7.988-8.261,13.72-16.578,15.645c-6.01,2.701-13.371,4.035-22.365,3.575c-4.123-0.21-5.459-4.621-4.004-7.359
	c-15.355-7.478-19.445-23.454-24.069-40.805c-5.025-18.867-18.563-46.096-17.156-65.232c-4.77,13.054-5.806,28.788-7.514,43.301
	c-1.526,17.881-3.191,35.767-4.749,53.654c0.856,6.007,2.15,13.895,0.993,16.363c-0.523,1.117-1.43,2.084-2.62,2.923
	c-0.083,1.031-0.172,2.061-0.252,3.092c-0.263,3.312-2.815,5.088-6.01,4.58c-15.838-2.516-36.604,0.23-49.938-10.53
	c-13.753-11.103-10.805-31.4-8.948-46.985c1.809-15.181,2.491-30.442,3.208-45.706c-17.169,30.228-26.157,63.701-36.796,95.602
	c-0.702-0.114-1.4-0.217-2.092-0.311c-0.329,2.057-1.834,3.893-4.525,3.893c-10.967,0.005-19.463-2.961-25.981-7.935
	c-4.815-2.14-8.594-6.031-11.09-13.38c-7.182-13.458-8.87-31.354-8.001-47.874c-7.943,19.236-13.725,42.892-13.945,62.013
	c4.12,2.377,1.561,9.87-3.878,8.61c-17.245-3.997-43.299,5.629-49.943-18.667c-3.435-12.563-0.953-25.658-0.417-38.484
	c0.242-5.917,0.629-11.821,1.152-17.715c-9.019,21.792-8.764,63.471-33.072,67.135c-0.535,2.407-2.683,4.507-5.77,3.729
	c-6.361-1.61-11.326-4.386-15.189-7.996c-2.372-1.463-4.138-3.756-5.406-6.674c-10.855-17.886-5.724-46.699-0.695-66.326
	c-11.075,19.303-17.638,47.035-25.662,65.381c-4.063,9.292-6.352,16.694-10.825,19.968c1.137,2.478,0.472,5.588-2.936,6.05
	c-39.716,5.429-39.138-40.305-34.06-67.766c0.235-1.273,0.531-2.536,0.781-3.807c-4.368,9.224-8.256,18.727-12.24,27.939
	c-8.148,18.849-11.619,43.125-24.036,59.712c-5.813,7.766-2.423,8.244-8.307,7.885c5.984,5.621,11.641,11.72,16.926,18.213
	c3.83,4.704-2.847,11.467-6.715,6.715c-8.923-10.961-18.798-20.877-29.722-28.921c-3.07-0.955-5.588-1.844-6.253-2.294
	c-2.294-1.546-4.318-3.479-6.124-5.689c-15.105-8.483-32.003-13.382-50.933-12.852c-5.146,0.144-5.94-6.513-2.451-8.756
	c-6.543,0.013-12.942,0.71-19.084,2.152c-22.565,5.303-41.631,20.709-51.237,49.751c-13.23,45.547,8.049,112.513,46.639,153.616
	c20.218,21.529,45.181,35.965,72.424,36.51c14.271,0.283,26.507-1.617,36.96-5.219c38.822,115.37,127.486,199.031,250.829,232.038
	c0.157,19.427,0.346,40.538,0.581,62.66c0.482,46.212,1.147,96.812,2.051,145.641l0,0c0.073,3.984,0.149,7.958,0.225,11.914
	c3.191,32.09,28.391,71.359,103.193,101.225c3.061-0.861,6.245-1.269,9.567-1.069c3.317-0.2,6.505,0.212,9.57,1.079
	c81.57-32.377,110.643-75.767,110.79-109.117c-0.821-30.536-1.498-61.266-2.029-90.829c0.007,0.467,0.015,0.93,0.025,1.397
	c-5.21-5.432-10.823-10.464-16.878-15.004c-11.955-8.966-24.445-17.293-37.152-25.147c-12.801-7.915-25.986-15.211-39.525-21.785
	c-13.048-6.341-26.084-12.574-39.615-17.841c-32.251-12.564-66.205-20.494-100.639-23.657c-0.058-6.657-0.111-13.147-0.164-19.468
	c25.619,6.854,52.729,11.53,81.206,13.842c0.753-1.096,1.978-1.875,3.714-1.88c105.004-0.298,215.907-26.216,285.811-110.34
	c1.839-2.21,4.277-1.882,5.957-0.442c32.736-39.168,56.782-85.655,72.637-134.997c11.421,4.77,25.21,7.326,41.685,6.998
	c31.39-0.627,59.745-19.705,81.305-46.815C1504.265,751.089,1521.326,691.044,1509.149,649.125z"/>
<path style="fill:#F7BBBF;" d="M1132.582,1161.18c-0.121-7.816-0.227-15.509-0.326-23.06c-0.007-0.578-0.015-1.165-0.023-1.74
	c-0.025-1.908-0.046-3.797-0.07-5.685c-0.013-1.111-0.025-2.228-0.038-3.332c-0.02-1.7-0.04-3.385-0.058-5.068
	c-0.015-1.188-0.028-2.372-0.04-3.549c-0.015-1.655-0.033-3.297-0.051-4.934c-0.012-1.24-0.025-2.476-0.038-3.703
	c-0.012-1.546-0.028-3.087-0.043-4.616c-0.01-1.286-0.023-2.562-0.033-3.832c-0.01-1.437-0.023-2.875-0.036-4.295
	c-0.012-1.409-0.023-2.797-0.033-4.188c-0.008-1.293-0.02-2.6-0.028-3.88c-0.012-1.721-0.023-3.411-0.033-5.101
	c-0.005-0.887-0.013-1.786-0.016-2.665c-0.018-2.559-0.03-5.088-0.04-7.579c-0.005-0.906-0.005-1.789-0.01-2.685
	c-0.005-1.433-0.013-2.87-0.016-4.277c-47.414,14.597-98.219,20.4-147.658,20.539c-4.391,0.012-5.616-4.848-3.714-7.617
	c-28.477-2.312-55.587-6.988-81.206-13.842c0.053,6.321,0.106,12.811,0.164,19.468c34.434,3.163,68.388,11.093,100.639,23.657
	c13.531,5.267,26.567,11.5,39.615,17.841c13.539,6.573,26.724,13.87,39.525,21.785c12.707,7.854,25.197,16.181,37.152,25.147
	c6.056,4.54,11.669,9.572,16.878,15.004c-0.01-0.467-0.018-0.93-0.025-1.397c-0.038-2.203-0.081-4.396-0.116-6.581
	c-0.015-0.889-0.03-1.774-0.045-2.657c-0.038-2.228-0.076-4.457-0.113-6.667c-0.013-0.768-0.023-1.531-0.036-2.299
	c-0.018-0.993-0.03-1.978-0.048-2.963c-0.02-1.308-0.043-2.627-0.06-3.929C1132.595,1162.042,1132.587,1161.615,1132.582,1161.18z"
	/>
<path style="fill:#E8EEF9;" d="M1272.437,2072.906c0.735-15.946,1.735-31.887,2.903-47.806c-2.319-0.058-4.532-1.574-4.404-4.573
	c8.006-187.011,43.233-382.402-18.49-564.252c-0.98-2.895,0.796-4.957,3.07-5.596c-5.151-14.165-11.015-28.037-17.639-41.548
	c-31.496,53.417-84.208,97.329-136.081,128.436c-2.67,1.604-6.119,0.073-6.972-2.837c-6.793-23.083-15.047-45.952-24.65-68.001
	c-7.301-16.755-15.213-33.673-25.806-48.642c-6.697-9.464-16.601-22.944-29.677-22.151c-13.655-0.829-24.311,13.995-30.965,24.025
	c-9.744,14.688-17.576,30.594-24.518,46.762c-9.499,22.121-17.853,44.903-24.652,68.006c-0.856,2.91-4.303,4.441-6.975,2.837
	c-55.46-33.256-111.886-81.151-142.307-139.655c-0.288-0.551-0.437-1.096-0.511-1.625c-11.083,0.526-22.055,1.094-32.915,1.705
	c5.376-0.303,10.788-0.593,16.222-0.874c-4.411,12.703-7.819,25.624-10.449,38.693c2.497,0.424,4.916,2.642,4.389,5.876
	c-15.386,93.848,0.621,186.736,14.749,279.606c15.269,100.384,22.03,200.04,3.004,300.494c-0.184,0.965-0.586,1.687-1.106,2.23
	c-1.721,17.839-3.843,35.631-6.437,53.339c268.412,2.415,574.31-4.135,793.807-15.17c0,0,0,0-0.003-0.005
	C1479.136,2066.552,1378.717,2070.22,1272.437,2072.906z"/>
<path style="fill:#9DA373;" d="M770.6,2019.267c19.67-103.84,10.848-206.547-5.262-310.111
	c-13.96-89.743-27.337-179.402-12.49-269.994c0.457-2.777,2.642-3.714,4.772-3.35c2.63-13.069,6.038-25.991,10.449-38.693
	c-5.434,0.281-10.846,0.571-16.222,0.874c-0.189,0.01-0.374,0.02-0.561,0.031c-10.658,0.601-21.208,1.243-31.63,1.925
	c-0.26,0.02-0.523,0.035-0.788,0.05c-10.535,0.692-20.941,1.427-31.2,2.208c-0.018,0-0.035,0-0.053,0
	c-5.045,0.384-10.052,0.778-15.024,1.18c-0.326,0.028-0.652,0.053-0.978,0.081c-9.8,0.798-19.455,1.637-28.954,2.517
	c-0.424,0.038-0.849,0.078-1.273,0.116c-4.719,0.44-9.408,0.889-14.049,1.349c-0.134,0.012-0.263,0.025-0.394,0.038
	c-4.623,0.46-9.203,0.927-13.743,1.407c-0.22,0.02-0.44,0.046-0.66,0.068c-4.489,0.475-8.931,0.96-13.334,1.455
	c-0.495,0.055-0.986,0.111-1.476,0.167c-8.749,0.99-17.325,2.019-25.726,3.087c-0.558,0.071-1.119,0.141-1.677,0.215
	c-4.128,0.528-8.218,1.068-12.26,1.614c-0.314,0.045-0.624,0.089-0.94,0.131c-3.896,0.533-7.748,1.076-11.555,1.625
	c-0.369,0.053-0.743,0.106-1.112,0.159c-3.88,0.566-7.706,1.139-11.492,1.723c-0.601,0.091-1.197,0.187-1.796,0.281
	c-7.584,1.177-14.976,2.398-22.163,3.653c-0.622,0.109-1.238,0.217-1.854,0.326c-3.507,0.621-6.968,1.248-10.373,1.887
	c-0.412,0.076-0.816,0.157-1.225,0.233c-3.181,0.601-6.316,1.212-9.406,1.829c-0.452,0.09-0.915,0.179-1.364,0.27
	c-3.243,0.657-6.432,1.319-9.57,1.994c-0.606,0.129-1.208,0.26-1.806,0.392c-6.349,1.374-12.475,2.789-18.377,4.244
	c-0.586,0.144-1.172,0.288-1.751,0.434c-2.857,0.712-5.667,1.433-8.412,2.165c-0.422,0.114-0.834,0.228-1.25,0.341
	c-2.517,0.677-4.987,1.364-7.405,2.059c-0.419,0.118-0.839,0.235-1.253,0.356c-2.594,0.75-5.123,1.516-7.602,2.284
	c-0.523,0.164-1.044,0.328-1.559,0.492c-5.014,1.584-9.784,3.206-14.299,4.869c-0.48,0.176-0.963,0.353-1.435,0.53
	c-2.175,0.816-4.297,1.64-6.348,2.471c-0.339,0.139-0.667,0.28-1.001,0.42c-1.867,0.768-3.678,1.541-5.439,2.329
	c-0.318,0.141-0.649,0.283-0.965,0.424c-1.895,0.859-3.714,1.725-5.479,2.602c-0.387,0.19-0.763,0.384-1.145,0.576
	c-1.778,0.902-3.517,1.811-5.161,2.733c-172.225,96.725-202.763,506.644-202.5,562.906c0.003,0.508,0.076,1.01,0.182,1.511
	c0.025,0.109,0.045,0.217,0.073,0.323c0.124,0.487,0.291,0.968,0.513,1.447c0.038,0.079,0.086,0.157,0.124,0.235
	c0.217,0.439,0.48,0.874,0.775,1.303c0.058,0.081,0.106,0.165,0.167,0.248c0.344,0.465,0.738,0.93,1.172,1.392
	c0.098,0.099,0.199,0.2,0.301,0.303c0.462,0.46,0.955,0.919,1.508,1.377c0.012,0.01,0.023,0.02,0.035,0.031
	c0.569,0.462,1.197,0.917,1.862,1.374c0.146,0.096,0.288,0.197,0.439,0.295c0.667,0.445,1.375,0.887,2.137,1.321
	c0.121,0.068,0.252,0.139,0.379,0.207c0.702,0.394,1.45,0.794,2.23,1.18c0.159,0.078,0.311,0.159,0.472,0.238
	c0.867,0.422,1.783,0.843,2.739,1.26c0.215,0.096,0.435,0.187,0.654,0.28c0.967,0.412,1.963,0.821,3.016,1.228
	c0.043,0.013,0.086,0.033,0.131,0.051c1.091,0.419,2.238,0.831,3.418,1.24c0.263,0.091,0.526,0.182,0.793,0.273
	c1.178,0.401,2.39,0.798,3.648,1.195c0.2,0.058,0.404,0.122,0.604,0.185c1.165,0.356,2.365,0.71,3.597,1.063
	c0.255,0.076,0.505,0.147,0.766,0.22c1.364,0.386,2.771,0.766,4.214,1.145c0.313,0.078,0.632,0.159,0.945,0.243
	c1.43,0.366,2.888,0.733,4.394,1.089c0.098,0.025,0.187,0.048,0.283,0.071c1.569,0.374,3.193,0.743,4.845,1.109
	c0.381,0.086,0.761,0.169,1.147,0.252c1.647,0.361,3.332,0.72,5.06,1.074c0.247,0.051,0.505,0.104,0.755,0.154
	c1.594,0.321,3.223,0.644,4.883,0.957c0.356,0.071,0.71,0.139,1.066,0.208c1.821,0.344,3.678,0.684,5.573,1.021
	c0.404,0.07,0.816,0.144,1.228,0.217c1.839,0.323,3.704,0.645,5.614,0.963c0.157,0.023,0.313,0.053,0.472,0.075
	c2.021,0.339,4.093,0.669,6.187,0.993c0.472,0.076,0.945,0.146,1.422,0.222c2.087,0.321,4.204,0.642,6.361,0.955
	c0.321,0.05,0.649,0.091,0.973,0.139c1.978,0.286,3.989,0.571,6.025,0.852c0.448,0.06,0.892,0.124,1.339,0.187
	c2.243,0.306,4.52,0.606,6.834,0.907c0.485,0.061,0.978,0.126,1.465,0.187c2.211,0.28,4.444,0.563,6.715,0.839
	c0.232,0.028,0.462,0.058,0.699,0.091c2.428,0.291,4.901,0.581,7.4,0.872c0.563,0.063,1.124,0.129,1.69,0.195
	c2.501,0.283,5.027,0.565,7.596,0.846c0.326,0.036,0.66,0.071,0.988,0.104c2.377,0.258,4.788,0.51,7.225,0.76
	c0.528,0.056,1.046,0.109,1.574,0.167c2.633,0.268,5.301,0.533,7.994,0.798c0.55,0.05,1.109,0.106,1.66,0.159
	c2.569,0.248,5.161,0.49,7.786,0.735c0.278,0.025,0.554,0.051,0.834,0.078c2.822,0.258,5.679,0.513,8.562,0.766
	c0.621,0.053,1.248,0.109,1.872,0.161c2.895,0.253,5.813,0.5,8.769,0.746c0.306,0.023,0.614,0.048,0.917,0.078
	c2.776,0.228,5.585,0.449,8.415,0.675c0.576,0.046,1.15,0.089,1.728,0.134c3.014,0.238,6.058,0.47,9.13,0.697
	c0.556,0.045,1.117,0.086,1.673,0.127c2.941,0.215,5.904,0.429,8.898,0.644c0.306,0.023,0.611,0.043,0.915,0.063
	c3.175,0.227,6.384,0.445,9.613,0.662c0.685,0.045,1.364,0.094,2.052,0.139c3.264,0.217,6.551,0.432,9.873,0.641
	c0.204,0.015,0.414,0.028,0.619,0.041c3.201,0.202,6.435,0.401,9.686,0.601c0.611,0.038,1.217,0.073,1.832,0.111
	c3.357,0.202,6.737,0.399,10.151,0.596c0.578,0.033,1.162,0.066,1.741,0.099c3.226,0.187,6.473,0.364,9.744,0.543
	c0.379,0.018,0.755,0.043,1.139,0.064c3.509,0.189,7.051,0.374,10.616,0.561c0.662,0.035,1.329,0.068,1.991,0.101
	c3.61,0.187,7.238,0.372,10.898,0.551c0.202,0.01,0.407,0.018,0.612,0.028c3.512,0.169,7.048,0.336,10.605,0.505
	c0.662,0.03,1.321,0.058,1.981,0.088c3.648,0.17,7.316,0.336,11.007,0.498c0.614,0.025,1.23,0.051,1.845,0.081
	c3.529,0.154,7.076,0.305,10.646,0.455c0.353,0.013,0.705,0.028,1.059,0.043c3.843,0.156,7.715,0.313,11.603,0.467
	c0.647,0.023,1.296,0.051,1.945,0.075c7.89,0.309,15.876,0.601,23.947,0.887c0.617,0.023,1.236,0.04,1.852,0.066
	c4.009,0.136,8.036,0.275,12.088,0.409c0.43,0.01,0.862,0.025,1.291,0.043c3.949,0.129,7.918,0.255,11.907,0.379
	c0.313,0.01,0.621,0.018,0.935,0.032c4.09,0.121,8.206,0.245,12.336,0.364c0.698,0.02,1.397,0.04,2.097,0.066
	c8.415,0.24,16.908,0.47,25.478,0.69c0.571,0.015,1.142,0.033,1.711,0.045c4.274,0.106,8.567,0.215,12.876,0.316
	c0.392,0.008,0.781,0.015,1.17,0.025c4.224,0.099,8.466,0.197,12.728,0.293c0.293,0.007,0.584,0.015,0.877,0.02
	c4.396,0.096,8.812,0.192,13.243,0.281c0.541,0.01,1.081,0.023,1.621,0.038c8.948,0.177,17.968,0.349,27.052,0.508
	c0.518,0.008,1.036,0.02,1.556,0.025c4.515,0.076,9.044,0.154,13.592,0.228c0.346,0.003,0.695,0.007,1.043,0.015
	c4.54,0.073,9.095,0.144,13.665,0.205c0.152,0.007,0.301,0.007,0.452,0.01c4.676,0.066,9.367,0.129,14.069,0.192
	c0.445,0.008,0.884,0.013,1.327,0.018c9.441,0.122,18.94,0.23,28.487,0.331c0.369,0.005,0.733,0.01,1.102,0.012
	c4.828,0.048,9.668,0.096,14.521,0.139c0.016,0,0.033,0,0.048,0l0,0c2.595-17.707,4.717-35.5,6.437-53.339
	C775.933,2026.874,769.647,2024.29,770.6,2019.267z"/>
<path style="fill:#9DA373;" d="M1863.312,2029.9c0.101-0.255,0.172-0.513,0.172-0.77c-0.02-28.51-18.962-507.304-194.626-579.445
	c-1.111-0.455-2.258-0.91-3.428-1.359c-0.381-0.15-0.778-0.293-1.167-0.44c-0.803-0.306-1.612-0.609-2.445-0.91
	c-0.475-0.174-0.96-0.344-1.442-0.515c-0.781-0.275-1.564-0.553-2.365-0.826c-0.518-0.179-1.041-0.354-1.569-0.53
	c-0.801-0.268-1.617-0.541-2.441-0.803c-0.538-0.177-1.079-0.351-1.627-0.525c-0.854-0.273-1.723-0.541-2.6-0.811
	c-0.543-0.164-1.074-0.331-1.619-0.498c-0.988-0.295-1.996-0.591-3.009-0.887c-0.457-0.131-0.902-0.265-1.362-0.399
	c-1.486-0.424-2.996-0.852-4.54-1.271c-0.149-0.04-0.306-0.081-0.46-0.126c-1.392-0.379-2.804-0.753-4.241-1.132
	c-0.541-0.139-1.096-0.28-1.647-0.419c-1.066-0.276-2.139-0.548-3.234-0.821c-0.642-0.165-1.298-0.321-1.955-0.483
	c-1.026-0.252-2.061-0.502-3.108-0.755c-0.687-0.161-1.379-0.326-2.074-0.487c-1.046-0.248-2.102-0.493-3.165-0.735
	c-0.713-0.164-1.425-0.326-2.147-0.487c-1.101-0.248-2.215-0.495-3.335-0.74c-0.697-0.152-1.385-0.306-2.092-0.457
	c-1.276-0.278-2.577-0.55-3.88-0.824c-0.559-0.118-1.107-0.237-1.673-0.356c-1.869-0.386-3.764-0.773-5.679-1.155
	c-0.42-0.083-0.849-0.167-1.269-0.247c-1.511-0.303-3.031-0.601-4.575-0.897c-0.748-0.144-1.516-0.288-2.274-0.432
	c-1.24-0.233-2.481-0.468-3.734-0.7c-0.846-0.159-1.703-0.313-2.556-0.467c-1.198-0.223-2.403-0.44-3.62-0.655
	c-0.876-0.157-1.763-0.316-2.647-0.47c-1.236-0.217-2.484-0.437-3.734-0.649c-0.887-0.151-1.768-0.303-2.661-0.455
	c-1.276-0.217-2.567-0.435-3.863-0.647c-0.889-0.149-1.773-0.298-2.67-0.444c-1.445-0.235-2.908-0.47-4.373-0.703
	c-0.748-0.121-1.483-0.243-2.233-0.359c-2.183-0.346-4.386-0.687-6.609-1.028c-0.753-0.117-1.526-0.23-2.286-0.344
	c-1.513-0.23-3.029-0.457-4.56-0.685c-0.995-0.146-2.001-0.293-3.001-0.437c-1.329-0.194-2.658-0.389-3.999-0.582
	c-1.084-0.154-2.175-0.305-3.267-0.459c-1.273-0.179-2.552-0.359-3.835-0.536c-1.134-0.157-2.274-0.313-3.418-0.47
	c-1.296-0.174-2.597-0.351-3.903-0.525c-1.13-0.149-2.256-0.301-3.396-0.452c-1.344-0.177-2.703-0.351-4.06-0.528
	c-1.134-0.146-2.264-0.293-3.408-0.439c-1.463-0.187-2.941-0.371-4.417-0.554c-1.04-0.131-2.072-0.265-3.117-0.391
	c-2.41-0.299-4.833-0.594-7.271-0.887c-1.233-0.147-2.481-0.291-3.719-0.437c-1.339-0.159-2.675-0.316-4.022-0.472
	c-1.319-0.154-2.647-0.303-3.976-0.455c-1.284-0.146-2.567-0.293-3.863-0.44c-1.357-0.152-2.718-0.303-4.087-0.452
	c-1.301-0.146-2.602-0.29-3.911-0.432c-1.374-0.146-2.749-0.298-4.133-0.444c-1.291-0.137-2.589-0.275-3.888-0.414
	c-1.42-0.149-2.845-0.298-4.277-0.447c-1.275-0.131-2.562-0.263-3.842-0.392c-1.463-0.152-2.921-0.301-4.391-0.447
	c-1.172-0.119-2.354-0.235-3.532-0.351c-3.474-0.344-6.968-0.682-10.492-1.016c-0.682-0.068-1.354-0.134-2.039-0.197
	c-1.662-0.156-3.337-0.313-5.009-0.467c-1.17-0.109-2.332-0.215-3.507-0.323c-1.637-0.149-3.289-0.298-4.938-0.447
	c-1.188-0.106-2.372-0.212-3.568-0.318c-1.698-0.15-3.4-0.298-5.111-0.45c-1.145-0.098-2.294-0.197-3.443-0.293
	c-1.746-0.152-3.494-0.301-5.25-0.45c-1.132-0.091-2.271-0.187-3.41-0.283c-1.779-0.146-3.562-0.293-5.353-0.44
	c-1.089-0.091-2.18-0.177-3.274-0.262c-1.859-0.151-3.714-0.301-5.581-0.447c-0.715-0.055-1.435-0.111-2.153-0.167
	c-4.388-0.344-8.807-0.682-13.253-1.01c-0.576-0.043-1.147-0.088-1.723-0.129c-1.978-0.146-3.966-0.288-5.955-0.435
	c-1.028-0.071-2.053-0.146-3.087-0.22c-1.936-0.139-3.876-0.275-5.823-0.409c-1.109-0.081-2.223-0.157-3.34-0.235
	c-1.897-0.131-3.805-0.26-5.71-0.389c-1.157-0.076-2.314-0.157-3.473-0.232c-1.94-0.129-3.883-0.258-5.831-0.384
	c-1.079-0.071-2.165-0.142-3.249-0.21c-2.029-0.129-4.06-0.26-6.101-0.389c-0.925-0.058-1.854-0.114-2.781-0.17
	c-7.789-0.485-15.646-0.952-23.571-1.399c-0.321-0.018-0.636-0.038-0.957-0.055c-2.206-0.124-4.421-0.245-6.639-0.366
	c-0.998-0.053-1.996-0.109-2.996-0.164c-2.092-0.114-4.194-0.228-6.298-0.336c-1.101-0.058-2.2-0.116-3.304-0.174
	c-2.059-0.106-4.126-0.209-6.192-0.316c-1.167-0.058-2.342-0.116-3.514-0.177c-2.059-0.104-4.118-0.204-6.184-0.303
	c-1.107-0.055-2.215-0.109-3.32-0.161c-2.178-0.101-4.358-0.207-6.543-0.311c-0.806-0.035-1.62-0.071-2.433-0.109
	c-4.022-0.184-8.059-0.366-12.109-0.541c-0.061,0.581-0.22,1.182-0.538,1.791c-1.968,3.784-4.05,7.523-6.227,11.22
	c6.624,13.511,12.488,27.382,17.639,41.548c2.299-0.644,5.106,0.169,6.091,3.07c62.011,182.709,26.87,378.888,18.829,566.778
	c-0.134,3.115-2.675,4.633-5.096,4.573c-1.167,15.919-2.167,31.859-2.903,47.806c106.28-2.685,206.699-6.354,293.584-10.724
	c-0.156-0.47-0.265-0.978-0.27-1.559c-0.182-38.289-4.229-76.434-4.413-114.725c-0.028-6.126,9.468-6.124,9.496,0
	c0.185,38.292,4.234,76.436,4.413,114.725c0.005,0.392-0.035,0.755-0.104,1.096c45.408-2.334,86.972-4.863,123.538-7.543
	c0.121-0.01,0.245-0.02,0.366-0.025c6.409-0.472,12.662-0.95,18.758-1.429c0.126-0.008,0.255-0.02,0.384-0.028
	c3.031-0.24,6.028-0.48,8.983-0.72c0.074-0.007,0.146-0.015,0.225-0.02c2.958-0.24,5.881-0.485,8.758-0.728
	c0.025-0.005,0.051-0.005,0.076-0.01c2.812-0.236,5.583-0.48,8.317-0.718c0.255-0.023,0.51-0.045,0.771-0.068
	c5.396-0.48,10.633-0.96,15.706-1.445c0.273-0.023,0.546-0.051,0.819-0.078c2.491-0.238,4.951-0.48,7.367-0.72
	c0.182-0.015,0.364-0.035,0.551-0.055c2.359-0.237,4.683-0.472,6.967-0.713c0.127-0.013,0.258-0.025,0.389-0.04
	c2.307-0.24,4.568-0.485,6.793-0.728c0.303-0.03,0.599-0.063,0.902-0.098c4.426-0.485,8.686-0.975,12.776-1.468
	c0.288-0.035,0.576-0.071,0.861-0.104c1.998-0.243,3.959-0.485,5.873-0.73c0.205-0.028,0.407-0.053,0.612-0.081
	c1.834-0.235,3.63-0.467,5.384-0.707c0.162-0.023,0.328-0.043,0.49-0.063c1.804-0.245,3.562-0.49,5.285-0.735
	c0.283-0.043,0.569-0.083,0.852-0.124c3.426-0.495,6.674-0.988,9.747-1.491c0.275-0.043,0.556-0.088,0.831-0.134
	c1.481-0.242,2.926-0.487,4.318-0.73c0.202-0.035,0.397-0.07,0.599-0.106c1.301-0.23,2.567-0.462,3.789-0.692
	c0.162-0.03,0.328-0.063,0.49-0.091c1.288-0.247,2.531-0.493,3.734-0.74c0.235-0.048,0.465-0.096,0.695-0.146
	c2.4-0.5,4.616-1.003,6.647-1.508c0.197-0.051,0.401-0.099,0.601-0.149c0.97-0.245,1.905-0.493,2.784-0.74
	c0.139-0.04,0.265-0.079,0.399-0.116c0.803-0.227,1.567-0.459,2.289-0.687c0.119-0.038,0.245-0.078,0.361-0.116
	c0.766-0.245,1.478-0.495,2.153-0.742c0.141-0.053,0.278-0.106,0.417-0.159c1.334-0.508,2.471-1.018,3.411-1.528
	c0.098-0.053,0.197-0.104,0.293-0.157c0.435-0.253,0.831-0.5,1.172-0.748c0.058-0.045,0.106-0.086,0.159-0.129
	c0.301-0.227,0.558-0.457,0.778-0.687c0.038-0.04,0.083-0.083,0.118-0.124c0.223-0.25,0.386-0.5,0.508-0.753
	C1863.266,2030.009,1863.286,2029.956,1863.312,2029.9z"/>
<path style="fill:#F7BBBF;" d="M1335.966,757.554c-11.497-21.08-30.129-32.893-50.617-37.111
	c-52.929-10.907-118.237,28.873-104.83,90.558c5.944,27.347,17.833,57.07,45.181,66.578c33.292,10.699,71.336,7.135,93.926-20.216
	c1.657-2.001,3.166-4.118,4.588-6.293C1340.162,826.632,1350.819,784.793,1335.966,757.554z"/>
<path style="fill:#F7BBBF;" d="M712.863,720.443c-20.486,4.219-39.12,16.032-50.617,37.111
	c-14.85,27.239-4.196,69.078,11.758,93.517c1.42,2.175,2.928,4.292,4.585,6.293c22.59,27.35,60.635,30.915,93.926,20.216
	c27.345-9.509,39.234-39.231,45.181-66.578C831.106,749.316,765.795,709.536,712.863,720.443z"/>
<path style="fill:#464045;" d="M792.026,596.261c-1.361,0.288-2.665,0.599-3.896,0.912c-16.381,4.201-35.058,13.109-42.776,29.116
	c-2.948,6.116,56.219,8.041,73.206,5.292c17.065-2.761,17.015-18.629,8.455-29.275C819.292,592.701,803.583,593.79,792.026,596.261z
	"/>
<path style="fill:#464045;" d="M1242.252,626.289c-7.72-16.007-26.395-24.914-42.773-29.116c-1.23-0.314-2.536-0.625-3.898-0.912
	c-11.561-2.471-27.267-3.56-34.99,6.045c-8.562,10.646-8.61,26.514,8.456,29.275C1186.037,634.33,1245.198,632.405,1242.252,626.289
	z"/>
<path style="fill:#E8EEF9;" d="M793.476,1393.12c28.737,55.264,81.343,100.836,133.736,133.11
	c7.425-24.311,16.421-48.341,26.948-71.432c8.981-19.695,25.568-60.134,50.964-67.288
	c-74.802-29.866-100.003-69.135-103.193-101.225c-0.407-4.098-0.478-8.084-0.225-11.914l0,0l0,0c0,0-21.53-7.306-34.194,12.414
	c-16.032,24.97-63.108,88.517-75.239,104.837C792.731,1391.993,793.14,1392.48,793.476,1393.12z"/>
<path style="fill:#E8EEF9;" d="M1024.261,1387.519c25.352,7.172,42.111,47.571,50.956,67.279
	c10.406,23.179,19.496,47.111,26.946,71.432c52.396-32.274,105.002-77.844,133.741-133.11c0.397-0.76,0.902-1.301,1.468-1.69
	c-10.502-16.29-49.839-77.374-65.439-102.402c-10.13-16.254-36.988-14.61-36.988-14.61c0.088,1.309,0.113,2.64,0.106,3.984
	C1134.903,1311.752,1105.831,1355.141,1024.261,1387.519z"/>
<path style="fill:#3D1C10;" d="M1369.519,729.234c2.968-3.527,6.025-6.988,9.162-10.368c0.311-0.137,0.627-0.313,0.94-0.541
	c12.01-8.613,25.526-14.069,39.592-6.89c8.355,4.264,14.181,13.089,15.964,22.108c1.185,6.005,10.337,3.456,9.158-2.526
	c-2.516-12.728-11.346-23.199-22.767-29.028c-7.263-3.706-14.872-4.297-22.277-2.953c15.552-13.25,32.754-24.164,51.578-31.132
	c5.694-2.107,3.234-11.288-2.521-9.158c-29.796,11.025-55.655,31.028-77.543,54.776
	C1370.458,718.755,1370.026,723.992,1369.519,729.234z"/>
<path style="fill:#3D1C10;" d="M626.604,709.317c-21.027-21.896-45.563-40.202-73.582-50.57c-5.755-2.13-8.218,7.051-2.524,9.158
	c18.824,6.967,36.028,17.881,51.577,31.132c-7.399-1.344-15.011-0.753-22.274,2.953c-11.424,5.828-20.251,16.3-22.767,29.028
	c-1.185,5.982,7.971,8.531,9.158,2.526c1.887-9.547,7.741-17.055,15.964-22.108c13.235-8.13,28.365-1.162,39.59,6.89
	c0.316,0.227,0.629,0.404,0.94,0.541c1.552,1.67,3.078,3.363,4.588,5.073C626.981,719.099,626.751,714.228,626.604,709.317z"/>
<path style="fill:#3D1C10;" d="M1101.892,844.157c2.824-5.424-5.371-10.227-8.201-4.793c-36.592,70.26-152.479,70.257-189.07,0
	c-2.829-5.434-11.027-0.632-8.203,4.793C936.223,920.583,1062.092,920.586,1101.892,844.157z"/>
<path style="fill:#3D1C10;" d="M787.723,679.739c-0.314,0.305-0.612,0.651-0.864,1.083c-0.379,0.533-0.601,1.059-0.73,1.571
	c-3.459,7.508-1.943,17.109,4.732,22.389c7.706,6.093,18.862,3.575,23.745-4.699c4.199-7.112,2.617-16.881-2.807-22.818
	C805.036,669.86,793.511,672.889,787.723,679.739z"/>
<path style="fill:#3D1C10;" d="M1178.965,704.782c7.705,6.091,18.862,3.577,23.747-4.699c4.196-7.112,2.615-16.881-2.809-22.818
	c-6.766-7.404-18.288-4.373-24.076,2.474c-0.313,0.305-0.609,0.651-0.862,1.083c-0.381,0.533-0.604,1.059-0.733,1.574
	C1170.777,689.904,1172.291,699.502,1178.965,704.782z"/>
<path style="fill:#3D1C10;" d="M1001.508,763.719c3.095,0.632,5.884-1.354,6.013-4.578c0.649-15.986,1.296-31.971,1.945-47.955
	c0.248-6.126-9.251-6.104-9.499,0c-0.569,14.064-1.139,28.128-1.708,42.195c-7.594-1.551-15.183-3.102-22.775-4.651
	c-3.58-0.73-8.15,3.342-5.363,6.975c8.309,10.835,16.623,21.666,24.933,32.501c3.676,4.787,11.932,0.066,8.203-4.793
	c-5.864-7.645-11.727-15.289-17.591-22.929C990.948,761.561,996.228,762.64,1001.508,763.719z"/>
<path style="fill:#3D1C10;" d="M983.994,1087.528c49.44-0.139,100.245-5.942,147.658-20.539l0,0
	c55.501-17.085,106.351-46.229,144.867-92.579c2.064-2.478,1.14-5.533-0.757-7.16c-1.68-1.44-4.118-1.768-5.957,0.442
	c-69.904,84.124-180.807,110.042-285.811,110.34c-1.736,0.005-2.961,0.783-3.714,1.88
	C978.377,1082.68,979.603,1087.54,983.994,1087.528z"/>
<path style="fill:#3D1C10;" d="M513.344,1945.897c0.096,39.711,2.383,79.483,4.411,119.139c0.313,6.094,9.81,6.124,9.499,0
	c-2.031-39.655-4.315-79.427-4.413-119.139C522.826,1939.774,513.329,1939.771,513.344,1945.897z"/>
<path style="fill:#3D1C10;" d="M1575.247,2060.623c-0.179-38.289-4.229-76.434-4.413-114.725c-0.028-6.124-9.524-6.126-9.496,0
	c0.184,38.292,4.231,76.436,4.413,114.725c0.005,0.581,0.114,1.089,0.27,1.559c0.003,0.005,0.003,0.005,0.003,0.005
	c1.392,4.171,8.186,4.029,9.12-0.465v-0.003C1575.212,2061.378,1575.252,2061.014,1575.247,2060.623z"/>
<path style="fill:#3D1C10;" d="M927.581,1537.567c2.673,1.604,6.119,0.073,6.975-2.837c6.799-23.104,15.153-45.886,24.652-68.006
	c6.942-16.168,14.774-32.074,24.518-46.762c6.654-10.03,17.311-24.854,30.965-24.025c13.076-0.794,22.979,12.687,29.677,22.151
	c10.593,14.969,18.505,31.887,25.806,48.642c9.603,22.05,17.856,44.918,24.65,68.001c0.854,2.91,4.302,4.441,6.972,2.837
	c51.873-31.107,104.585-75.019,136.081-128.436c2.178-3.696,4.259-7.435,6.227-11.22c0.318-0.609,0.478-1.21,0.538-1.791l0,0
	c0.412-3.858-4.277-6.745-7.271-4.691c-0.566,0.389-1.071,0.93-1.468,1.69c-28.739,55.266-81.345,100.836-133.741,133.11
	c-7.45-24.321-16.54-48.253-26.946-71.432c-8.845-19.707-25.604-60.106-50.956-67.279c-3.065-0.867-6.253-1.278-9.57-1.079
	c-3.322-0.2-6.506,0.208-9.567,1.069c-25.395,7.155-41.983,47.593-50.964,67.288c-10.527,23.091-19.524,47.121-26.948,71.432
	c-52.393-32.274-104.999-77.846-133.736-133.11c-0.336-0.639-0.745-1.126-1.202-1.498c-3.016-2.463-8.092,0.611-7.511,4.666
	c0.073,0.528,0.223,1.074,0.511,1.625C815.695,1456.417,872.12,1504.311,927.581,1537.567z"/>
<path style="fill:#3D1C10;" d="M1042.45,1422.413c0-6.124-9.496-6.124-9.496,0c0,214.207,0,428.414,0,642.624
	c0,6.124,9.496,6.124,9.496,0C1042.45,1850.827,1042.45,1636.619,1042.45,1422.413z"/>
<path style="fill:#3D1C10;" d="M1018.346,1449.495c8.165-4.285,10.788-15.244,8.261-23.51c-3.261-10.666-15.352-14.087-24.722-9.481
	c-0.432,0.149-0.869,0.351-1.309,0.679c-0.45,0.266-0.8,0.578-1.111,0.91c-6.844,5.896-9.072,15.724-5.205,24.114
	C998.611,1451.634,1009.469,1454.153,1018.346,1449.495z"/>
<path style="fill:#3D1C10;" d="M1001.885,1616.977c-0.432,0.149-0.869,0.354-1.309,0.68c-0.447,0.266-0.798,0.578-1.109,0.91
	c-6.847,5.896-9.075,15.724-5.207,24.116c4.351,9.428,15.209,11.944,24.086,7.288c8.165-4.284,10.788-15.241,8.261-23.512
	C1023.346,1615.795,1011.255,1612.375,1001.885,1616.977z"/>
<path style="fill:#3D1C10;" d="M1001.885,1817.454c-0.432,0.149-0.869,0.351-1.309,0.682c-0.45,0.263-0.8,0.576-1.111,0.904
	c-6.844,5.899-9.072,15.727-5.205,24.117c4.351,9.431,15.209,11.947,24.086,7.291c8.165-4.285,10.788-15.243,8.261-23.515
	C1023.346,1816.272,1011.255,1812.849,1001.885,1817.454z"/>
<path style="fill:#3D1C10;" d="M1001.885,2017.933c-0.432,0.147-0.869,0.349-1.309,0.675c-0.447,0.268-0.798,0.578-1.109,0.907
	c-6.844,5.899-9.075,15.729-5.207,24.119c4.351,9.428,15.209,11.947,24.084,7.288c8.167-4.284,10.79-15.244,8.264-23.51
	C1023.346,2016.745,1011.255,2013.325,1001.885,2017.933z"/>
<path style="fill:#3D1C10;" d="M752.847,1439.162c-14.847,90.591-1.47,180.25,12.49,269.994
	c16.11,103.564,24.933,206.271,5.262,310.111c-0.953,5.022,5.333,7.607,8.054,4.752c0.521-0.543,0.922-1.266,1.106-2.23
	c19.026-100.455,12.265-200.11-3.004-300.494c-14.127-92.87-30.134-185.758-14.749-279.606c0.528-3.234-1.892-5.452-4.389-5.876
	C755.49,1435.448,753.305,1436.385,752.847,1439.162z"/>
<path style="fill:#3D1C10;" d="M1252.446,1456.275c61.723,181.85,26.496,377.241,18.49,564.252
	c-0.129,2.999,2.085,4.515,4.404,4.573c2.42,0.061,4.962-1.458,5.096-4.573c8.041-187.89,43.183-384.069-18.829-566.778
	c-0.985-2.901-3.792-3.714-6.091-3.07C1253.242,1451.319,1251.466,1453.38,1252.446,1456.275z"/>
<path style="fill:#3D1C10;" d="M564.992,596.481c-0.98,0.025-1.784,0.313-2.451,0.74c-3.489,2.243-2.696,8.9,2.451,8.756
	c18.93-0.53,35.828,4.368,50.933,12.852c4.264,2.395,8.395,5.05,12.377,7.983c10.924,8.044,20.799,17.96,29.722,28.921
	c3.868,4.752,10.545-2.011,6.715-6.715c-5.285-6.493-10.942-12.591-16.926-18.213C625.215,609.582,597.645,595.564,564.992,596.481z
	"/>
<path style="fill:#3D1C10;" d="M1365.279,618.508c-11.02,7.915-21.266,17.52-30.561,28.54c-3.918,4.653,2.766,11.406,6.717,6.715
	c35.235-41.778,83.624-62.251,137.015-44.019c1.135,0.387,2.137,0.339,2.984,0.01c3.476-1.347,4.176-7.586-0.457-9.171
	c-8.941-3.052-17.785-5.07-26.491-6.144C1422,590.435,1391.455,599.699,1365.279,618.508z"/>
<path style="fill:#3D1C10;" d="M723.15,597.689c-38.382,5.244-22.439-58.838-17.52-77.687
	c14.711-56.38,42.723-109.751,73.559-158.83c3.269-5.202-4.951-9.964-8.201-4.793c-34.183,54.412-66.02,115.206-78.594,178.892
	c-0.25,1.271-0.546,2.534-0.781,3.807c-5.078,27.462-5.656,73.195,34.06,67.766c3.408-0.463,4.072-3.572,2.936-6.05
	C727.726,598.873,725.763,597.33,723.15,597.689z"/>
<path style="fill:#3D1C10;" d="M788.911,587.28c-33.762-8.518-17.402-60.72-10.944-82.767
	c18.811-64.217,50.473-125.119,80.615-184.563c2.761-5.449-5.431-10.257-8.203-4.795c-32.14,63.391-66.314,128.744-84.635,197.804
	c-0.217,0.811-0.431,1.64-0.647,2.486c-5.03,19.627-10.161,48.44,0.695,66.326c1.485,2.448,3.277,4.686,5.406,6.674
	c3.863,3.61,8.827,6.387,15.189,7.996c3.087,0.778,5.234-1.321,5.77-3.729C792.649,590.489,791.765,588,788.911,587.28z"/>
<path style="fill:#3D1C10;" d="M851.788,590.67c-18.806,0.298-20.253-17.497-19.144-31.654c0.584-7.486,0.849-14.956,1.243-22.449
	c0.952-18.114,3.698-35.98,7.935-53.614c17.772-73.991,59.179-141.535,102.599-203.01c3.542-5.017-4.699-9.752-8.2-4.793
	c-45.843,64.904-89.038,136.561-105.815,215.223c-2.478,11.631-4.126,23.386-5.177,35.204c-0.523,5.894-0.91,11.798-1.152,17.715
	c-0.536,12.826-3.019,25.92,0.417,38.484c6.644,24.296,32.699,14.67,49.943,18.667c5.439,1.26,7.998-6.232,3.878-8.61
	c-0.397-0.23-0.832-0.427-1.354-0.548C868.543,589.334,860.33,590.534,851.788,590.67z"/>
<path style="fill:#3D1C10;" d="M937.332,589.511c-40.82,0.018-37.799-50.157-33.539-78.736c4.888-32.799,15.211-64.803,26.365-95.93
	c16.512-46.088,36.69-90.834,57.936-134.903c2.648-5.49-5.54-10.31-8.2-4.793c-22.143,45.926-42.917,92.583-60.124,140.603
	c-11.945,33.335-22.277,67.713-26.549,102.963c-0.437,3.58-0.76,7.309-0.96,11.103c-0.869,16.52,0.818,34.416,8.001,47.874
	c2.802,5.255,6.439,9.83,11.09,13.38c6.518,4.974,15.014,7.94,25.981,7.935c2.69,0,4.196-1.836,4.525-3.893
	C942.271,592.492,940.766,589.508,937.332,589.511z"/>
<path style="fill:#3D1C10;" d="M1043.789,310.182c-1.276-5.987-10.429-3.446-9.158,2.526c19.791,93.03,6.399,186.908-1.266,280.462
	c-13.058-1.329-26.913-0.813-38.769-6.639c-15.661-7.698-7.983-37.296-6.402-50.751c2.461-20.94,2.097-42.351,3.635-63.398
	c1.854-25.372,4.838-50.643,9.211-75.706c1.043-5.987-8.107-8.549-9.158-2.524c-4.52,25.915-7.514,52.012-9.55,78.23
	c-0.71,9.138-1.16,18.291-1.589,27.441c-0.717,15.264-1.399,30.526-3.208,45.706c-1.857,15.585-4.805,35.882,8.948,46.985
	c13.334,10.76,34.1,8.013,49.938,10.53c3.195,0.508,5.747-1.268,6.01-4.58c0.081-1.031,0.169-2.062,0.252-3.092
	c0.518-6.43,1.064-12.859,1.627-19.286c1.558-17.887,3.223-35.773,4.749-53.654C1055.099,451.53,1058.788,380.692,1043.789,310.182z
	"/>
<path style="fill:#3D1C10;" d="M1117.937,381.463c-9.563-41.134-20.82-82.412-41.038-119.74c-2.92-5.389-11.121-0.594-8.203,4.793
	c34.403,63.509,44.44,138.644,61.339,208.07c7.794,32.019,26.918,111.264-28.231,108.445c-1.983-0.101-3.307,0.828-4.004,2.137
	c-1.455,2.738-0.119,7.15,4.004,7.359c8.994,0.46,16.355-0.874,22.365-3.575c7.456-3.35,12.829-8.812,16.578-15.645
	c12.167-22.174,7.413-58.664,2.415-83.518c-0.328-1.625-0.654-3.219-0.98-4.735C1134.785,450.411,1125.96,415.972,1117.937,381.463z
	"/>
<path style="fill:#3D1C10;" d="M1169.277,361.26c-7.89-20.15-15.802-41.088-26.731-59.841c-3.082-5.288-11.29-0.511-8.201,4.792
	c9.767,16.767,16.904,35.336,24.083,53.301c11.376,28.466,21.459,57.484,29.962,86.936c8.13,28.153,15.234,57.317,16.328,86.714
	c0.636,17.139-0.652,43.274-21.737,46.984c-3.249,0.571-3.981,3.497-3.047,5.906c0.803,2.052,2.819,3.737,5.573,3.252
	c4.184-0.735,7.751-2.203,10.843-4.176c8.304-5.298,12.955-14.453,15.436-24.399c1.008-4.042,1.677-8.203,2.072-12.288
	c1.519-15.645,0.091-31.72-2.665-47.598c-2.458-14.175-5.972-28.196-9.444-41.604
	C1193.131,425.926,1181.815,393.283,1169.277,361.26z"/>
<path style="fill:#3D1C10;" d="M1253.734,397.924c-13.255-34.065-28.171-67.465-42.488-101.091c-2.392-5.616-10.57-0.773-8.2,4.795
	c25.667,60.283,52.84,120.102,69.749,183.598c9.441,35.46,39.002,93.545-8.506,113.72c-1.069,0.455-1.756,1.122-2.132,1.88
	c-1.614,3.239,2.417,8.236,6.927,6.321c4.414-1.874,8.249-4.042,11.571-6.465c9.514-6.94,14.758-15.967,17.199-26.102
	c3.661-15.232,0.934-32.974-3.464-49.976c-2.592-10.027-5.752-19.799-8.521-28.633
	C1275.544,463.022,1266.277,430.173,1253.734,397.924z"/>
<path style="fill:#3D1C10;" d="M1371.78,591.651c4.84-12.839,1.417-29.929-0.511-43.011c-2.834-19.216-7.263-38.054-12.47-56.756
	c-10.576-38.004-20.059-77.023-34.088-113.933c-11.881-31.253-34.629-56.802-50.867-85.695c-3.001-5.338-11.207-0.551-8.203,4.795
	c12.717,22.623,28.868,43.061,41.497,65.735c15.393,27.628,22.467,60.693,31.051,90.938c8.317,29.3,17.25,58.55,22.55,88.583
	c2.579,14.622,5.785,32.21,1.884,46.818c-4.542,17.007-22.929,8.607-32.473,2.185c-5.096-3.428-9.843,4.803-4.79,8.203
	c2.471,1.662,5.04,3.143,7.644,4.393c10.255,4.919,21.115,6.225,29.275,0.703C1366.184,601.965,1369.475,597.769,1371.78,591.651z"
	/>
<path style="fill:#3D1C10;" d="M553.889,572.511c-0.677-23.7,4.964-46.525,10.669-69.348c5.426-21.721,9.906-43.66,14.604-65.548
	c9.38-43.678,23.788-83.434,47.086-121.663c42.808-70.234,105.307-124.712,178.72-160.707c1.908-0.937,2.556-2.534,2.383-4.103
	c-0.324-2.966-3.598-5.853-7.175-4.1c-35.709,17.507-68.491,39.309-97.877,64.982c-23.134,20.218-44.15,42.847-62.772,67.753
	c-6.771,9.052-13.258,18.374-19.385,28.02c-21.471,33.789-35.76,69.421-45.542,107.685c-1.283,5.009-2.493,10.06-3.625,15.163
	c-5.179,23.341-9.797,46.79-15.577,69.992c-0.712,2.862-1.425,5.724-2.122,8.587c-5.078,20.804-9.499,41.723-8.883,63.287
	c0.031,1.081,0.364,1.958,0.869,2.657C547.631,578.428,554.033,577.556,553.889,572.511z"/>
<path style="fill:#3D1C10;" d="M666.362,395.461c-21.527,41.128-38.658,85.433-45.466,131.513c-0.882,5.99,8.266,8.566,9.16,2.526
	c12.829-86.817,60.303-170.762,115.619-237.733c53.038-64.219,126.026-114.412,207.775-132.993c5.97-1.359,3.439-10.514-2.526-9.16
	c-83.71,19.031-157.18,70.323-211.966,135.436C710.638,318.714,686.728,356.551,666.362,395.461z"/>
<path style="fill:#3D1C10;" d="M1076.507,164.403c34.3,20.595,75.224,23.32,111.176,39.926
	c38.646,17.846,73.19,48.379,100.631,80.383c28.793,33.577,50.729,72.91,67.286,113.785c7.925,19.556,14.324,39.707,19.784,60.076
	c4.941,18.447,11.745,39.777,11.745,58.977c0,6.124,9.496,6.124,9.496,0c0-17.535-5.879-36.412-10.002-53.364
	c-5.32-21.853-12.228-43.298-20.312-64.282c-15.509-40.272-36.692-78.086-63.252-112.095c-27.6-35.344-61.615-62.418-99.623-85.807
	c-37.566-23.116-84.344-23.106-122.14-45.799C1076.035,153.04,1071.263,161.253,1076.507,164.403z"/>
<path style="fill:#3D1C10;" d="M1382.885,1135.862c-4.934-44.395-14.309-88.371-15.383-133.14
	c-1.044-43.42,9.196-86.29,12.331-129.449c0.444-6.116-9.059-6.071-9.499,0c-3.143,43.279-12.594,85.923-12.328,129.449
	c0.104,17.378,1.72,34.694,3.936,51.969c1.594,12.44,3.496,24.862,5.386,37.273c0.576,3.769,1.147,7.538,1.708,11.308
	c1.619,10.868,3.145,21.729,4.353,32.59c0.321,2.897,2.688,4.401,4.982,4.517
	C1380.846,1140.505,1383.236,1139.019,1382.885,1135.862z"/>
<path style="fill:#3D1C10;" d="M1303.329,1134.601c-26.855-64.75-4.017-128.731,12.212-192.892c1.504-5.942-7.657-8.461-9.158-2.524
	c-15.302,60.495-36.015,121.011-17.869,181.934c1.589,5.333,3.443,10.666,5.657,16.009c0.937,2.256,3.001,3.18,4.974,3.125
	C1302.035,1140.174,1304.723,1137.966,1303.329,1134.601z"/>
<path style="fill:#3D1C10;" d="M1220.885,1142.233c-10.442-29.214-14.764-59.358-13.569-90.339c0.237-6.129-9.262-6.106-9.497,0
	c-0.379,9.79-0.215,19.516,0.498,29.169c1.228,16.61,4.113,32.994,8.726,49.079c1.405,4.901,2.953,9.772,4.684,14.617
	C1213.773,1150.484,1222.954,1148.016,1220.885,1142.233z"/>
<path style="fill:#3D1C10;" d="M796.464,1037.89c1.913-5.838-7.261-8.319-9.158-2.526c-5.378,16.422-4.949,34.972-4.777,52.027
	c0.2,19.645,1.506,39.504,4.777,58.894c0.2,1.18,0.713,2.021,1.4,2.582c2.815,2.304,8.572-0.288,7.758-5.108
	c-2.607-15.459-3.67-31.195-4.193-46.868c-0.071-2.024-0.131-4.044-0.182-6.063C791.647,1073.567,791.025,1054.491,796.464,1037.89z
	"/>
<path style="fill:#3D1C10;" d="M654.483,1151.393c-14.458-78.134-22.206-165.772,6.106-241.749c2.145-5.75-7.041-8.208-9.158-2.521
	c-22.146,59.422-22.605,125.753-14.978,189.396c2.332,19.475,5.414,38.7,8.872,57.401c0.88,4.745,6.74,4.143,8.64,0.748
	C654.475,1153.756,654.715,1152.659,654.483,1151.393z"/>
<path style="fill:#3D1C10;" d="M577.884,1122.121c-44.471-13.043-41.828-77.46-41.328-113.915
	c0.821-60.333,8.428-120.397,6.25-180.804c-0.106-2.913-2.324-4.426-4.593-4.562c-2.481-0.149-5.022,1.359-4.904,4.562
	c2.377,66.008-6.963,131.662-6.29,197.624c0.142,13.625,0.725,29.346,3.383,44.539c1.751,10.002,4.406,19.769,8.438,28.557
	c7.081,15.433,18.396,27.84,36.518,33.158c3.843,1.127,6.222-2.377,5.8-5.429C580.933,1124.225,579.925,1122.719,577.884,1122.121z"
	/>
</svg>
