<?xml version="1.0" encoding="utf-8"?>
<!-- Generator: Adobe Illustrator 27.5.0, SVG Export Plug-In . SVG Version: 6.00 Build 0)  -->
<svg version="1.1" id="Capa_1" xmlns="http://www.w3.org/2000/svg" xmlns:xlink="http://www.w3.org/1999/xlink" x="0px" y="0px"
	 viewBox="0 0 2046 2200" style="enable-background:new 0 0 2046 2200;" xml:space="preserve">
<path style="fill:#F6B3A6;" d="M1509.146,640.509c-6.015-18.184-15.749-31.003-27.716-39.37c-0.844,0.328-1.847,0.376-2.981-0.013
	c-53.389-18.23-101.781,2.243-137.013,44.024c-1.791,2.124-4.14,1.888-5.813,0.571c-2.016-1.589-3.047-4.747-0.902-7.289
	c2.941-3.487,5.987-6.816,9.112-10.012c-19.359-55.842-73.139-148.591-113.924-215.159c0.76,4.36,1.357,8.736,1.705,13.124
	c2.47,2.443,2.496,7.137-1.754,7.741c-14.989,2.119-26.819-0.538-36.296-6.53c-3.62-1.086-6.834-2.83-9.315-5.596
	c-2.469-2.751-4.489-6.081-6.253-9.749c-8.468-12.167-14.014-28.135-18.162-45.12c-1.515-2.107-3.208-3.981-5.141-5.55
	c4.868,12.215,10.143,26.536,13.051,39.428c1.653,7.321,1.637,17.065,3.873,24.596c5.214,0.5,4.893,9.067-0.872,9.469
	c-16.277,1.142-29.328-1.829-39.911-7.754c-3.077-1.334-5.894-3.079-8.304-5.389c-0.399-0.384-0.768-0.811-1.157-1.21
	c-11.365-9.658-19.23-23.371-25.084-38.873c0.321,5.818,0.27,11.714,0.699,17.512c0.789,10.585,0,23.487,2.58,34.042
	c3.443,2.274,2.633,8.875-2.494,8.726c-26.744-0.78-49.018-18.422-57.938-43.389c-1.059-2.963,0.836-5.043,3.208-5.609
	c-2.857-9.029-5.116-18.785-6.321-28.285c-9.873,41.859-27.446,83.228-71.621,73.499c-5.646-1.245-3.699-9.464,1.561-9.274
	c1.511-12.707,8.59-26.628,12.084-38.421c4.769-16.118,2.529-35.08,7.647-50.081c-1.72,1.91-3.221,4.229-4.583,6.78
	c-10.901,34.666-25.759,68.88-53.937,81.85c0,0-0.008,0.003-0.01,0.005c-9.327,4.29-20.104,6.268-32.693,5.143
	c-5.098-0.457-5.919-7.258-2.4-9.064c1.283-3.484,2.721-6.89,4.146-10.31c-11.25,17.078-25.241,29.328-42.581,31.488
	c-1.245,0.389-2.484,0.692-3.694,0.801c-4.636,0.417-10.13-0.285-14.683-2.17c-3.517-0.915-7.142-2.193-10.891-3.898
	c-4.522-2.059-2.182-7.844,1.822-8.595c0.061-0.563,0.124-1.129,0.267-1.725c2.603-10.727,10.247-20.835,13.329-31.915
	c1.693-6.07,4.482-13.533,5.849-20.683c-5.755,13.486-12.321,26.547-19.738,38.729c-14.768,24.268-39.797,55.087-71.326,39.279
	c-1.091-0.543-1.758-1.309-2.109-2.16c-1.245-0.664-2.478-1.405-3.686-2.291c8.251-18.189,20.049-34.262,27.671-53.166
	c2.44-6.048,4.616-12.2,6.573-18.417c1.221-3.878,2.349-7.789,3.408-11.717c-37.478,63.484-109.539,189.515-133.312,258.863
	c4.037,4.135,7.925,8.468,11.618,13.008c3.832,4.704-2.847,11.47-6.715,6.715c-23.697-29.114-54.094-50.848-93.032-49.756
	c-5.143,0.144-5.939-6.513-2.45-8.756c-30.579,0.058-58.098,14.956-70.32,51.903c-20.158,69.406,39.815,188.542,119.066,190.126
	c14.271,0.283,26.506-1.617,36.96-5.219c38.822,115.37,127.484,199.032,250.826,232.036c0.491,60.412,1.309,137.114,2.66,209.748
	c0.77,41.402,1.715,81.477,2.87,116.453c77.298-1.594,156.842-1.424,234.344,0.359c-1.192-27.827-2.246-57.671-3.155-88.144
	c-0.101-3.476-0.207-6.96-0.306-10.449c-2.498-8.423-4.563-16.984-6.847-25.468c-3.865-14.345-9.072-27.818-16.123-40.899
	c-7.003-12.996-14.991-25.642-23.452-37.739c-7.281-10.403-15.742-19.948-25.137-28.479c-9.421-8.559-19.847-15.964-30.809-22.406
	c-12.316-7.238-25.596-12.508-39.08-17.124c-14.112-4.83-28.55-8.754-42.488-14.072c-13.766-5.252-27.173-11.515-41.32-15.706
	c-3.671-1.086-7.503-2.205-10.97-3.943c-0.065-7.587-0.129-14.971-0.187-22.133c25.367,6.788,52.189,11.444,80.355,13.781
	c0.154-2.241,1.665-4.376,4.565-4.378c106.096-0.2,216.046-20.355,285.811-107.778c1.817-2.276,4.272-1.925,5.949-0.432
	c32.736-39.173,56.787-85.663,72.642-135.007c11.421,4.769,25.21,7.326,41.687,6.998
	C1469.334,829.052,1529.306,709.915,1509.146,640.509z"/>
<path style="fill:#4D4441;" d="M648.245,825.416c-10.454,3.603-22.689,5.502-36.96,5.219
	c-79.251-1.584-139.223-120.72-119.066-190.126c12.222-36.947,39.741-51.845,70.32-51.903c0.669-0.427,1.472-0.715,2.45-0.74
	c35.255-0.99,64.591,15.421,88.128,39.53c23.773-69.348,95.834-195.378,133.312-258.863c-1.059,3.928-2.188,7.84-3.408,11.717
	c-1.958,6.217-4.133,12.369-6.573,18.417c-7.622,18.904-19.42,34.977-27.671,53.166c1.208,0.887,2.441,1.627,3.686,2.291
	c-1.412-3.416,2.529-8.231,6.902-6.04c30.727,15.403,55.091-28.188,66.212-50.097c13.254-26.102,24.071-54.291,30.569-82.894
	c1.359-5.97,10.515-3.438,9.16,2.526c-4.615,20.317-11.252,40.952-19.67,60.657c-1.367,7.15-4.156,14.613-5.849,20.683
	c-3.082,11.081-10.727,21.188-13.329,31.915c-0.144,0.596-0.207,1.162-0.267,1.725c0.922-0.174,1.938-0.078,2.974,0.392
	c36.071,16.396,59.639-20.893,71.96-49.476c13.243-30.723,21.171-63.81,26.708-96.72c1.018-6.03,10.166-3.463,9.158,2.524
	c-4.86,28.896-16.381,88.624-40.772,125.654c-1.425,3.421-2.863,6.826-4.146,10.31c0.657-0.336,1.443-0.518,2.4-0.432
	c70.345,6.275,79.129-98.684,97.503-145.602c2.208-5.634,11.394-3.185,9.158,2.527c-6.851,17.492-12.495,41.636-20.021,65.573
	c1.361-2.552,2.862-4.871,4.583-6.78c-5.119,15.001-2.878,33.964-7.647,50.081c-3.494,11.793-10.573,25.713-12.084,38.421
	c0.314,0.01,0.629,0.04,0.965,0.116c33.113,7.291,48.698-27.999,56.431-54.02c7.157-24.086,9.55-49.042,15.777-73.279
	c1.523-5.929,10.684-3.413,9.158,2.524c-3.832,14.921-6.922,37.748-12.27,60.434c1.205,9.499,3.464,19.256,6.321,28.285
	c2.258-0.543,4.952,0.288,5.949,3.082c7.46,20.883,26.479,35.768,48.781,36.42c1.001,0.028,1.822,0.323,2.494,0.77
	c-2.58-10.555-1.791-23.457-2.58-34.042c-0.429-5.798-0.379-11.694-0.699-17.512c-10.906-28.901-14.809-64.012-21.307-90.642
	c-1.455-5.947,7.706-8.471,9.156-2.524c12.498,51.196,12.839,142.065,86.607,136.894c0.308-0.023,0.591,0,0.872,0.028
	c-2.236-7.531-2.221-17.275-3.873-24.596c-2.908-12.892-8.182-27.214-13.051-39.428c1.932,1.569,3.625,3.443,5.141,5.55
	c-7.493-30.687-10.456-64.654-17.952-85.354c-2.092-5.773,7.089-8.239,9.158-2.527c10.239,28.272,11.543,59.209,19.182,88.204
	c7.557,28.664,21.497,62.557,57.11,57.515c1.774-0.253,3.239,0.386,4.28,1.417c-0.349-4.388-0.945-8.764-1.705-13.124
	c40.785,66.569,94.565,159.317,113.924,215.159c36.508-37.316,85.249-54.172,137.139-36.452c4.638,1.584,3.936,7.824,0.457,9.171
	c11.967,8.367,21.701,21.186,27.716,39.37c20.16,69.406-39.812,188.542-119.063,190.126c-16.477,0.328-30.265-2.228-41.687-6.998
	c-15.856,49.344-39.906,95.833-72.642,135.007c1.844,1.642,2.744,4.666,0.766,7.149c-38.529,48.281-89.263,76.594-144.87,92.466
	c0.083,25.617,0.361,55.329,0.824,87.211c0.002,0.046,0.002,0.086,0.002,0.129c0.091,6.212,0.19,12.511,0.293,18.874
	c0.007,0.392,0.015,0.786,0.02,1.18c0.051,2.961,0.101,5.937,0.154,8.928c0.01,0.528,0.018,1.058,0.027,1.589
	c0.051,2.867,0.101,5.745,0.154,8.632c0.008,0.256,0.01,0.508,0.016,0.763c0.053,2.809,0.106,5.631,0.161,8.456
	c0.015,0.818,0.031,1.634,0.048,2.453c0.053,2.718,0.106,5.444,0.161,8.175c0.02,0.955,0.04,1.91,0.061,2.865
	c0.04,2.059,0.086,4.121,0.129,6.187c0.035,1.632,0.07,3.264,0.106,4.901c0.038,1.763,0.078,3.532,0.116,5.297
	c0.033,1.445,0.066,2.893,0.099,4.34c0.038,1.658,0.075,3.318,0.113,4.975c0.056,2.372,0.111,4.745,0.17,7.119
	c0.018,0.776,0.035,1.552,0.053,2.329c0.091,3.679,0.18,7.359,0.273,11.04c0.003,0.116,0.008,0.228,0.01,0.342
	c0.263,10.474,0.546,20.951,0.844,31.377v-0.003c0.098,3.489,0.204,6.973,0.306,10.449c28.598,13.168,70.169-4.229,97.728-11.808
	c-10.434-19.008-12.95-50.69-16.686-76.795c-2.632-5.876-5.138-11.734-7.599-17.429c-10.201-23.629-19.233-47.71-26.721-72.339
	c-1.786-5.876,7.382-8.367,9.158-2.526c7.238,23.803,15.739,47.295,25.763,70.067c8.91,20.239,17.99,44.211,32.552,61.162
	c27.471,31.966,67.314,16.679,101.856,6.942c3.812-1.071,6.187,2.355,5.828,5.374c4.432-1.71,8.645-3.36,12.546-4.84
	c-8.572-13.448-17.163-31.446-23.676-49.029c-29.291-37.991-51.146-90.617-65.449-123.745c-2.4-5.563,5.78-10.403,8.2-4.795
	c11,25.471,27.325,66.155,48.773,100.813c-0.02-0.096-0.048-0.2-0.071-0.295c2.117,3.036,4.198,6.397,6.286,9.948
	c31.519,46.856,73.14,77.821,124.32,33.833c2.875-2.471,6.573-0.809,7.834,1.758c3.482-1.491,6.912-2.812,10.28-3.88
	c-6.4-18.871-16.254-39.838-23.45-60.202c-9.989-14.913-19.205-30.561-27.868-45.863c-13.225-23.358-24.44-47.641-30.273-73.955
	c-1.324-5.967,7.832-8.504,9.158-2.524c10.553,47.578,38.82,90.45,66.185,130.07c7.763,11.242,18.774,27.878,34.361,27.883
	c15.928,0.005,31.321-8.852,45.287-15.532c5.495-2.627,10.315,5.558,4.792,8.201c-14.817,7.089-32.964,17.904-50.079,16.83
	c-6.114-0.387-11.46-2.178-16.262-4.911c1.385,0.849,2.794,1.597,4.232,2.208c25.172,10.742,54.836-10.045,79.526-14.501
	c-9.81-21.175-27.686-36.265-40-55.67c-10.805-17.027-16.512-36.826-23.952-55.711c-1.308,3.534-6.47,5.31-8.334,1.059
	c-16.414-37.402-12.025-74.191,0.955-109.802c5.164-17.076,13.011-33.828,22.936-50.175c0.099-0.159,0.185-0.321,0.281-0.48
	c12.482-24.407,25.13-48.826,33.418-74.342c5.296-18.452,8.415-37.296,9.413-57.004c-0.066-5.949-0.47-11.983-1.284-18.117
	c-8.188-61.546-48.601-110.332-72.333-166.008c-25.628-60.136-5.7-129.815-38.436-188.1c-1.996-3.557,0.97-6.851,4.063-7.089
	c-76.535-186.349-271.125-273.854-470.806-273.854c-57.739,0-116.648,5.8-172.803,20.802
	c53.497-12.652,108.978-18.377,163.147-20.623c6.127-0.255,6.104,9.244,0,9.497c-94.356,3.916-192.716,17.992-277.234,62.628
	c-19.253,10.166-37.67,21.893-54.816,35.184c-11.343,9.85-22.111,20.37-32.118,31.602c-11.53,12.947-24.086,26.256-35.866,40.237
	c-1.814,2.691-3.603,5.399-5.328,8.155c-19.273,30.778-32.898,63.507-38.484,99.543c-5.722,36.927-5.99,74.706-13.935,111.297
	c-6.978,32.127-24.495,57.044-44.656,82.401c-23.411,29.444-42.606,59.164-52.492,95.927
	c-9.004,33.487-12.538,67.991-12.425,102.627c0.114,34.083,3.017,69.426,17.543,100.735c1.644,3.542-1.147,6.786-4.035,7.192
	c4.29,22.992,7.834,46.363,8.847,70.353c3.017,71.606-18.588,137.003-67.485,188.161c2.956,0.722,5.881,1.597,8.786,2.567
	c-2.716-4.027,3.335-9.434,7.569-5.735c43.554,38.041,103.675,32.832,146.047-0.662c7.152-7.063,14.084-14.415,21.441-21.378
	c35.24-42.973,51.092-98.06,83.503-143.013c3.549-4.919,11.793-0.185,8.2,4.795c-30.806,42.733-46.969,96.64-79.236,138.405
	c-1.733,23.348-16.297,44.358-19.539,66.948c1.109,0.341,2.193,0.715,3.284,1.086c0.525-2.928,3.658-5.487,7.01-3.534
	c41.758,24.336,82.321,11.227,115.875-17.224c10.421-12.998,20.226-26.777,33.065-37.248c0.129,0.455,0.227,0.899,0.344,1.351
	c21.759-28.797,37.905-62.125,45.595-89.303c1.667-5.881,10.833-3.377,9.16,2.524c-8.759,30.942-27.469,68.191-52.611,99.181
	c1.19,14.17-1.897,27.623-6.988,41.642c-5.821,16.017-12.548,25.094-7.976,30.71c0.452-2.496,2.623-4.702,5.775-3.815
	c85.764,24.111,131.278-82.09,154.513-145.716c2.082-5.704,11.263-3.241,9.158,2.526c-18.156,49.721-48.74,120.433-98.9,146.277
	c29.025-13.175,51.777-40.432,66.089-70.303c3.229,41.462-33.153,101.068,30.268,95.344c11.98-1.081,24.106-1.612,35.195-4.638
	c-1.351-72.634-2.17-149.336-2.66-209.748C775.729,1024.448,687.067,940.786,648.245,825.416z"/>
<path style="fill:#E7E4E1;" d="M754.785,1753.169c1.394,13.587,2.721,27.198,4.042,40.816c155.21-2.926,383.754-4.426,541.995-3.744
	c1.215-12.369,2.435-24.728,3.702-37.071c0.358-3.502,3.711-4.977,6.339-4.416c14.592-140.666,31.043-305.327,33.539-355.828
	c-64.51-4.257-134.107-7.268-205.456-8.913c-77.503-1.784-157.047-1.953-234.344-0.359c-65.773,1.354-129.904,3.992-189.758,8.001
	c2.279,48.965,18.89,215.241,33.603,357.099C751.074,1748.192,754.427,1749.667,754.785,1753.169z"/>
<path style="fill:#E7E4E1;" d="M587.666,1546.255c-0.066-1.683,0.617-2.882,1.627-3.64c-5.212-58.512-9.777-108.334-12.907-138.109
	c-87.698,10.939-156.182,26.178-191.857,46.212c-172.227,96.725-202.763,506.644-202.5,562.905
	c0.124,26.375,140.684,41.932,340.473,49.612c0,0,0.167-0.803,0.47-2.253c-2.445,0.106-5.057-1.415-5.217-4.563
	c-2.029-39.653-4.315-79.427-4.413-119.136c-0.015-6.129,9.484-6.124,9.496,0c0.088,35.489,1.925,71.025,3.759,106.479
	c12.533-59.071,50.241-232.876,62.14-242.729c0.823-0.677,5.563-1.339,13.64-1.971c-1.943-24.516-3.668-49.051-5.255-73.587
	C593.262,1665.779,589.998,1606.028,587.666,1546.255z"/>
<path style="fill:#E7E4E1;" d="M1668.855,1441.069c-35.338-14.511-101.477-26.706-185.973-36.144
	c-3.128,29.82-7.675,79.448-12.864,137.69c1.01,0.758,1.69,1.96,1.627,3.64c-2.334,59.77-5.571,119.528-9.459,179.22
	c-1.455,22.348-3.009,44.701-4.734,67.033c13.965,0.576,22.201,1.263,23.366,2.061c7.346,5.048,66.95,188.328,84.7,243.311
	c-0.892-33.554-4.019-67.018-4.181-100.598c-0.028-6.129,9.469-6.124,9.499,0c0.182,38.288,4.227,76.436,4.409,114.725
	c0.005,0.389-0.035,0.758-0.106,1.096c171.77-8.832,288.355-20.433,288.345-32.589
	C1863.461,1992.003,1844.521,1513.211,1668.855,1441.069z"/>
<path style="fill:#F18987;" d="M1134.631,1253.704c-0.093-3.681-0.182-7.361-0.273-11.04c-0.018-0.778-0.035-1.553-0.053-2.329
	c-0.058-2.374-0.114-4.746-0.17-7.119c-0.038-1.657-0.076-3.317-0.113-4.975c-0.033-1.447-0.066-2.895-0.099-4.34
	c-0.038-1.766-0.078-3.534-0.116-5.297c-0.036-1.638-0.071-3.269-0.106-4.901c-0.043-2.066-0.089-4.128-0.129-6.187
	c-0.021-0.955-0.041-1.91-0.061-2.865c-0.055-2.731-0.109-5.457-0.161-8.175c-0.018-0.818-0.033-1.634-0.048-2.453
	c-0.055-2.824-0.109-5.646-0.161-8.456c-0.005-0.255-0.008-0.508-0.016-0.763c-0.053-2.887-0.104-5.765-0.154-8.632
	c-0.01-0.531-0.018-1.061-0.027-1.589c-0.053-2.992-0.104-5.968-0.154-8.928c-0.005-0.394-0.013-0.789-0.02-1.18
	c-0.103-6.366-0.202-12.659-0.293-18.874c0-0.043,0-0.083-0.002-0.129c-0.463-31.875-0.743-61.602-0.824-87.211
	c-47.197,13.475-97.898,17.997-147.656,18.091c-3.226,0.005-4.737-2.625-4.565-5.118c-28.166-2.337-54.988-6.993-80.355-13.781
	c0.058,7.162,0.121,14.547,0.187,22.133c3.467,1.738,7.299,2.858,10.97,3.943c14.147,4.191,27.554,10.454,41.32,15.706
	c13.938,5.318,28.376,9.241,42.488,14.072c13.483,4.616,26.764,9.885,39.08,17.124c10.962,6.442,21.388,13.846,30.809,22.406
	c9.395,8.532,17.856,18.076,25.137,28.479c8.461,12.096,16.449,24.743,23.452,37.739c7.051,13.081,12.258,26.554,16.123,40.899
	c2.284,8.483,4.348,17.045,6.847,25.468c-0.298-10.426-0.581-20.903-0.844-31.374
	C1134.639,1253.932,1134.633,1253.821,1134.631,1253.704z"/>
<path style="fill:#F18987;" d="M1335.964,748.94c-11.494-21.08-30.124-32.893-50.615-37.112
	c-52.932-10.906-118.24,28.874-104.83,90.559c5.944,27.348,17.833,57.07,45.181,66.579c33.289,10.699,71.336,7.134,93.924-20.216
	c1.66-2.001,3.165-4.118,4.588-6.293C1340.165,818.017,1350.819,776.178,1335.964,748.94z"/>
<path style="fill:#F18987;" d="M712.863,711.828c-20.489,4.219-39.122,16.032-50.617,37.112
	c-14.852,27.239-4.197,69.077,11.755,93.517c1.42,2.175,2.928,4.292,4.586,6.293c22.593,27.35,60.639,30.915,93.929,20.216
	c27.345-9.509,39.236-39.231,45.181-66.579C831.106,740.701,765.795,700.922,712.863,711.828z"/>
<path style="fill:#403835;" d="M1259.151,589.862c-15.878-11.601-38.539-17.066-57.709-19.096c-3.082-0.326-6.273-0.64-9.534-0.91
	c-23.705-1.938-51.189-1.301-68.234,16.504c-8.456,8.837-6.076,31.397,2.491,39.585c12.692,12.124,40.689,2.14,56.406,1.428
	c14.327-0.655,27.739,2.102,41.561,4.448c13.511,2.289,35.694,4.335,45.559-8.458
	C1278.351,612.129,1269.281,597.261,1259.151,589.862z"/>
<path style="fill:#403835;" d="M797.463,569.856c-3.262,0.27-6.452,0.584-9.535,0.91c-19.17,2.031-41.831,7.495-57.709,19.096
	c-10.13,7.399-19.2,22.267-10.54,33.502c9.865,12.793,32.049,10.747,45.557,8.458c13.824-2.347,27.237-5.103,41.563-4.448
	c15.716,0.712,43.713,10.696,56.403-1.428c8.57-8.188,10.949-30.748,2.493-39.585C848.651,568.555,821.164,567.918,797.463,569.856z
	"/>
<path style="fill:#7081A1;" d="M1565.748,2052.008c-0.02-4.709-0.106-9.423-0.23-14.127c-17.75-54.983-77.354-238.263-84.7-243.311
	c-1.165-0.798-9.401-1.485-23.366-2.061c-1.96,25.385-4.141,50.749-6.725,76.073c-3.625,35.545-6.907,71.899-15.446,106.687
	c-2.726,11.096-13.91,12.587-23.995,13.314c-18.513,1.334-37.337-0.53-55.64-3.299c-18.349-2.779-37.192-6.285-54.361-13.576
	c-8.956-3.8-19.923-9.343-18.329-20.646c7.523-53.351,12.599-107.146,17.866-160.821c-158.241-0.682-386.785,0.818-541.995,3.744
	c5.078,52.441,9.971,105.014,17.525,157.076c1.64,11.293-9.408,16.856-18.326,20.646c-17.121,7.27-36.033,10.929-54.362,13.576
	c-18.235,2.632-37.2,4.946-55.64,3.299c-10.039-0.899-21.315-2.092-23.995-13.314c-8.319-34.878-11.858-71.08-15.446-106.687
	c-2.335-23.146-4.368-46.328-6.207-69.519c-8.077,0.632-12.816,1.293-13.64,1.971c-11.899,9.853-49.607,183.658-62.14,242.729
	c0.22,4.224,0.44,8.443,0.654,12.657c0.152,2.961-1.991,4.467-4.28,4.563c-0.303,1.45-0.47,2.253-0.47,2.253l0.2,0.01l42.566,1.486
	c9.06,0.288,18.223,0.561,27.474,0.818c0.2,0.01,0.399,0.015,0.599,0.02c9.224,0.252,18.543,0.495,27.949,0.722
	c0.03,0.005,0.061,0.005,0.091,0.01c4.752,0.111,9.525,0.222,14.319,0.333c0.013,0,0.028,0,0.04,0
	c9.585,0.212,19.258,0.419,29.01,0.606c0.055,0.005,0.109,0.005,0.164,0.005c14.65,0.283,29.48,0.53,44.464,0.753
	c0.02,0,0.04,0,0.06,0c270.347,3.987,591.127-1.971,825.79-12.94l30.791-1.495
	C1565.862,2053.094,1565.753,2052.589,1565.748,2052.008z"/>
<path style="fill:#7081A1;" d="M589.293,1542.615c2.668-1.996,7.698-0.786,7.87,3.64c1.895,48.513,4.441,97.008,7.354,145.468
	c1.589,26.441,3.152,52.947,4.957,79.458c0.821,9.201,1.634,18.286,2.438,27.234c-0.165,0.01-0.329,0.02-0.493,0.031
	c3.401,45.024,7.766,89.977,14.431,134.517c1.268,8.463,2.61,16.927,4.244,25.329c0.864,4.451,1.096,13.764,3.883,17.391
	c2.597,3.38,12.207,3.33,15.843,3.532c8.496,0.475,17.027,0.303,25.514-0.308c20.713-1.481,41.586-4.512,61.619-10.095
	c7.205-2.011,31.377-6.73,29.952-17.31c-8.867-65.871-14.832-132.218-21.615-198.332c-0.263-2.552,1.26-4.012,3.158-4.416
	c-14.713-141.858-31.324-308.134-33.603-357.099c-0.172-3.736-0.265-6.793-0.265-9.1c-33.785,0-138.339,20.565-138.339,20.565
	c0.048,0.447,0.099,0.934,0.146,1.387C579.516,1434.281,584.082,1484.103,589.293,1542.615z"/>
<path style="fill:#7081A1;" d="M1314.023,1753.169c-6.179,60.222-12.235,120.475-19.392,180.592
	c-0.887,7.468-5.975,19.912,1.601,24.717c12.399,7.877,27.979,11.268,42.195,14.158c17.997,3.663,36.361,6.225,54.74,6.74
	c3.976,0.111,30.781,2.006,32.251-3.81c8.819-34.858,12.212-71.298,15.812-106.985c2.564-25.445,4.762-50.921,6.738-76.421h-0.008
	c0.015-0.167,0.033-0.338,0.045-0.505c1.705-22.055,3.257-44.115,4.684-66.18c3.86-59.697,7.124-119.448,9.456-179.22
	c0.174-4.426,5.207-5.636,7.872-3.64c5.189-58.242,9.736-107.869,12.864-137.69c0.063-0.596,0.126-1.225,0.189-1.806
	c0,0-104.555-20.565-138.341-20.565c0,2.562-0.114,6.058-0.328,10.371c-2.496,50.501-18.947,215.162-33.539,355.828
	C1312.76,1749.157,1314.286,1750.617,1314.023,1753.169z"/>
<path style="fill:#3D1C10;" d="M1379.619,709.711c12.01-8.615,25.526-14.069,39.593-6.889c8.354,4.264,14.18,13.089,15.964,22.108
	c1.188,6.005,10.341,3.456,9.161-2.526c-2.519-12.728-11.345-23.199-22.769-29.028c-7.264-3.706-14.873-4.3-22.275-2.956
	c15.549-13.248,32.751-24.162,51.577-31.129c5.689-2.107,3.231-11.287-2.524-9.158c-29.796,11.025-55.652,31.029-77.543,54.776
	c-0.346,5.232-0.778,10.469-1.286,15.711c2.971-3.526,6.028-6.988,9.168-10.371C1378.992,710.113,1379.306,709.933,1379.619,709.711
	z"/>
<path style="fill:#3D1C10;" d="M626.604,700.702c-21.029-21.896-45.565-40.201-73.582-50.569c-5.758-2.13-8.218,7.051-2.526,9.158
	c18.826,6.968,36.028,17.882,51.578,31.129c-7.402-1.344-15.012-0.75-22.272,2.956c-11.424,5.828-20.253,16.3-22.767,29.028
	c-1.182,5.982,7.971,8.531,9.158,2.526c1.887-9.547,7.738-17.055,15.961-22.108c13.235-8.132,28.366-1.162,39.592,6.889
	c0.314,0.222,0.627,0.402,0.938,0.538c1.551,1.67,3.077,3.365,4.588,5.073C626.979,710.484,626.751,705.611,626.604,700.702z"/>
<path style="fill:#3D1C10;" d="M1038.173,845.362c2.89-5.399-5.308-10.194-8.201-4.793c-12.237,22.843-49.395,22.843-61.635,0
	c-2.893-5.401-11.09-0.606-8.2,4.793C975.672,874.362,1022.639,874.362,1038.173,845.362z"/>
<path style="fill:#3D1C10;" d="M797.217,683.417c-0.314,0.303-0.606,0.647-0.859,1.081c-0.379,0.53-0.599,1.056-0.733,1.569
	c-3.299,7.228-1.839,16.464,4.577,21.54c7.458,5.899,18.253,3.499,22.99-4.522c4.055-6.869,2.526-16.29-2.711-22.025
	C813.947,673.902,802.826,676.808,797.217,683.417z"/>
<path style="fill:#3D1C10;" d="M1193.202,703.084c4.052-6.869,2.524-16.29-2.714-22.025c-6.535-7.157-17.649-4.249-23.26,2.355
	c-0.313,0.306-0.608,0.649-0.864,1.084c-0.379,0.53-0.601,1.058-0.733,1.574c-3.3,7.225-1.836,16.459,4.583,21.534
	C1177.669,713.503,1188.464,711.105,1193.202,703.084z"/>
<path style="fill:#3D1C10;" d="M1008.719,776.254c4.439-4.237-2.289-10.944-6.715-6.715c-11.346,10.835-27.3-5.909-21.169-18.18
	c3.648-7.301,16.924-12.568,18.016-0.788c0.487,5.25,7.635,6.568,9.33,1.26c4.894-15.342,5.303-29.677-2.243-44.2
	c-2.824-5.437-11.02-0.634-8.201,4.792c4.333,8.34,5.253,16.474,4.113,24.854c-8.853-6.49-24.119-0.915-30.268,11.388
	C960.746,770.363,991.312,792.88,1008.719,776.254z"/>
<path style="fill:#3D1C10;" d="M983.994,1076.351c49.759-0.094,100.459-4.616,147.656-18.091l0,0
	c55.607-15.873,106.34-44.185,144.87-92.466c1.978-2.483,1.079-5.507-0.766-7.149c-1.677-1.493-4.133-1.844-5.949,0.432
	c-69.765,87.424-179.715,107.579-285.811,107.778c-2.9,0.003-4.411,2.137-4.565,4.378
	C979.257,1073.726,980.768,1076.356,983.994,1076.351z"/>
<path style="fill:#3D1C10;" d="M564.99,587.866c-0.978,0.025-1.781,0.313-2.45,0.74c-3.489,2.243-2.693,8.9,2.45,8.756
	c38.938-1.092,69.335,20.642,93.032,49.756c3.867,4.754,10.547-2.011,6.715-6.715c-3.693-4.54-7.581-8.872-11.618-13.008
	C629.581,603.287,600.245,586.876,564.99,587.866z"/>
<path style="fill:#3D1C10;" d="M1341.436,645.15c35.232-41.78,83.624-62.253,137.013-44.024c1.134,0.389,2.137,0.341,2.981,0.013
	c3.478-1.347,4.181-7.587-0.457-9.171c-51.891-17.72-100.631-0.864-137.139,36.452c-3.125,3.196-6.172,6.525-9.112,10.012
	c-2.145,2.542-1.114,5.699,0.902,7.289C1337.296,647.038,1339.645,647.275,1341.436,645.15z"/>
<path style="fill:#3D1C10;" d="M513.342,1937.283c0.098,39.709,2.385,79.483,4.413,119.136c0.159,3.148,2.772,4.669,5.217,4.563
	c2.289-0.096,4.431-1.602,4.28-4.563c-0.215-4.214-0.435-8.433-0.654-12.657c-1.834-35.454-3.671-70.99-3.759-106.479
	C522.826,1931.159,513.327,1931.154,513.342,1937.283z"/>
<path style="fill:#3D1C10;" d="M1570.836,1937.283c-0.03-6.124-9.527-6.129-9.499,0c0.162,33.58,3.289,67.044,4.181,100.598
	c0.124,4.704,0.209,9.418,0.23,14.127c0.005,0.581,0.114,1.086,0.271,1.556c0,0,0,0,0.003,0.005
	c1.392,4.174,8.182,4.032,9.117-0.465c0.071-0.338,0.111-0.707,0.106-1.096C1575.063,2013.719,1571.018,1975.571,1570.836,1937.283z
	"/>
<path style="fill:#3D1C10;" d="M748.447,1748.753c-1.897,0.404-3.421,1.864-3.158,4.416c6.783,66.114,12.747,132.461,21.615,198.332
	c1.425,10.58-22.747,15.299-29.952,17.31c-20.033,5.583-40.906,8.615-61.619,10.095c-8.486,0.611-17.017,0.783-25.514,0.308
	c-3.635-0.202-13.245-0.152-15.843-3.532c-2.787-3.627-3.019-12.94-3.883-17.391c-1.634-8.402-2.976-16.866-4.244-25.329
	c-6.665-44.539-11.03-89.493-14.431-134.517c-0.685-9.085-1.329-18.174-1.945-27.264c-1.804-26.511-3.368-53.017-4.957-79.458
	c-2.913-48.46-5.46-96.955-7.354-145.468c-0.172-4.426-5.202-5.636-7.87-3.64c-1.01,0.758-1.693,1.958-1.627,3.64
	c2.332,59.773,5.596,119.523,9.456,179.22c1.586,24.535,3.312,49.071,5.255,73.587c1.839,23.192,3.873,46.373,6.207,69.519
	c3.588,35.606,7.127,71.808,15.446,106.687c2.681,11.222,13.956,12.415,23.995,13.314c18.44,1.647,37.405-0.667,55.64-3.299
	c18.329-2.648,37.241-6.306,54.362-13.576c8.918-3.79,19.966-9.352,18.326-20.646c-7.554-52.063-12.447-104.635-17.525-157.076
	c-1.321-13.617-2.648-27.229-4.042-40.816C754.427,1749.667,751.074,1748.192,748.447,1748.753z"/>
<path style="fill:#3D1C10;" d="M678.569,1855.505c-0.488,0.131-0.983,0.329-1.488,0.667c-0.48,0.247-0.854,0.546-1.18,0.864
	c-15.84,11.404-21.961,29.527-13.902,48.151c7.405,17.119,26.104,30.877,44.847,21.186
	C744.748,1906.785,718.333,1837.154,678.569,1855.505z"/>
<path style="fill:#3D1C10;" d="M1462.146,1546.255c-2.332,59.773-5.596,119.523-9.456,179.22
	c-1.427,22.065-2.979,44.125-4.684,66.18c-0.012,0.167-0.025,0.338-0.038,0.505c-1.976,25.501-4.174,50.977-6.738,76.421
	c-3.6,35.687-6.993,72.127-15.812,106.985c-1.47,5.816-28.275,3.921-32.251,3.81c-18.379-0.515-36.743-3.077-54.74-6.74
	c-14.216-2.89-29.796-6.281-42.195-14.158c-7.576-4.805-2.488-17.25-1.601-24.717c7.157-60.117,13.213-120.37,19.392-180.592
	c0.263-2.552-1.263-4.012-3.16-4.416c-2.627-0.561-5.98,0.914-6.339,4.416c-1.266,12.343-2.486,24.702-3.702,37.071
	c-5.267,53.675-10.343,107.47-17.866,160.821c-1.594,11.303,9.372,16.846,18.329,20.646c17.169,7.291,36.012,10.797,54.361,13.576
	c18.303,2.769,37.127,4.633,55.64,3.299c10.085-0.727,21.269-2.218,23.995-13.314c8.539-34.787,11.821-71.141,15.446-106.687
	c2.584-25.324,4.765-50.688,6.725-76.073c1.725-22.333,3.279-44.686,4.734-67.033c3.888-59.693,7.125-119.45,9.459-179.22
	c0.063-1.68-0.617-2.882-1.627-3.64C1467.353,1540.619,1462.321,1541.829,1462.146,1546.255z"/>
<path style="fill:#3D1C10;" d="M1383.431,1857.057c-0.331-0.323-0.712-0.632-1.202-0.884c-0.495-0.338-0.988-0.53-1.47-0.662
	c-38.958-18.023-64.775,47.859-30.672,69.635c17.95,11.46,37.705-0.859,46.179-17.527
	C1405.885,1888.681,1399.938,1868.976,1383.431,1857.057z"/>
<path style="fill:#3D1C10;" d="M1244.764,1967.483c3.787-0.081,7.576-0.197,11.361-0.319c5.939,28.937,3.392,60.784,0.758,89.922
	c-0.554,6.104,8.95,6.048,9.499,0c2.827-31.271,5.298-65.24-1.857-96.046c-0.462-1.985-2.544-3.562-4.58-3.481
	c-72.89,2.728-146.037,1.748-218.964,1.92c-67.241,0.157-134.482,0.182-201.72,0.101c-1.286,0-2.572,0-3.86-0.005
	c-2.718-0.005-4.578,2.168-4.747,4.75c-2.122,31.822-4.244,63.643-6.367,95.465c-0.409,6.119,9.092,6.078,9.499,0
	c2.013-30.235,4.032-60.47,6.045-90.71C974.775,1969.291,1109.848,1970.393,1244.764,1967.483z"/>
<path style="fill:#3D1C10;" d="M1249.733,2028.26c6.126,0.071,6.119-9.428,0-9.494c-124.507-1.375-249.017-2.744-373.524-4.118
	c-9.133-0.101-18.263-0.197-27.398-0.303c-6.129-0.061-6.119,9.433,0,9.499c124.507,1.374,249.017,2.744,373.522,4.118
	C1231.468,2028.063,1240.598,2028.16,1249.733,2028.26z"/>
<path style="fill:#3D1C10;" d="M643.45,1008.194c-32.41,44.953-48.263,100.04-83.503,143.013c-1.18,1.443-2.322,2.905-3.549,4.315
	c-5.474,6.306-11.485,12-17.891,17.063c-42.372,33.494-102.493,38.703-146.047,0.662c-4.234-3.699-10.285,1.707-7.569,5.735
	c0.228,0.336,0.498,0.669,0.854,0.98c46.889,40.957,114.551,37.523,161.154-1.688c9.635-8.104,18.01-17.166,25.516-26.88
	c32.266-41.765,48.429-95.672,79.236-138.405C655.243,1008.009,647,1003.275,643.45,1008.194z"/>
<path style="fill:#3D1C10;" d="M758.049,1073.469c-7.69,27.178-23.836,60.505-45.595,89.303
	c-10.035,13.281-21.259,25.594-33.409,35.897c-33.554,28.451-74.117,41.561-115.875,17.224c-3.352-1.953-6.485,0.606-7.01,3.534
	c-0.306,1.703,0.27,3.532,2.215,4.666c19.589,11.416,38.941,15.332,57.532,13.665c7.369-0.659,14.615-2.208,21.711-4.51
	c28.944-9.38,55.347-31.405,76.98-58.075c25.142-30.99,43.852-68.239,52.611-99.181
	C768.882,1070.091,759.716,1067.588,758.049,1073.469z"/>
<path style="fill:#3D1C10;" d="M869.081,1100.521c2.105-5.767-7.076-8.231-9.158-2.526
	c-23.234,63.626-68.749,169.827-154.513,145.716c-3.152-0.887-5.323,1.319-5.775,3.815c-0.394,2.175,0.508,4.573,3.252,5.343
	c25.627,7.208,47.919,3.911,67.293-6.071C820.341,1220.953,850.925,1150.241,869.081,1100.521z"/>
<path style="fill:#3D1C10;" d="M1351.842,1253.143c-34.543,9.737-74.385,25.024-101.856-6.942
	c-14.562-16.951-23.642-40.924-32.552-61.162c-10.024-22.772-18.526-46.264-25.763-70.067c-1.776-5.841-10.944-3.35-9.158,2.526
	c7.488,24.629,16.52,48.71,26.721,72.339c2.461,5.694,4.967,11.553,7.599,17.429c3.318,7.395,6.849,14.81,10.767,21.959
	c5.72,10.451,12.265,20.335,20.208,28.724c16.845,17.796,39.158,19.413,61.571,15.792c15.547-2.509,31.142-7.536,44.989-11.439
	c2.089-0.586,3.102-2.125,3.302-3.785C1358.029,1255.498,1355.654,1252.072,1351.842,1253.143z"/>
<path style="fill:#3D1C10;" d="M1468.599,1220.407c-51.181,43.988-92.802,13.023-124.32-33.833
	c-2.117-3.148-4.186-6.376-6.215-9.653c-21.448-34.658-37.774-75.343-48.773-100.813c-2.42-5.608-10.6-0.768-8.2,4.795
	c14.304,33.128,36.159,85.754,65.449,123.745c9.608,12.462,20.016,23.333,31.215,31.44c5.343,3.868,10.866,7.092,16.567,9.565
	c23.856,10.343,50.86,7.369,80.991-18.528c1.756-1.511,1.885-3.398,1.119-4.959
	C1475.172,1219.599,1471.473,1217.936,1468.599,1220.407z"/>
<path style="fill:#3D1C10;" d="M1564.905,1186.363c5.522-2.642,0.702-10.828-4.792-8.201c-13.965,6.68-29.358,15.537-45.287,15.532
	c-15.587-0.005-26.598-16.641-34.361-27.883c-27.365-39.62-55.632-82.492-66.185-130.07c-1.326-5.98-10.481-3.443-9.158,2.524
	c5.833,26.314,17.048,50.597,30.273,73.955c8.663,15.302,17.879,30.95,27.868,45.863c5.111,7.622,10.404,15.067,15.959,22.146
	c5.654,7.215,11.836,13.789,19.342,18.053c4.802,2.733,10.148,4.524,16.262,4.911
	C1531.941,1204.267,1550.088,1193.451,1564.905,1186.363z"/>
<path style="fill:#3D1C10;" d="M856.146,315.094c-6.497,28.603-17.315,56.792-30.569,82.894
	c-11.121,21.908-35.485,65.5-66.212,50.097c-4.373-2.19-8.314,2.625-6.902,6.04c0.351,0.852,1.018,1.617,2.109,2.16
	c31.529,15.807,56.557-15.012,71.326-39.279c7.417-12.182,13.984-25.243,19.738-38.729c8.417-19.705,15.055-40.34,19.67-60.657
	C866.661,311.655,857.505,309.124,856.146,315.094z"/>
<path style="fill:#3D1C10;" d="M927.833,286.796c-5.538,32.91-13.465,65.997-26.708,96.72
	c-12.321,28.583-35.889,65.872-71.96,49.476c-1.036-0.47-2.052-0.565-2.974-0.392c-4.004,0.751-6.344,6.536-1.822,8.595
	c3.749,1.705,7.374,2.983,10.891,3.898c6.51,1.692,12.626,2.087,18.377,1.369c17.34-2.16,31.331-14.41,42.581-31.488
	c24.391-37.031,35.912-96.758,40.772-125.654C938,283.333,928.852,280.766,927.833,286.796z"/>
<path style="fill:#3D1C10;" d="M991.977,279.25c-18.374,46.919-27.158,151.878-97.503,145.602c-0.958-0.086-1.744,0.096-2.4,0.432
	c-3.519,1.806-2.698,8.607,2.4,9.064c12.589,1.124,23.366-0.854,32.693-5.143c0.003-0.003,0.008-0.005,0.008-0.005
	c28.181-12.97,43.038-47.184,53.94-81.85c7.526-23.937,13.17-48.081,20.021-65.573C1003.371,276.065,994.185,273.616,991.977,279.25
	z"/>
<path style="fill:#3D1C10;" d="M1039.138,301.889c-6.227,24.237-8.62,49.193-15.777,73.279
	c-7.733,26.021-23.318,61.311-56.431,54.02c-0.336-0.076-0.651-0.106-0.965-0.116c-5.26-0.189-7.207,8.029-1.561,9.274
	c44.175,9.729,61.748-31.639,71.621-73.499c5.348-22.686,8.438-45.514,12.27-60.434
	C1049.822,298.475,1040.662,295.959,1039.138,301.889z"/>
<path style="fill:#3D1C10;" d="M1048.296,396.214c-0.998-2.794-3.691-3.625-5.949-3.082c-2.372,0.566-4.267,2.646-3.208,5.609
	c8.92,24.968,31.195,42.609,57.938,43.389c5.126,0.15,5.937-6.452,2.494-8.726c-0.672-0.447-1.493-0.742-2.494-0.77
	C1074.775,431.982,1055.756,417.097,1048.296,396.214z"/>
<path style="fill:#3D1C10;" d="M1084.14,288.683c-1.45-5.947-10.611-3.423-9.156,2.524c6.498,26.63,10.401,61.741,21.307,90.642
	c5.853,15.502,13.718,29.215,25.084,38.873c2.916,2.476,6.058,4.694,9.461,6.598c10.583,5.925,23.634,8.896,39.911,7.754
	c5.765-0.402,6.086-8.969,0.872-9.469c-0.28-0.028-0.563-0.051-0.872-0.028C1096.979,430.749,1096.638,339.88,1084.14,288.683z"/>
<path style="fill:#3D1C10;" d="M1227.334,424.969c-35.614,5.042-49.554-28.851-57.11-57.515
	c-7.639-28.995-8.943-59.932-19.182-88.204c-2.069-5.712-11.25-3.247-9.158,2.527c7.495,20.7,10.459,54.667,17.952,85.354
	c4.148,16.985,9.694,32.954,18.162,45.12c4.345,6.251,9.469,11.488,15.567,15.345c9.476,5.992,21.307,8.65,36.296,6.53
	c4.249-0.604,4.224-5.298,1.754-7.741C1230.573,425.355,1229.108,424.716,1227.334,424.969z"/>
<path style="fill:#3D1C10;" d="M438.777,910.708c-14.526-31.309-17.429-66.652-17.543-100.735
	c-0.113-34.636,3.421-69.14,12.425-102.627c9.886-36.763,29.081-66.483,52.492-95.927c20.16-25.357,37.677-50.274,44.656-82.401
	c7.945-36.592,8.213-74.37,13.935-111.297c5.586-36.036,19.21-68.764,38.484-99.543c1.725-2.756,3.514-5.464,5.328-8.155
	c18.644-27.615,41.821-51.557,67.984-71.838c17.146-13.291,35.563-25.018,54.816-35.184
	c84.518-44.635,182.878-58.712,277.234-62.628c6.104-0.253,6.127-9.752,0-9.497c-54.169,2.246-109.65,7.971-163.147,20.623
	c-56.557,13.374-110.893,34.489-159.091,67.524c-46.641,31.971-83.965,75.454-109.026,126.078
	c-14.739,29.77-21.122,61.622-24.942,94.257c-0.316,2.728-0.624,5.457-0.91,8.19c-1.817,17.368-2.83,35.459-5.091,53.296
	c-2.615,20.655-6.914,40.962-16.168,59.374c-14.233,28.312-37.594,51.052-55.402,77.028c-19.91,29.043-30.66,63.064-37.044,97.4
	c-5.575,29.969-6.72,61.101-5.745,91.514c0.977,30.503,5.629,61.481,18.553,89.339c0.922,1.988,2.562,2.63,4.169,2.402
	C437.63,917.493,440.422,914.249,438.777,910.708z"/>
<path style="fill:#3D1C10;" d="M532.855,828.014c-0.657-6.02-10.161-6.083-9.497,0c2.332,21.36,13.587,40.022,19.746,60.364
	c7.041,23.25,2.274,49.731-2.511,72.95c-8.41,40.84-24.743,86.046-57.555,113.589c-4.697,3.943,2.059,10.626,6.715,6.715
	c32.534-27.304,48.834-70.868,58.495-111.042c5.538-23.022,9.153-47.267,6.644-70.916
	C552.192,874.195,535.606,853.193,532.855,828.014z"/>
<path style="fill:#3D1C10;" d="M727.966,313.75c-11.004,25.41-22.631,50.471-41.747,70.919
	c-17.176,18.371-39.102,31.751-58.54,47.515c-18.778,15.228-33.198,33.067-42.493,55.448c-9.969,24.002-11.649,51.105-11.775,76.775
	c-0.03,6.124,9.468,6.122,9.496,0c0.119-24.002,2.147-47.712,10.027-70.53c8.721-25.258,27.178-43.741,47.662-59.944
	c17.694-13.996,36.43-26.413,52.338-42.549c17.066-17.308,28.343-39.393,38.198-61.332c9.714-21.623,18.362-43.592,31.317-63.562
	c13.627-21.007,34.075-37.9,55.147-50.946c18.664-11.555,39.117-19.443,59.965-26.052c21.299-6.748,46.133-13.245,68.054-5.909
	c5.823,1.947,8.302-7.223,2.524-9.156c-20.158-6.75-42.114-2.493-62.13,2.721c-21.835,5.684-43.183,13.908-63.13,24.435
	c-20.926,11.045-39.727,25.842-55.531,43.417C749.379,264.987,738.533,289.35,727.966,313.75z"/>
<path style="fill:#3D1C10;" d="M1036.243,209.938c-5.328,3.024-0.541,11.227,4.793,8.201c32.524-18.445,79.274-4.275,112.303,6.331
	c43.639,14.016,83.321,36.637,114.111,70.977c15.954,17.79,28,38.261,35.349,60.99c6.687,20.698,8.892,42.657,11.879,64.106
	c3.011,21.648,6.707,41.765,17.901,60.801c9.623,16.363,23.268,29.834,33.974,45.416c3.444,5.012,11.68,0.27,8.201-4.793
	c-11.432-16.638-25.564-31.114-35.841-48.594c-12.488-21.231-13.935-47.015-17.215-70.896c-3.009-21.896-6.69-43.996-15.562-64.401
	c-10.002-23.005-25.036-42.995-42.695-60.682c-31.139-31.185-71.298-50.757-112.917-63.772
	C1116.275,202.91,1069.651,190.99,1036.243,209.938z"/>
<path style="fill:#3D1C10;" d="M1464.986,411.64c32.736,58.285,12.808,127.963,38.436,188.1
	c23.732,55.675,64.146,104.461,72.333,166.008c0.813,6.134,1.218,12.167,1.284,18.117c0.217,19.834-3.467,38.703-9.413,57.004
	c-8.289,25.516-20.936,49.935-33.418,74.342c-2.597,5.08-5.186,10.161-7.73,15.249c-5.821,11.654-11.136,23.464-15.487,35.406
	c-12.98,35.611-17.368,72.4-0.955,109.802c1.864,4.252,7.026,2.476,8.334-1.059c0.414-1.114,0.45-2.4-0.134-3.737
	c-24.775-56.458,3.421-110.713,29.374-160.912c12.071-23.346,23.861-46.914,31.597-72.109c8.441-27.486,9.097-56.473,4.128-84.667
	c-2.787-15.83-7.754-30.763-13.933-45.206c-8.769-20.504-19.986-40.012-30.963-59.634c-10.226-18.283-20.236-36.67-27.822-56.064
	c-11.778-30.096-11.841-63.557-14.233-95.336c-2.365-31.42-7.589-62.309-23.194-90.096c-1.003-1.786-2.587-2.42-4.141-2.296
	C1465.956,404.789,1462.99,408.083,1464.986,411.64z"/>
<path style="fill:#3D1C10;" d="M1400.941,864.718c-2.473,27.11-18.679,48.399-33.83,69.919
	c-14.764,20.971-24.076,41.929-28.295,67.324c-8.829,53.169,5.836,111.439,40.156,153.08c3.898,4.729,10.578-2.029,6.715-6.715
	c-35.594-43.187-47.487-104.582-34.755-158.613c10.932-46.373,55.059-76.26,59.505-124.995
	C1410.993,858.617,1401.492,858.673,1400.941,864.718z"/>
</svg>
