<?xml version="1.0" encoding="utf-8"?>
<!-- Generator: Adobe Illustrator 27.5.0, SVG Export Plug-In . SVG Version: 6.00 Build 0)  -->
<svg version="1.1" id="Capa_1" xmlns="http://www.w3.org/2000/svg" xmlns:xlink="http://www.w3.org/1999/xlink" x="0px" y="0px"
	 viewBox="0 0 2122 2122" style="enable-background:new 0 0 2122 2122;" xml:space="preserve">
<path style="fill:#FACABB;" d="M1092.473,1099.742c-10.035-7.492-21.129-13.969-32.801-19.609
	c-13.109-6.336-27.254-10.949-41.602-14.988c-15.023-4.227-30.398-7.66-45.231-12.316c-14.656-4.594-28.93-10.078-43.988-13.742
	c-3.906-0.953-7.988-1.93-11.68-3.457c-0.063-5.922-0.121-11.695-0.18-17.324v0.004c0.273,27.488,0.641,58.699,1.133,91.215
	c6.082,13.172,31.422,44.82,133.984,41.383c37.066-1.242,62.191-5.641,79.195-11.281c-3.891-5.078-7.922-10.074-12.074-14.957
	C1111.484,1115.566,1102.469,1107.211,1092.473,1099.742z"/>
<path style="fill:#FACABB;" d="M1463.996,615c-0.758,1.586-2.402,2.641-4.59,1.894c-46.465-15.863-88.594,1.774-119.383,37.93
	c-4.355,6.207-8.324,12.867-11.82,19.844c-0.438-0.016-0.871-0.035-1.313-0.047c-15.035-17.816-20.637-43.027-24.461-69.992
	c-18.211-8.969-35.27-21.574-49.727-33.777c-8.859-7.484-17.234-15.508-24.996-24.039c6.207,12.063,10.34,25.941,14.32,39.961
	c0.672,0.133,1.324,0.297,2.012,0.422c5.273,0.93,3.027,8.938-2.207,8.012c-26.406-4.66-49.551-20.563-65.953-41.508
	c-15.66-19.992-25.297-43.469-35.625-66.504c-63.938-8.531-132.52-10.465-203.582-1.598c-10.98,24.367-20.773,50.082-38.336,70.551
	c-16.805,19.578-38.199,34.516-63.945,39.059c-5.242,0.926-7.48-7.082-2.211-8.012c0.684-0.121,1.344-0.301,2.019-0.438
	c3.926-13.816,8.004-27.508,14.07-39.445c-7.691,8.398-15.976,16.273-24.758,23.539c-8.699,7.195-18.199,14.574-28.289,21.262
	c-0.07,27.961-3.227,64.09-30.18,95.512c0,0-3.875-19.598-17.777-36.359c3.352,4.121-2.492,10.039-5.875,5.879
	c-20.742-25.473-47.348-44.496-81.422-43.543c-4.359,0.121-5.164-5.348-2.445-7.481c-5.793,0.391-11.422,1.43-16.777,3.176
	c-17.438,5.695-31.953,18.93-39.606,42.066c-9.48,32.648,1.301,77.859,24.066,112.922c8.606,13.258,18.926,25.051,30.512,34.18
	c14.789,11.641,31.637,18.934,49.625,19.293c13.039,0.262,24.144-1.559,33.551-4.992c0.891,2.668,1.813,5.316,2.77,7.941
	c1.449,3.992,2.957,7.949,4.543,11.848c15.27,37.516,36.906,70.727,64.133,98.723c2.195,2.258,4.426,4.484,6.691,6.672
	c16.957,16.367,35.934,30.797,56.75,43.09c2.441,1.441,4.91,2.855,7.402,4.234c11.871,6.59,24.32,12.5,37.301,17.695
	c2.648,1.063,5.32,2.094,8.016,3.094c31.473,11.691,65.973,19.301,103.129,22.316c0.656-0.957,1.73-1.641,3.25-1.645
	c91.895-0.262,188.957-22.941,250.129-96.566c1.613-1.938,3.754-1.649,5.219-0.387c15.688-18.769,29.098-39.461,40.297-61.438
	c1.492-2.922,2.934-5.871,4.348-8.836c7.273-15.297,13.523-31.148,18.758-47.363c9.758,3.856,21.461,5.891,35.305,5.613
	c19.191-0.383,37.086-8.652,52.566-21.684c14.832-12.492,27.438-29.356,36.832-47.887c16.242-32.023,22.891-68.988,14.809-96.824
	C1485.395,634.008,1475.797,622.215,1463.996,615z"/>
<path style="fill:#403835;" d="M1216.66,1226.348c-3.473-67.277,5.445-114.703-51.023-122.402l0,0v0.004
	c0.023,0.066,1.191,3.348,0.164,8.168c-0.004,0.004-0.004,0.004-0.004,0.008c-1.629,7.594-8.758,18.965-34.492,27.5
	c-17.004,5.641-42.129,10.039-79.195,11.281c-102.563,3.438-127.902-28.211-133.984-41.383c-1.574-3.402-1.863-5.578-1.863-5.578
	c-50.383,7.781-35.891,44.512-37.477,122.406c0.117,0.004,0.191,0.012,0.191,0.012c-1.949,29.609,19.391,247.145,93.559,288.977
	c2.719-0.371,5.461-0.508,8.215-0.313c0.563,0.039,1.055,0.18,1.5,0.379c0.019,0.012,0.043,0.02,0.066,0.031
	c0.07,0.039,0.148,0.063,0.219,0.098c1.332,0.563,2.363,1.766,2.371,3.648c0.227,83.98,17.238,168.508,31.559,250.945
	c7.113,40.957,14.606,81.848,21.332,122.871c1.84,11.215,3.891,22.598,5.625,34.02c2.051-11.84,4.504-23.602,6.688-35.148
	c7.688-40.668,16.145-81.18,24.191-121.77c9.031-45.504,17.824-91.09,24.898-136.945c5.805-37.664,11.102-75.801,11.223-113.973
	c0.008-1.875,1.031-3.086,2.367-3.645c0.066-0.039,0.152-0.07,0.234-0.102c0.02-0.012,0.035-0.02,0.047-0.031
	c0.449-0.195,0.941-0.34,1.508-0.379c2.742-0.195,5.488-0.063,8.223,0.305c74.156-41.844,95.496-259.359,93.551-288.969
	C1216.352,1226.363,1216.457,1226.355,1216.66,1226.348z"/>
<path style="fill:#C6BCBB;" d="M1521.551,700.66c11.281-13.996,31.863-40.02,20.934-59.531
	c-6.582-11.738-21.066-17.793-32.379-23.891c-26.23-14.141-53.379-26.609-80.875-38.188c0.391,7.891,0.633,15.813,0.734,23.742
	c10.328,0.445,20.91,2.418,31.652,6.09c2.875,0.98,3.402,4.012,2.379,6.117c11.801,7.215,21.398,19.008,27.145,36.363
	c8.082,27.836,1.434,64.801-14.809,96.824c21.145-13.426,36.488-27.238,47.504-40.356
	C1521.273,707.113,1519.285,703.477,1521.551,700.66z"/>
<path style="fill:#C6BCBB;" d="M601.141,651.363c7.652-23.137,22.168-36.371,39.606-42.066c0.375-1.676,1.664-3.102,3.894-3.07
	c0.531,0.008,1.051-0.008,1.582-0.004c0.043-5.398,0.141-10.789,0.316-16.168c-19.465,11.844-38.445,24.504-56.492,38.387
	c-10.426,8.019-20.645,16.394-30.133,25.519c-5.289,5.09-13.266,11.234-13.27,19.242c0,10.039,4.387,18.43,9.961,26.5
	c2.266,3.273-1.098,6.387-4.223,6.012c11.644,18.055,33.594,39.039,72.824,58.57C602.441,729.223,591.66,684.012,601.141,651.363z"
	/>
<path style="fill:#464045;" d="M905.324,623.898c12.754-3.477,33.883-18.879,16.348-30.473c-9.48-6.27-22.77-7.371-35.91-5.668
	c-12.703,1.637-25.266,5.887-34.129,10.613c-13.906,7.406-17.848,22.879,0,26.898C868.188,629,888.922,628.367,905.324,623.898z"/>
<path style="fill:#464045;" d="M1182.012,623.898c16.402,4.469,37.141,5.102,53.691,1.371c17.848-4.019,13.906-19.492,0-26.898
	c-8.859-4.727-21.426-8.977-34.125-10.613c-13.145-1.703-26.43-0.602-35.918,5.668
	C1148.133,605.019,1169.262,620.422,1182.012,623.898z"/>
<path style="fill:#443B38;" d="M1219.988,992.684c-11.965,6.656-24.438,12.387-37.273,17.297
	c14.535,17.281,32.902,30.93,55.477,35.91c-4.465-17.855-9.086-35.559-16.27-50.707
	C1221.262,994.363,1220.637,993.516,1219.988,992.684z"/>
<path style="fill:#443B38;" d="M1404.879,966.246c-24.949-18.555-44.102-43.18-60.281-69.508
	c-5.57-9.055-10.852-18.613-16.074-28.395c-11.199,21.977-24.609,42.668-40.297,61.438c1.656,1.426,2.465,4.098,0.668,6.266
	c-0.598,0.715-1.219,1.391-1.82,2.098c13.223,43.891,32.73,86.027,70.293,114.164c1.023,0.77,1.547,1.77,1.711,2.805
	c29.016,15.391,67.32,24.859,87.824,20.527c-18.828-24.789-30.934-67.621-33.684-103.695
	C1410.391,970.144,1407.598,968.269,1404.879,966.246z"/>
<path style="fill:#443B38;" d="M1280.645,945.387c-15.965,17.242-34,31.508-53.527,43.184c8.586,10.957,17.996,21.301,28.199,30.879
	c21.648,20.324,49.566,43.281,79.477,50.594c-3.664-12.336-4.867-24.508-7.391-34.621
	C1305.098,1009.738,1291.02,978.309,1280.645,945.387z"/>
<path style="fill:#443B38;" d="M1351.629,812.144c-5.234,16.215-11.484,32.066-18.758,47.363c4.285,7.973,8.613,15.82,13.094,23.398
	c15.875,26.828,33.984,53.344,58.723,72.817c27.922,21.977,61.41,31.789,96.602,32.363c-22.43-48.953-48.75-112.352-61.789-192.012
	c-15.48,13.031-33.375,21.301-52.566,21.684C1373.09,818.035,1361.387,816,1351.629,812.144z"/>
<path style="fill:#443B38;" d="M746.207,832.555c-3.477,10.496-6.934,20.773-10.644,30.527
	c-10.824,28.422-23.609,56.895-43.613,80.156c-7.742,9-16.332,16.875-25.637,23.664c-2.688,35.496-10.422,74.41-17.813,108.738
	c20.5,4.332,58.801-5.137,87.816-20.527c0.168-1.035,0.691-2.035,1.715-2.805c39.516-29.602,59.047-74.699,72.308-121.031
	C783.113,903.281,761.477,870.07,746.207,832.555z"/>
<path style="fill:#443B38;" d="M873.141,995.902c-6.996,14.984-11.539,32.414-15.934,49.988
	c25.281-5.59,45.906-22.328,61.277-42.922c-12.98-5.195-25.43-11.105-37.301-17.695C878.578,988.871,875.918,992.43,873.141,995.902
	z"/>
<path style="fill:#443B38;" d="M817.031,937.949c-10.578,35.613-25.059,69.859-49.035,97.473
	c-2.527,10.113-3.727,22.285-7.395,34.625c29.785-7.285,58.113-30.176,79.48-50.598c12.406-11.859,23.688-24.711,33.699-38.41
	C852.965,968.746,833.988,954.316,817.031,937.949z"/>
<path style="fill:#443B38;" d="M692.445,929.324c18.477-25.32,30.32-54.473,40.73-83.832c2.863-8.063,5.641-16.375,8.488-24.785
	c-0.957-2.625-1.879-5.273-2.77-7.941c-9.406,3.434-20.512,5.254-33.551,4.992c-17.988-0.359-34.836-7.652-49.625-19.293
	c-4.016,73.734-20.328,135.613-42.25,184.836C645.144,974.227,672.855,956.176,692.445,929.324z"/>
<path style="fill:#443B38;" d="M1334.988,615.758c-11.055-1.949-22-5.93-32.559-11.129c3.824,26.965,9.426,52.176,24.461,69.992
	c0.441,0.012,0.875,0.031,1.313,0.047c3.496-6.977,7.465-13.637,11.82-19.844c-0.176,0.199-0.352,0.398-0.527,0.598
	c-3.461,4.105-9.305-1.805-5.875-5.875c15.254-18.082,33.438-31.82,53.52-39.609c-22.566-5.336-43.621-15.617-60.848-32.144
	c2.531,8.43,3.633,18.699,7.043,29.148c1.281,0.285,2.574,0.574,3.855,0.801C1342.469,608.672,1340.227,616.684,1334.988,615.758z"
	/>
<path style="fill:#443B38;" d="M765.043,687.625c26.953-31.422,30.109-67.551,30.18-95.512
	c-16.738,11.102-35.082,20.309-53.988,23.645c-5.242,0.926-7.484-7.086-2.215-8.016c1.289-0.227,2.578-0.516,3.863-0.801
	c3.414-10.453,4.516-20.719,7.047-29.152c-17.359,16.129-37.75,26.324-59.707,31.781
	C694.254,610.856,748.719,630.941,765.043,687.625z"/>
<path style="fill:#4D4441;" d="M659.969,605.289c2.102-0.059,4.176-0.031,6.23,0.047c30.824-3.105,60.137-14.383,82.133-37.621
	c11.77-12.434,21.137-26.852,28.609-42.266c-37.977,13.984-74.598,32.258-109.27,52.125c-7.094,4.063-14.145,8.223-21.133,12.48
	c-0.176,5.379-0.273,10.77-0.316,16.168c3.859,0.023,7.715-0.055,11.559-0.258C658.371,605.57,659.094,605.309,659.969,605.289z"/>
<path style="fill:#4D4441;" d="M1390.422,563.293c-29.281-11.496-58.828-22.375-88.648-32.414
	c7.379,14.281,16.535,27.512,27.871,38.625c21.121,20.695,47.25,31.508,75.375,35.223c8.098-1.617,16.434-2.305,24.945-1.934
	c-0.102-7.93-0.344-15.852-0.734-23.742C1416.348,573.629,1403.402,568.387,1390.422,563.293z"/>
<path style="fill:#4D4441;" d="M1170.133,495.859c-2.785-0.238-4.105-2.645-3.969-4.805c-5.523-0.906-11.086-1.766-16.684-2.574
	c19.523,43.539,42.371,88.359,92.547,98.293c-3.98-14.019-8.113-27.898-14.32-39.961c-13.141-14.426-24.504-30.32-33.563-47.5
	C1186.164,497.746,1178.145,496.535,1170.133,495.859z"/>
<path style="fill:#4D4441;" d="M908.953,525.621c6.578-12.73,12.555-25.758,18.465-38.816c-14.109,1.941-28.313,4.313-42.598,7.148
	c-9.496,19.418-21.918,37.363-36.551,53.359c-6.066,11.938-10.144,25.629-14.07,39.445
	C867.289,580.113,893.723,555.07,908.953,525.621z"/>
<path style="fill:#4D4441;" d="M1323.77,575.383c-13.707-13.949-24.438-30.43-32.82-48.117c-10.207-3.359-20.445-6.625-30.723-9.766
	c-18.055-5.516-36.641-11.523-55.438-15.906c13.723,24.148,32.254,45.555,53.793,63.379c21.066,17.43,47.281,35.91,74.754,41.969
	c-3.41-10.449-4.512-20.719-7.043-29.148C1325.449,576.988,1324.586,576.215,1323.77,575.383z"/>
<path style="fill:#4D4441;" d="M742.883,606.941c27.348-6.027,53.965-24.414,74.75-41.969c23.07-19.477,42.719-42.559,56.719-68.863
	c-7.066,1.512-14.152,3.145-21.254,4.891c0.117,1.723-0.754,3.402-2.984,3.828c-21.004,3.977-41.715,9.688-62.066,16.672
	c-9.02,20.84-21.145,40.32-37.383,55.633c-0.238,0.227-0.492,0.43-0.734,0.656C747.398,586.223,746.297,596.488,742.883,606.941z"/>
<path style="fill:#C6BCBB;" d="M570.359,633.594c24.684-20.433,51.34-38.512,78.863-54.879
	c61.137-36.355,128.355-68.574,198.684-81.906c3.016-0.57,5.027,1.848,5.191,4.191c7.102-1.746,14.188-3.379,21.254-4.891
	c3.496-0.746,6.984-1.465,10.469-2.156c14.285-2.836,28.488-5.207,42.598-7.148c3.09-0.426,6.172-0.824,9.254-1.207
	c71.063-8.867,139.645-6.934,203.582,1.598c3.082,0.414,6.164,0.844,9.227,1.285c5.598,0.809,11.16,1.668,16.684,2.574
	c0.121-1.961,1.426-3.723,3.969-3.508c3.828,0.32,7.656,0.805,11.449,1.414c36.18,5.797,71.707,17.262,106.438,28.633
	c46.398,15.192,92.305,32.078,137.34,50.945c37.141,15.563,76.191,31.34,109.926,53.656c2.68,1.769,4.965,3.648,6.973,5.598
	c-22.887-35.465-87.801-108.508-115.484-139.176c-13.93-48.957-33.734-112.828-48.164-158.129
	c-12.406-42.379-16.078-47.336-36.957-82c-72.676-116.305-357.949-115.063-464.297-82.508
	c-74.758,24.027-173.383,65.059-190.211,146.047c-11.695,58.324-25.375,142.711-29.226,166.766
	c27.125-24.773,59.809-44.906,91.797-62.309c80.848-43.984,170.121-70.273,261.707-78.73c5.34-0.496,5.293,7.824,0,8.313
	c-91.453,8.445-181.398,35.027-261.688,79.898c-31.449,17.578-63.656,37.43-89.934,62.406c-3.18,3.023-7.695-0.367-7.09-3.727
	c-43.746,64.137-74.512,100.516-108.109,172.496C551.188,648.188,562.269,640.293,570.359,633.594z"/>
<path style="fill:#E8EEF9;" d="M1659.023,1388.074c-50.281-20.648-167.402-36.266-310.227-45.398
	c-3.938,35.758-11.09,71.531-20.578,106.109c-14.727,53.637-36.867,119.266-87.188,149.816c-1.656,1.004-3.664,0.59-5.039-0.652
	c-14.848-13.414-30.504-26.102-46.645-37.918c-12.949-9.484-26.277-18.73-40.523-26.176c-9.184-4.797-19.547-10.02-30.168-10.543
	c-0.465,36.605-5.449,73.195-11.016,109.305c-6.926,44.863-15.379,89.48-24.195,134.004c-8.27,41.742-16.992,83.402-24.898,125.219
	c-4.801,25.398-11.055,51.781-11.223,77.766c0.02,2.688-2.07,4.027-4.156,4.016c-2.082,0.012-4.168-1.328-4.152-4.016
	c-0.148-26.348-5.672-53.027-9.98-78.914c-6.895-41.422-14.434-82.727-21.582-124.102c-13.805-79.914-30.047-161.863-30.801-243.277
	c-11.305,0.547-22.551,6.32-32.148,11.621c-13.43,7.414-26.195,15.992-38.527,25.098c-16.098,11.902-31.785,24.492-46.645,37.918
	c-1.379,1.242-3.383,1.656-5.039,0.652c-50.606-30.715-75.117-96.086-91.785-149.816c-10.57-34.066-19.242-69.172-24.766-104.512
	c-127.902,9.984-230.93,27.203-276.52,52.801c-160.617,90.211-189.098,472.516-188.855,524.984
	c0.395,85.094,1576.629,50.395,1576.59,7.34C1848.941,1902.813,1822.852,1455.355,1659.023,1388.074z"/>
<path style="fill:#E8EEF9;" d="M1191.578,1551.422c16.461,12.043,32.5,24.816,47.73,38.41c22.879-14.84,38.902-38.445,50.988-62.461
	c14.004-27.813,23.957-57.563,31.738-87.668c9.066-35.102,16.195-71.215,19.535-107.359c0.094-1.066,0.527-1.914,1.125-2.555
	c-14.797-12.496-79.973-68.172-93.977-90.645c-8.273-13.273-29.289-12.906-32.059-12.797c-0.203,0.008-0.309,0.016-0.309,0.016
	c1.945,29.609-19.395,247.125-93.551,288.969c9.195,1.234,18.207,5.23,26.266,9.316
	C1164.023,1532.227,1178.066,1541.527,1191.578,1551.422z"/>
<path style="fill:#E8EEF9;" d="M768.414,1439.703c9.105,30.102,19.926,60.02,35.047,87.668
	c13.074,23.922,29.332,47.445,52.547,62.461c15.223-13.594,31.231-26.445,47.734-38.41c13.523-9.809,27.488-19.41,42.516-26.773
	c8.172-4.008,17.086-8.059,26.277-9.309c-74.168-41.832-95.508-259.367-93.559-288.977c0,0-0.074-0.008-0.191-0.012
	c-2.168-0.098-23.762-0.711-32.18,12.793c-13.969,22.414-86.238,77.875-102.996,90.566c0.254,0.422,0.441,0.918,0.523,1.527
	C749.16,1367.848,757.73,1404.371,768.414,1439.703z"/>
<path style="fill:#F7B8A7;" d="M1032.879,1035.047c-3.84,0.012-4.914-4.242-3.25-6.668c-37.156-3.016-71.656-10.625-103.129-22.316
	c-2.992,4.273-6.164,8.356-9.508,12.242c0.059,5.629,0.117,11.402,0.18,17.324c3.691,1.527,7.773,2.504,11.68,3.457
	c15.059,3.664,29.332,9.148,43.988,13.742c14.832,4.656,30.207,8.09,45.231,12.316c14.348,4.039,28.492,8.652,41.602,14.988
	c11.672,5.641,22.766,12.117,32.801,19.609c9.996,7.469,19.012,15.824,26.758,24.926c4.152,4.883,8.184,9.879,12.074,14.957
	c25.734-8.535,32.863-19.906,34.492-27.5c-0.723-35.281-1.137-68.281-1.238-95.801
	C1122.367,1029.66,1076.992,1034.922,1032.879,1035.047z"/>
<path style="fill:#F7B8A7;" d="M1296.617,713.781c-46.32-9.547-103.477,25.266-91.742,79.254
	c5.199,23.933,15.605,49.945,39.539,58.266c29.133,9.367,62.43,6.246,82.211-17.691c1.441-1.75,2.766-3.602,4.008-5.508
	c13.961-21.387,23.281-58.004,10.285-81.844C1330.859,727.813,1314.551,717.473,1296.617,713.781z"/>
<path style="fill:#F7B8A7;" d="M795.59,713.781c-17.93,3.692-34.234,14.031-44.297,32.477c-13,23.84-3.676,60.457,10.285,81.844
	c1.242,1.906,2.563,3.758,4.016,5.508c19.769,23.938,53.066,27.059,82.203,17.691c23.93-8.32,34.336-34.332,39.539-58.266
	C899.074,739.047,841.914,704.234,795.59,713.781z"/>
<path style="fill:#3D1C10;" d="M1357.367,1052.309c-37.563-28.137-57.07-70.273-70.293-114.164c0.602-0.707,1.223-1.383,1.82-2.098
	c1.797-2.168,0.988-4.84-0.668-6.266c-1.465-1.262-3.605-1.551-5.219,0.387c-61.172,73.625-158.234,96.305-250.129,96.566
	c-1.52,0.004-2.594,0.688-3.25,1.645c-1.664,2.426-0.59,6.68,3.25,6.668c44.113-0.125,89.488-5.387,131.68-18.723l0,0
	c3.215-1.02,6.414-2.094,9.598-3.207c15.855,20.301,36.082,35.742,63.668,41.191c5.242,1.035,7.465-6.977,2.215-8.016
	c-0.621-0.121-1.234-0.27-1.848-0.402c-22.574-4.98-40.941-18.629-55.477-35.91c12.836-4.91,25.309-10.641,37.273-17.297
	c0.648,0.832,1.273,1.68,1.934,2.5c8.441,10.629,17.637,20.703,27.52,30.141c23.277,22.258,54.383,47.164,86.918,53.617
	c5.23,1.039,7.465-6.969,2.199-8.02c-1.254-0.246-2.508-0.57-3.766-0.879c-29.91-7.313-57.828-30.27-79.477-50.594
	c-10.203-9.578-19.613-19.922-28.199-30.879c19.527-11.676,37.563-25.941,53.527-43.184c10.375,32.922,24.453,64.352,46.758,90.035
	c7.586,8.738,16.102,16.82,25.77,24.063c3.258,2.441,6.418-1.125,5.906-4.371
	C1358.914,1054.078,1358.391,1053.078,1357.367,1052.309z"/>
<path style="fill:#3D1C10;" d="M1503.215,988.133c-0.641-0.004-1.281-0.035-1.926-0.047c-35.191-0.574-68.68-10.387-96.602-32.363
	c-24.738-19.473-42.848-45.988-58.723-72.817c-4.48-7.578-8.809-15.426-13.094-23.398c-1.414,2.965-2.855,5.914-4.348,8.836
	c5.223,9.781,10.504,19.34,16.074,28.395c16.18,26.328,35.332,50.953,60.281,69.508c2.719,2.023,5.512,3.898,8.34,5.699
	c26.777,17.027,58.289,24.285,89.996,24.5C1508.582,996.484,1508.57,988.172,1503.215,988.133z"/>
<path style="fill:#3D1C10;" d="M736.316,1055.113c-0.508,3.246,2.652,6.813,5.91,4.371c9.668-7.242,18.184-15.324,25.77-24.063
	c23.977-27.613,38.457-61.859,49.035-97.473c-2.266-2.188-4.496-4.414-6.691-6.672c-13.262,46.332-32.793,91.43-72.308,121.031
	C737.008,1053.078,736.484,1054.078,736.316,1055.113z"/>
<path style="fill:#3D1C10;" d="M759.043,1078.941c32.719-6.488,63.336-31.477,86.914-53.617c9.758-9.156,18.848-19,27.184-29.422
	c2.777-3.473,5.438-7.031,8.043-10.629c-2.492-1.379-4.961-2.793-7.402-4.234c-10.012,13.699-21.293,26.551-33.699,38.41
	c-21.367,20.422-49.695,43.313-79.48,50.598c-1.254,0.305-2.508,0.629-3.77,0.875
	C751.578,1071.973,753.809,1079.98,759.043,1078.941z"/>
<path style="fill:#3D1C10;" d="M741.664,820.707c-2.848,8.41-5.625,16.723-8.488,24.785c-10.41,29.359-22.254,58.512-40.73,83.832
	c-19.59,26.852-47.301,44.902-78.977,53.977c-1.109,0.316-2.215,0.652-3.336,0.949c-5.176,1.367-2.981,9.387,2.211,8.016
	c19.734-5.215,37.922-13.66,53.969-25.363c9.305-6.789,17.894-14.664,25.637-23.664c20.004-23.262,32.789-51.734,43.613-80.156
	c3.711-9.754,7.168-20.031,10.644-30.527C744.621,828.656,743.113,824.699,741.664,820.707z"/>
<path style="fill:#3D1C10;" d="M857.57,1054.309c25.137-4.965,44.191-18.273,59.422-36v-0.004c3.344-3.887,6.516-7.969,9.508-12.242
	c-2.695-1-5.367-2.031-8.016-3.094c-15.371,20.594-35.996,37.332-61.277,42.922c-0.617,0.133-1.223,0.281-1.844,0.402
	C850.105,1047.332,852.336,1055.344,857.57,1054.309z"/>
<path style="fill:#3D1C10;" d="M817.633,564.973c-20.785,17.555-47.402,35.941-74.75,41.969c-1.285,0.285-2.574,0.574-3.863,0.801
	c-5.269,0.93-3.027,8.941,2.215,8.016c18.906-3.336,37.25-12.543,53.988-23.645c10.09-6.688,19.59-14.066,28.289-21.262
	c8.781-7.266,17.066-15.141,24.758-23.539c14.633-15.996,27.055-33.941,36.551-53.359c-3.484,0.691-6.973,1.41-10.469,2.156
	C860.352,522.414,840.703,545.496,817.633,564.973z"/>
<path style="fill:#3D1C10;" d="M1244.039,587.195c-0.688-0.125-1.34-0.289-2.012-0.422c-50.176-9.934-73.023-54.754-92.547-98.293
	c-3.063-0.441-6.145-0.871-9.227-1.285c10.328,23.035,19.965,46.512,35.625,66.504c16.402,20.945,39.547,36.848,65.953,41.508
	C1247.066,596.133,1249.313,588.125,1244.039,587.195z"/>
<path style="fill:#3D1C10;" d="M936.672,485.598c-3.082,0.383-6.164,0.781-9.254,1.207c-5.91,13.059-11.887,26.086-18.465,38.816
	c-15.23,29.449-41.664,54.492-74.754,61.137c-0.676,0.137-1.336,0.316-2.019,0.438c-5.27,0.93-3.031,8.938,2.211,8.012
	c25.746-4.543,47.141-19.48,63.945-39.059C915.898,535.68,925.691,509.965,936.672,485.598z"/>
<path style="fill:#3D1C10;" d="M1443.813,701.043c3.492,4.07,9.348-1.84,5.875-5.879c-23.988-27.887-54.023-11.551-78.289,12.68
	c-0.281,4.238-0.625,8.484-1.027,12.731C1392.641,695.598,1421.629,675.258,1443.813,701.043z"/>
<path style="fill:#3D1C10;" d="M650.313,690.688c-3.66,3.906,2.207,9.797,5.875,5.879c8.004-8.547,17.676-15.906,30-13.68
	c9.988,1.805,18.141,9.723,24.797,16.82c3.344,3.566,6.426,7.375,9.391,11.281c-0.199-4.32-0.344-8.672-0.418-13.055
	C700.25,675.438,676.289,662.945,650.313,690.688z"/>
<path style="fill:#3D1C10;" d="M1132.402,821.394c7.738-14.875,12.25-33.156,11.633-50.019c-0.191-5.344-8.504-5.363-8.313,0
	c0.531,14.469-3.113,29.703-9.027,42.797c-14.598,32.324-46.59,45.508-80.547,45.863c-34.332,0.355-65.516-14.129-80.539-45.863
	c-6.105-12.887-9.559-28.473-9.031-42.797c0.195-5.363-8.117-5.344-8.313,0c-0.621,17.043,4.117,34.879,11.629,50.019
	c16.422,33.074,50.957,46.586,86.254,46.949C1081.84,868.715,1115.516,853.848,1132.402,821.394z"/>
<path style="fill:#3D1C10;" d="M871.824,678.547c-0.269,0.266-0.531,0.566-0.75,0.949c-0.332,0.461-0.527,0.922-0.644,1.371
	c-2.848,6.254-1.582,14.242,3.969,18.633c6.465,5.113,15.816,3.043,19.926-3.914c3.512-5.945,2.188-14.105-2.348-19.07
	C886.313,670.316,876.691,672.824,871.824,678.547z"/>
<path style="fill:#3D1C10;" d="M1191.059,678.547c-0.273,0.266-0.531,0.566-0.75,0.949c-0.332,0.461-0.52,0.922-0.645,1.371
	c-2.848,6.254-1.582,14.242,3.969,18.633c6.465,5.113,15.816,3.043,19.926-3.914c3.516-5.945,2.188-14.105-2.344-19.07
	C1205.547,670.316,1195.926,672.824,1191.059,678.547z"/>
<path style="fill:#3D1C10;" d="M1051.719,758.734c4.355-3.059,0.207-10.266-4.195-7.18c-5.227,3.672-11.582,5.91-14.805-1.773
	c-4.238-10.105,1.617-14.824,9.973-17.777c4.68-1.656,6.227-8.543,7.465-12.664c7.996-26.668,7.305-56.969,4.234-84.277
	c-0.594-5.262-8.91-5.324-8.313,0c2.449,21.785,2.621,43.789-0.492,65.516c-0.891,6.191-2.184,12.336-3.977,18.328
	c-2.254,7.508-1.691,3.813-7.668,7.043C1011.652,738.004,1028.152,775.277,1051.719,758.734z"/>
<path style="fill:#3D1C10;" d="M610.625,1858.438c0.086,34.754,2.082,69.566,3.859,104.27c0.273,5.332,8.586,5.359,8.313,0
	c-1.777-34.703-3.773-69.516-3.863-104.27C618.922,1853.078,610.609,1853.078,610.625,1858.438z"/>
<path style="fill:#3D1C10;" d="M1500.547,1858.438c-0.121,33.145-2.637,66.227-2.758,99.375c-0.016,5.359,8.297,5.359,8.313,0
	c0.117-33.148,2.637-66.23,2.754-99.375C1508.879,1853.078,1500.563,1853.078,1500.547,1858.438z"/>
<path style="fill:#3D1C10;" d="M659.801,488.371c26.277-24.977,58.484-44.828,89.934-62.406
	c80.289-44.871,170.234-71.453,261.688-79.898c5.293-0.488,5.34-8.809,0-8.313c-91.586,8.457-180.859,34.746-261.707,78.73
	c-31.988,17.402-64.672,37.535-91.797,62.309c-1.34,1.23-2.68,2.453-3.996,3.699c-0.703,0.672-1.078,1.41-1.211,2.152
	C652.105,488.004,656.621,491.395,659.801,488.371z"/>
<path style="fill:#3D1C10;" d="M1089.258,346.066c56.441,4.367,111.578,18.648,164.07,39.625
	c23.484,9.383,47.113,20.016,68.754,33.227c4.59,2.801,8.762-4.391,4.195-7.176c-21.504-13.129-44.914-23.496-68.176-33.031
	c-53.785-22.047-110.836-36.465-168.844-40.957C1083.906,337.34,1083.953,345.652,1089.258,346.066z"/>
<path style="fill:#3D1C10;" d="M667.672,577.574c34.672-19.867,71.293-38.141,109.27-52.125
	c-7.473,15.414-16.84,29.832-28.609,42.266c-21.996,23.238-51.309,34.516-82.133,37.621c-2.055-0.078-4.129-0.105-6.23-0.047
	c-0.875,0.019-1.598,0.281-2.188,0.676c-3.844,0.203-7.699,0.281-11.559,0.258c-0.531-0.004-1.051,0.012-1.582,0.004
	c-2.23-0.031-3.519,1.394-3.894,3.07c5.355-1.746,10.984-2.785,16.777-3.176c-2.719,2.133-1.914,7.602,2.445,7.481
	c34.074-0.953,60.68,18.07,81.422,43.543c3.383,4.16,9.227-1.758,5.875-5.879c-12.762-15.672-27.855-28.883-45.281-37.074
	c-3.809-1.793-7.73-3.336-11.762-4.621c21.957-5.457,42.348-15.652,59.707-31.781c0.242-0.227,0.496-0.43,0.734-0.656
	c16.238-15.313,28.363-34.793,37.383-55.633c20.352-6.984,41.063-12.695,62.066-16.672c2.23-0.426,3.102-2.105,2.984-3.828
	c-0.164-2.344-2.176-4.762-5.191-4.191c-70.328,13.332-137.547,45.551-198.684,81.906c-27.523,16.367-54.18,34.445-78.863,54.879
	c-8.09,6.699-19.172,14.594-25.758,23.547c-0.789,1.074-1.531,2.16-2.176,3.266c-8.551,14.59-1.82,30.719,7.004,43.488
	c0.789,1.141,1.852,1.691,2.953,1.82c3.125,0.375,6.488-2.738,4.223-6.012c-5.574-8.07-9.961-16.461-9.961-26.5
	c0.004-8.008,7.981-14.152,13.27-19.242c9.488-9.125,19.707-17.5,30.133-25.519c18.047-13.883,37.027-26.543,56.492-38.387
	C653.527,585.797,660.578,581.637,667.672,577.574z"/>
<path style="fill:#3D1C10;" d="M1535.285,622.195c-33.734-22.316-72.785-38.094-109.926-53.656
	c-45.035-18.867-90.941-35.754-137.34-50.945c-34.73-11.371-70.258-22.836-106.438-28.633c-3.793-0.609-7.621-1.094-11.449-1.414
	c-2.543-0.215-3.848,1.547-3.969,3.508c-0.137,2.16,1.184,4.566,3.969,4.805c8.012,0.676,16.031,1.887,24.012,3.453
	c9.059,17.18,20.422,33.074,33.563,47.5c7.762,8.531,16.137,16.555,24.996,24.039c14.457,12.203,31.516,24.809,49.727,33.777
	c10.559,5.199,21.504,9.18,32.559,11.129c5.238,0.926,7.48-7.086,2.203-8.016c-1.281-0.227-2.574-0.516-3.855-0.801
	c-27.473-6.059-53.688-24.539-74.754-41.969c-21.539-17.824-40.07-39.231-53.793-63.379c18.797,4.383,37.383,10.391,55.438,15.906
	c10.277,3.141,20.516,6.406,30.723,9.766c8.383,17.688,19.113,34.168,32.82,48.117c0.816,0.832,1.68,1.605,2.523,2.41
	c17.227,16.527,38.281,26.809,60.848,32.144c-20.082,7.789-38.266,21.527-53.52,39.609c-3.43,4.07,2.414,9.98,5.875,5.875
	c0.176-0.199,0.352-0.398,0.527-0.598c30.789-36.156,72.918-53.793,119.383-37.93c2.188,0.746,3.832-0.309,4.59-1.894
	c1.023-2.106,0.496-5.137-2.379-6.117c-10.742-3.672-21.324-5.645-31.652-6.09c-8.512-0.371-16.848,0.316-24.945,1.934
	c-28.125-3.715-54.254-14.527-75.375-35.223c-11.336-11.113-20.492-24.344-27.871-38.625c29.82,10.039,59.367,20.918,88.648,32.414
	c12.98,5.094,25.926,10.336,38.809,15.758c27.496,11.578,54.645,24.047,80.875,38.188c11.313,6.098,25.797,12.152,32.379,23.891
	c10.93,19.512-9.652,45.535-20.934,59.531c-2.266,2.816-0.277,6.453,2.285,7.172c1.199,0.336,2.523,0.039,3.594-1.293
	c18.027-22.387,38.008-56.152,14.828-78.746C1540.25,625.844,1537.965,623.965,1535.285,622.195z"/>
<path style="fill:#3D1C10;" d="M1147.277,1664.152c7.461-3.574,10.477-12.047,9.078-19.84c-1.766-9.813-12.434-13.066-20.82-10.109
	c-0.398,0.098-0.809,0.227-1.227,0.465c-0.422,0.191-0.754,0.422-1.047,0.676c-6.48,4.434-8.938,13.031-6.523,20.473
	C1129.477,1664.27,1139.418,1667.902,1147.277,1664.152z"/>
<path style="fill:#3D1C10;" d="M1124.191,1818.527c-1.766-9.813-12.441-13.07-20.824-10.109c-0.398,0.094-0.809,0.227-1.219,0.469
	c-0.43,0.188-0.762,0.418-1.051,0.672c-6.484,4.426-8.938,13.031-6.523,20.473c2.73,8.445,12.68,12.086,20.535,8.328
	C1122.57,1834.793,1125.594,1826.32,1124.191,1818.527z"/>
<path style="fill:#3D1C10;" d="M1190.617,1574.695c-21.555,129.953-57.172,257.289-74.301,388.012c-0.691,5.301,7.629,5.234,8.313,0
	c17.031-129.973,52.57-256.598,74.008-385.801C1199.508,1571.664,1191.492,1569.418,1190.617,1574.695z"/>
<path style="fill:#3D1C10;" d="M1342.695,1329.789c-0.598,0.641-1.031,1.488-1.125,2.555c-3.34,36.145-10.469,72.258-19.535,107.359
	c-7.781,30.105-17.734,59.855-31.738,87.668c-12.086,24.016-28.109,47.621-50.988,62.461c-15.23-13.594-31.27-26.367-47.73-38.41
	c-13.512-9.895-27.555-19.195-42.512-26.773c-8.059-4.086-17.07-8.082-26.266-9.316c-2.734-0.367-5.48-0.5-8.223-0.305
	c-0.566,0.039-1.059,0.184-1.508,0.379c-0.012,0.012-0.027,0.02-0.047,0.031c-0.082,0.031-0.168,0.063-0.234,0.102
	c-1.336,0.559-2.359,1.77-2.367,3.645c-0.121,38.172-5.418,76.309-11.223,113.973c-7.074,45.855-15.867,91.441-24.898,136.945
	c-8.047,40.59-16.504,81.102-24.191,121.77c-2.184,11.547-4.637,23.309-6.688,35.148c-1.734-11.422-3.785-22.805-5.625-34.02
	c-6.727-41.023-14.219-81.914-21.332-122.871c-14.32-82.438-31.332-166.965-31.559-250.945c-0.008-1.883-1.039-3.086-2.371-3.648
	c-0.07-0.035-0.148-0.059-0.219-0.098c-0.023-0.012-0.047-0.02-0.066-0.031c-0.445-0.199-0.938-0.34-1.5-0.379
	c-2.754-0.195-5.496-0.059-8.215,0.313c-9.191,1.25-18.105,5.301-26.277,9.309c-15.027,7.363-28.992,16.965-42.516,26.773
	c-16.504,11.965-32.512,24.816-47.734,38.41c-23.215-15.016-39.473-38.539-52.547-62.461
	c-15.121-27.648-25.941-57.566-35.047-87.668c-10.684-35.332-19.254-71.855-24.281-108.465c-0.082-0.609-0.269-1.105-0.523-1.527
	c-1.941-3.188-8.129-0.898-7.492,3.734c0.496,3.613,1.063,7.219,1.625,10.828c5.523,35.34,14.195,70.445,24.766,104.512
	c16.668,53.73,41.18,119.102,91.785,149.816c1.656,1.004,3.66,0.59,5.039-0.652c14.859-13.426,30.547-26.016,46.645-37.918
	c12.332-9.105,25.098-17.684,38.527-25.098c9.598-5.301,20.844-11.074,32.148-11.621c0.754,81.414,16.996,163.363,30.801,243.277
	c7.148,41.375,14.688,82.68,21.582,124.102c4.309,25.887,9.832,52.566,9.98,78.914c-0.016,2.688,2.07,4.027,4.152,4.016
	c2.086,0.012,4.176-1.328,4.156-4.016c0.168-25.984,6.422-52.367,11.223-77.766c7.906-41.816,16.629-83.477,24.898-125.219
	c8.816-44.523,17.27-89.141,24.195-134.004c5.566-36.109,10.551-72.699,11.016-109.305c10.621,0.523,20.984,5.746,30.168,10.543
	c14.246,7.445,27.574,16.691,40.523,26.176c16.141,11.816,31.797,24.504,46.645,37.918c1.375,1.242,3.383,1.656,5.039,0.652
	c50.32-30.551,72.461-96.18,87.188-149.816c9.488-34.578,16.641-70.352,20.578-106.109c0.375-3.441,0.766-6.887,1.086-10.332
	C1350.273,1328.082,1345.07,1327.266,1342.695,1329.789z"/>
<path style="fill:#3D1C10;" d="M904.707,1574.695c-0.879-5.277-8.891-3.031-8.019,2.211
	c21.566,129.621,62.75,255.371,79.906,385.801c0.688,5.23,9.012,5.301,8.313,0C967.652,1831.516,926.394,1705.063,904.707,1574.695z
	"/>
<path style="fill:#3D1C10;" d="M1005.602,1397.258c-34.231-3.336-69.777-12.688-98.051-32.918c-4.371-3.125-8.516,4.086-4.195,7.176
	c27.945,19.996,62.168,28.949,95.816,33.324c35.039,4.559,72.117,3.336,106.223-6.391c5.145-1.473,2.953-9.492-2.215-8.02
	C1071.602,1399.441,1038.129,1400.43,1005.602,1397.258z"/>
<path style="fill:#3D1C10;" d="M1078.328,1184.969c-33.281,6.211-69.168,3.73-102.129-3.105
	c-31.352-6.504-72.473-20.582-81.652-55.301c-1.367-5.18-9.387-2.98-8.016,2.207c9.371,35.438,47.66,51.277,79.93,59.391
	c36.391,9.144,77.063,11.726,114.074,4.824C1085.801,1192.004,1083.566,1183.988,1078.328,1184.969z"/>
<path style="fill:#3D1C10;" d="M1130.246,1178.07c20.836-7.055,40.672-15.703,58.168-29.238c4.238-3.273-1.688-9.109-5.875-5.879
	c-16.289,12.609-35.121,20.539-54.5,27.102C1122.992,1171.762,1125.156,1179.793,1130.246,1178.07z"/>
</svg>
