<?xml version="1.0" encoding="utf-8"?>
<!-- Generator: Adobe Illustrator 27.5.0, SVG Export Plug-In . SVG Version: 6.00 Build 0)  -->
<svg version="1.1" id="Capa_1" xmlns="http://www.w3.org/2000/svg" xmlns:xlink="http://www.w3.org/1999/xlink" x="0px" y="0px"
	 viewBox="0 0 2039 2208" style="enable-background:new 0 0 2039 2208;" xml:space="preserve">
<path style="fill:#FACABB;" d="M1479.526,610.298c-0.847,0.327-1.853,0.378-2.991-0.013
	c-53.573-18.295-102.127,2.248-137.482,44.171c-3.965,4.707-10.672-2.071-6.74-6.738c2.474-2.933,5.019-5.757,7.622-8.484
	c-0.225-0.261-0.428-0.542-0.661-0.796c-9.07-9.993-19.904-18.246-31.669-25.337c11.199,26.68,15.435,56.407,10.71,85.625
	c-1.871,11.577-5.039,22.71-9.4,33.154c9.793,6.289,18.307,15.091,24.65,26.718c14.903,27.334,4.21,69.313-11.793,93.835
	c-1.427,2.185-2.94,4.307-4.603,6.314c-22.667,27.446-60.841,31.023-94.246,20.285c-27.441-9.542-39.37-39.367-45.334-66.806
	c-0.272-1.25-0.459-2.474-0.667-3.704c-42.297-2.591-84.083-20.115-110.513-54.085c-17.306-22.244-29.149-49.644-33.271-77.815
	c-7.49-14.01-20.852-26.761-37.844-26.391c-18.916,0.411-32.074,13.052-40.919,28.711c-0.18,6.593-0.75,13.199-1.812,19.782
	c-8.733,54.017-45.519,98.452-100.918,107.719c-12.244,2.049-24.868,2.796-37.477,2.239c-0.203,1.178-0.38,2.347-0.638,3.544
	c-5.967,27.438-17.897,57.264-45.335,66.806c-33.405,10.738-71.579,7.161-94.246-20.285c-1.663-2.007-3.176-4.129-4.601-6.314
	c-16.008-24.523-26.698-66.501-11.798-93.835c6.941-12.725,16.487-22.061,27.458-28.422
	c-24.703-46.709-28.105-105.973,4.449-149.969c32.323-43.684,86.831-67.264,140.785-59.568
	c69.026,12.018,118.335,74.377,123.717,141.903c10.19-12.728,24.353-22.556,41.334-21.839c14.647,0.619,26.951,7.121,36.264,17.217
	c-0.575-27.428,6.596-54.665,23.651-77.713c14.003-18.923,32.171-34.067,52.65-44.536c-8.821-3.514-17.613-7.113-26.317-10.928
	c-50.014-21.927-99.488-49.306-137.611-89.118c-23.856-24.913-38.733-58.81-50.594-91.633
	c-15.59,57.908-51.005,104.003-99.012,140.782c-53.22,40.772-113.932,72.405-144.609,135.157c-0.907,1.853-2.436,2.519-3.962,2.408
	c-0.824,3.115-1.551,6.299-2.155,9.57c5.81,5.504,11.306,11.458,16.457,17.783c3.84,4.72-2.86,11.506-6.741,6.737
	c-23.778-29.207-54.275-51.018-93.348-49.925c-5.164,0.147-5.96-6.532-2.459-8.786c-30.685,0.061-58.298,15.009-70.56,52.08
	c-20.229,69.644,39.948,189.184,119.468,190.776c14.32,0.284,26.597-1.625,37.086-5.237
	c38.954,115.762,127.92,199.709,251.683,232.825c0.162,20.178,0.362,42.166,0.606,65.216c0.935,1.199,1.323,2.85,1.002,4.35
	c0.768,48.904,90.606,48.932,124.921,51.074c32.348,1.47,67.695,2.926,88.938-14.102c-11.281-8.332-22.989-16.137-34.911-23.504
	c-12.844-7.945-26.074-15.26-39.659-21.862c-13.092-6.36-26.173-12.614-39.75-17.901c-32.361-12.604-66.43-20.561-100.981-23.737
	c-0.058-6.679-0.112-13.189-0.165-19.534c25.706,6.88,52.909,11.569,81.482,13.891c0.753-1.103,1.985-1.881,3.727-1.889
	c105.362-0.299,216.642-26.302,286.781-110.712c1.848-2.221,4.297-1.891,5.98-0.444c32.85-39.304,56.975-85.949,72.884-135.456
	c11.46,4.783,25.296,7.349,41.827,7.022c79.523-1.592,139.699-121.132,119.471-190.776
	C1501.302,631.556,1491.534,618.694,1479.526,610.298z"/>
<path style="fill:#FACABB;" d="M1051.395,605.7c-15.47,35.197-13.263,77.183,3.341,111.645
	c23.149,48.055,69.764,78.39,121.195,82.147c-2.581-54.519,57.477-88.302,106.845-78.131c6.2,1.28,12.226,3.26,17.942,5.97
	c7.565-18.954,10.941-39.547,9.796-60.02c-1.225-21.841-7.215-43.012-17.066-62.004c-20.226-10.206-42.138-17.823-62.283-25.113
	c-37.106-13.43-74.661-25.697-111.494-39.857c-1.936,0.867-3.856,1.767-5.746,2.73
	C1087.242,556.667,1063.619,577.882,1051.395,605.7z"/>
<path style="fill:#FACABB;" d="M849.114,797.256c30.186-5.739,57.309-20.698,74.174-47.094c15.661-24.5,23.098-53.804,21.471-82.852
	c-3.691-65.933-50.615-125.912-117.048-137.481c-26.911-3.838-55.289,0.879-79.538,13.237c-26.682,13.6-50.305,34.818-62.531,62.633
	c-15.468,35.197-13.26,77.183,3.343,111.645c1.412,2.936,2.941,5.785,4.525,8.586c4.778-2.005,9.747-3.521,14.832-4.57
	c49.451-10.185,109.638,23.724,106.839,78.41C826.36,800.207,837.729,799.419,849.114,797.256z"/>
<path style="fill:#A6A7D4;" d="M1667.59,1453.085c-26.627-10.933-70.694-20.556-126.886-28.683
	c-94.177-13.62-222.455-23.03-360.028-27.349c-0.735-54.815-2.307-142.98-3.881-158.707c-2.152-23.694,4.37-41.733-2.094-63.272
	c-10.768-28.001-15.138-29.347-45.291-37.96c-0.074,0.631-0.183,1.219-0.266,1.838c-0.003,0-0.003,0-0.003,0
	c-2.301,16.738-8.968,28.115-18.49,35.75c-21.243,17.027-56.59,15.572-88.938,14.102c-34.315-2.142-124.153-2.169-124.921-51.074
	c-0.322,1.488-1.339,2.819-3.232,3.371c-16.036,4.685-24.761,24.698-16.556,39.553c6.34,11.468,16.229,20.236,28.117,25.724
	c24.51,11.306,51.895,17.347,78.887,17.08c6.149-0.061,6.142,9.468,0,9.529c-33.178,0.332-78.431-7.108-103.027-31.585
	c-10.178-10.13-20.195-25.517-16.041-40.696c0.362-1.323,0.789-2.624,1.252-3.904c-5.653,10.031-9.316,23.197-11.693,37.854
	c2.342,0.593,4.36,2.735,3.638,5.769c-6.127,25.664,2.073,50.749,20.086,69.64c4.236,4.443-2.489,11.191-6.738,6.738
	c-9.818-10.297-16.982-22.262-21.027-35.126c-1.189,35.063,0.287,69.244-3.209,84.976l-0.624,39.357
	c2.778-3.407,9.635-0.827,8.279,4.381c-13.105,50.252,46.635,63.459,81.929,76.811c5.691,2.155,3.227,11.369-2.532,9.189
	c-32.903-12.447-79.764-25.248-89.133-59.452c-169.366,5.473-322.417,19.874-411.74,44.911
	c-22.452,6.292-40.893,13.255-54.539,20.916c-172.811,97.054-203.453,508.372-203.19,564.824
	c0.312,67.018,904.256,64.443,1388.705,40.082c-0.159-0.474-0.268-0.981-0.274-1.567c-0.183-38.422-4.244-76.694-4.428-115.118
	c-0.028-6.145,9.5-6.142,9.529,0c0.185,38.425,4.249,76.696,4.428,115.118c0.005,0.393-0.035,0.758-0.109,1.1
	c172.355-8.862,289.337-20.502,289.326-32.7C1862.858,2005.896,1843.851,1525.472,1667.59,1453.085z"/>
<path style="fill:#EE766B;" d="M1552.396,1050.044c-21.017-120.718-21.501-244.141-20.888-366.307
	c0.505-100.875-1.876-189.975-49.307-281.572c-87.346-168.674-268.814-278.14-458.469-278.14
	c-176.565,0-387.319,93.448-477.103,253.039c-40.097,71.272-58.356,153.003-70.225,233.084
	c-5.615,37.889-9.126,76.03-11.704,114.249c-7.582,112.53-7.083,225.799-28.434,335.629
	c-24.305,125.028-33.684,257.817-2.837,381.823c89.323-25.037,242.375-39.439,411.74-44.911c-2.279-8.327-2.365-17.909,0.545-29.083
	c0.198-0.748,0.512-1.356,0.913-1.846l0.624-39.357c3.495-15.732,2.02-49.913,3.209-84.976c-4.357-13.854-5.1-28.751-1.513-43.786
	c0.702-2.941,3.283-3.81,5.554-3.234c2.378-14.657,6.04-27.823,11.693-37.854c4.21-11.656,12.553-21.301,24.835-24.891
	c2.094-0.61,3.744,0.157,4.763,1.468c-0.243-23.05-0.444-45.038-0.606-65.216c-123.763-33.116-212.729-117.063-251.683-232.825
	c-10.489,3.612-22.766,5.521-37.086,5.237c-79.52-1.592-139.697-121.132-119.468-190.776c12.261-37.071,39.874-52.019,70.56-52.08
	c0.667-0.431,1.475-0.717,2.459-0.745c33.017-0.922,60.858,13.364,83.632,34.936c0.604-3.27,1.331-6.454,2.155-9.57
	c-3.027-0.225-6.053-3.564-4.269-7.217c28.455-58.202,81.868-90.154,132.404-126.923c29.106-21.177,57.388-44.676,77.794-74.704
	c17.871-26.302,29.514-55.261,35.912-86.365v-0.003c-0.025-0.309-0.025-0.608,0.015-0.895
	c-4.165-54.402-8.295-110.673-22.082-163.571c-1.551-5.955,7.643-8.477,9.189-2.535c13.978,53.641,18.188,110.802,22.411,165.969
	c13.901,40.526,31.106,82.428,62.957,112.067c42.042,39.119,93.957,65.733,146.876,86.981c4.294,1.724,8.614,3.377,12.928,5.037
	c23.785-9.648,50.006-13.265,76.104-9.542c46.082,8.02,83.373,38.493,104.685,77.954c17.329,8.812,33.53,19.59,45.981,33.96
	c35.994-33.839,82.768-48.409,132.409-31.461c4.649,1.589,3.947,7.851,0.456,9.204c12.008,8.396,21.775,21.258,27.811,39.502
	c20.228,69.644-39.948,189.184-119.471,190.776c-16.53,0.327-30.366-2.239-41.827-7.022
	c-15.909,49.507-40.034,96.152-72.884,135.456c1.904,1.633,2.831,4.695,0.763,7.181c-38.65,46.511-89.673,75.754-145.363,92.898
	c0.003,1.429,0.01,2.885,0.016,4.337c0.005,0.882,0.007,1.752,0.01,2.641c0.01,2.507,0.023,5.045,0.04,7.62
	c0.003,0.851,0.01,1.729,0.016,2.585c0.007,1.729,0.02,3.458,0.033,5.212c0.008,1.265,0.02,2.553,0.028,3.833
	c0.01,1.417,0.02,2.831,0.033,4.264c0.01,1.41,0.023,2.834,0.036,4.256c0.01,1.298,0.023,2.596,0.033,3.907
	c0.015,1.515,0.031,3.042,0.04,4.575c0.015,1.257,0.028,2.52,0.043,3.787c0.015,1.62,0.033,3.245,0.048,4.882
	c0.012,1.209,0.025,2.429,0.04,3.648c0.018,1.663,0.038,3.323,0.058,5.004c0.013,1.143,0.025,2.297,0.041,3.448
	c0.022,1.861,0.043,3.721,0.068,5.602c0,0.084,0.003,0.172,0.005,0.261c0.083-0.619,0.193-1.207,0.266-1.838
	c30.153,8.614,34.523,9.959,45.291,37.96c6.464,21.539-0.058,39.578,2.094,63.272c1.574,15.727,3.146,103.891,3.881,158.707
	c137.573,4.319,265.85,13.729,360.028,27.349C1590.164,1265.716,1562.226,1106.502,1552.396,1050.044z"/>
<path style="fill:#EE766B;" d="M1193.463,529.83c-20.09-2.867-41-0.958-60.397,5.336c40.614,15.075,81.936,28.191,122.297,43.953
	c9.729,3.8,19.844,7.772,29.862,12.188C1264.466,559.927,1232.311,536.593,1193.463,529.83z"/>
<path style="fill:#D96C62;" d="M787.773,596.757c-1.366,0.292-2.674,0.603-3.909,0.921c-16.436,4.21-35.177,13.148-42.922,29.21
	c-2.958,6.137-6.312,18.482,0.867,22.966c7.176,4.487,18.984-3.371,24.817-6.679c15.709-8.918,30.726-8.216,47.771-10.976
	c17.123-2.768,17.073-18.693,8.484-29.372C815.133,593.187,799.37,594.278,787.773,596.757z"/>
<path style="fill:#D96C62;" d="M1239.532,626.887c-7.747-16.061-26.485-24.999-42.919-29.21c-1.235-0.317-2.545-0.629-3.911-0.921
	c-11.6-2.479-27.359-3.569-35.109,6.069c-8.591,10.68-8.639,26.604,8.485,29.372c17.047,2.76,32.061,2.058,47.77,10.976
	c5.831,3.308,17.643,11.167,24.82,6.679C1245.844,645.369,1242.488,633.024,1239.532,626.887z"/>
<path style="fill:#F7B8A7;" d="M1129.071,1133.089c-0.016-1.151-0.028-2.302-0.041-3.448c-0.02-1.68-0.041-3.341-0.058-5.004
	c-0.015-1.219-0.028-2.439-0.04-3.648c-0.015-1.637-0.033-3.262-0.048-4.882c-0.015-1.267-0.028-2.53-0.043-3.787
	c-0.01-1.534-0.026-3.06-0.04-4.575c-0.01-1.311-0.023-2.606-0.033-3.907c-0.013-1.422-0.026-2.846-0.036-4.256
	c-0.012-1.432-0.023-2.847-0.033-4.264c-0.008-1.28-0.02-2.568-0.028-3.833c-0.013-1.754-0.025-3.483-0.033-5.212
	c-0.005-0.857-0.013-1.734-0.016-2.585c-0.018-2.573-0.03-5.116-0.04-7.62c-0.003-0.89-0.005-1.759-0.01-2.641
	c-0.005-1.45-0.013-2.91-0.016-4.337c-47.575,14.644-98.553,20.467-148.161,20.609c-4.406,0.012-5.635-4.865-3.727-7.643
	c-28.574-2.322-55.776-7.012-81.482-13.891c0.053,6.345,0.106,12.855,0.165,19.534c34.551,3.176,68.62,11.134,100.981,23.737
	c13.577,5.287,26.657,11.541,39.75,17.901c13.585,6.601,26.815,13.917,39.659,21.862c11.922,7.366,23.63,15.171,34.911,23.504
	c9.521-7.635,16.188-19.012,18.49-35.75c-0.003-0.089-0.003-0.175-0.003-0.261
	C1129.114,1136.81,1129.093,1134.949,1129.071,1133.089z"/>
<path style="fill:#F7B8A7;" d="M1308.916,731.881c-15.965,38.293-47.991,67.285-91.516,74.568
	c-13.217,2.208-26.87,2.91-40.478,2.076c0.208,1.229,0.396,2.454,0.667,3.704c5.964,27.438,17.894,57.264,45.334,66.806
	c33.405,10.738,71.579,7.161,94.246-20.285c1.663-2.007,3.176-4.129,4.603-6.314c16.003-24.523,26.695-66.501,11.793-93.835
	C1327.223,746.971,1318.708,738.17,1308.916,731.881z"/>
<path style="fill:#F7B8A7;" d="M1214.865,797.256c30.186-5.737,57.31-20.698,74.18-47.094c4.621-7.232,8.507-14.89,11.673-22.832
	c-5.716-2.71-11.742-4.69-17.942-5.97c-49.368-10.17-109.425,23.613-106.845,78.131
	C1188.707,800.425,1201.777,799.743,1214.865,797.256z"/>
<path style="fill:#F7B8A7;" d="M700.658,754.437c-5.874-7.547-11.118-15.694-15.648-24.26c-10.971,6.36-20.518,15.696-27.458,28.422
	c-14.9,27.334-4.21,69.313,11.798,93.835c1.424,2.185,2.938,4.307,4.601,6.314c22.667,27.446,60.841,31.023,94.246,20.285
	c27.438-9.542,39.368-39.367,45.335-66.806c0.258-1.197,0.435-2.365,0.638-3.544C770.855,806.752,727.708,789.211,700.658,754.437z"
	/>
<path style="fill:#F7B8A7;" d="M708.341,721.361c-5.085,1.049-10.053,2.565-14.832,4.57c25.2,44.544,71.437,71.87,121.671,73.84
	C817.979,745.085,757.793,711.176,708.341,721.361z"/>
<path style="fill:#3D1C10;" d="M1377.369,719.237c12.051-8.639,25.613-14.117,39.727-6.91c8.383,4.277,14.229,13.134,16.019,22.183
	c1.189,6.025,10.373,3.468,9.189-2.532c-2.525-12.774-11.385-23.281-22.848-29.129c-7.288-3.719-14.92-4.315-22.351-2.966
	c15.605-13.293,32.866-24.247,51.754-31.235c5.711-2.115,3.245-11.329-2.532-9.189c-29.895,11.063-55.842,31.131-77.805,54.963
	c-0.347,5.247-0.781,10.502-1.29,15.759c2.979-3.536,6.046-7.009,9.194-10.401C1376.74,719.642,1377.054,719.462,1377.369,719.237z"
	/>
<path style="fill:#3D1C10;" d="M621.789,710.2c-21.098-21.971-45.718-40.338-73.832-50.742c-5.775-2.139-8.246,7.075-2.535,9.189
	c18.89,6.989,36.151,17.942,51.753,31.233c-7.425-1.346-15.06-0.751-22.348,2.969c-11.46,5.848-20.32,16.355-22.845,29.129
	c-1.186,6,7.997,8.558,9.189,2.532c1.893-9.582,7.767-17.116,16.018-22.183c13.281-8.162,28.462-1.169,39.725,6.91
	c0.317,0.225,0.629,0.406,0.943,0.543c1.554,1.675,3.088,3.377,4.604,5.09C622.167,720.015,621.936,715.125,621.789,710.2z"/>
<path style="fill:#3D1C10;" d="M1098.695,845.499c2.834-5.445-5.389-10.262-8.229-4.809c-36.714,70.499-152.998,70.496-189.714,0
	c-2.839-5.453-11.065-0.636-8.228,4.809C932.459,922.185,1058.759,922.188,1098.695,845.499z"/>
<path style="fill:#3D1C10;" d="M807.614,678.037c-6.789-7.43-18.351-4.388-24.158,2.484c-0.315,0.307-0.611,0.652-0.867,1.087
	c-0.38,0.535-0.603,1.06-0.733,1.577c-3.47,7.529-1.949,17.166,4.748,22.462c7.729,6.115,18.926,3.589,23.826-4.715
	C814.646,693.801,813.057,683.994,807.614,678.037z"/>
<path style="fill:#3D1C10;" d="M1172.882,680.521c-0.312,0.307-0.608,0.652-0.864,1.087c-0.38,0.535-0.603,1.062-0.735,1.577
	c-3.468,7.534-1.949,17.166,4.748,22.462c7.731,6.115,18.926,3.589,23.828-4.715c4.21-7.131,2.624-16.938-2.819-22.895
	C1190.251,670.604,1178.689,673.648,1172.882,680.521z"/>
<path style="fill:#3D1C10;" d="M999.723,784.544c-5.884-7.666-11.767-15.336-17.651-23.005c5.301,1.082,10.599,2.165,15.896,3.247
	c3.106,0.634,5.901-1.361,6.033-4.598c0.652-16.039,1.3-32.077,1.952-48.116c0.249-6.147-9.283-6.122-9.531,0
	c-0.57,14.112-1.143,28.226-1.714,42.341c-7.617-1.556-15.235-3.113-22.853-4.669c-3.592-0.73-8.178,3.356-5.379,6.999
	c8.338,10.87,16.677,21.742,25.017,32.612C995.181,794.159,1003.465,789.424,999.723,784.544z"/>
<path style="fill:#3D1C10;" d="M1267.176,969.454c-70.139,84.41-181.419,110.413-286.781,110.712
	c-1.742,0.008-2.974,0.786-3.727,1.889c-1.909,2.778-0.68,7.655,3.727,7.643c49.608-0.142,100.586-5.965,148.161-20.609l0,0
	c55.69-17.144,106.713-46.387,145.363-92.898c2.069-2.487,1.141-5.549-0.763-7.181
	C1271.472,967.563,1269.024,967.233,1267.176,969.454z"/>
<path style="fill:#3D1C10;" d="M559.967,606.506c39.073-1.092,69.571,20.718,93.348,49.925c3.881,4.768,10.581-2.017,6.741-6.737
	c-5.151-6.325-10.647-12.279-16.457-17.783c-22.774-21.572-50.615-35.859-83.632-34.936c-0.984,0.028-1.792,0.314-2.459,0.745
	C554.008,599.973,554.803,606.653,559.967,606.506z"/>
<path style="fill:#3D1C10;" d="M508.143,1950.987c0.094,39.849,2.391,79.754,4.426,119.547c0.314,6.111,9.846,6.142,9.531,0
	c-2.038-39.794-4.332-79.698-4.428-119.547C517.657,1944.842,508.128,1944.842,508.143,1950.987z"/>
<path style="fill:#3D1C10;" d="M1569.232,1950.987c-0.028-6.142-9.557-6.145-9.529,0c0.185,38.425,4.246,76.696,4.428,115.118
	c0.005,0.586,0.114,1.093,0.274,1.567c1.397,4.187,8.214,4.043,9.146-0.467c0.074-0.342,0.114-0.707,0.109-1.1
	C1573.481,2027.683,1569.418,1989.412,1569.232,1950.987z"/>
<path style="fill:#3D1C10;" d="M895.792,1133.38c-1.019-1.31-2.669-2.078-4.763-1.468c-12.282,3.589-20.624,13.235-24.835,24.891
	c-0.464,1.28-0.89,2.58-1.252,3.904c-4.155,15.179,5.863,30.566,16.041,40.696c24.596,24.477,69.85,31.917,103.027,31.585
	c6.142-0.061,6.149-9.59,0-9.529c-26.992,0.266-54.377-5.774-78.887-17.08c-11.889-5.489-21.778-14.256-28.117-25.724
	c-8.205-14.854,0.519-34.868,16.556-39.553c1.893-0.552,2.91-1.883,3.232-3.371C897.115,1136.229,896.727,1134.579,895.792,1133.38z
	"/>
<path style="fill:#3D1C10;" d="M1045.37,1231.694c41.302,1.998,83.239-17.199,108.649-49.837c3.727-4.788-2.969-11.582-6.74-6.738
	c-24.013,30.842-62.815,48.937-101.909,47.046C1039.225,1221.872,1039.256,1231.4,1045.37,1231.694z"/>
<path style="fill:#3D1C10;" d="M848.946,1197.891c-3.587,15.035-2.844,29.932,1.513,43.786c4.046,12.865,11.21,24.829,21.027,35.126
	c4.249,4.454,10.974-2.294,6.738-6.738c-18.013-18.89-26.214-43.976-20.086-69.64c0.722-3.034-1.296-5.176-3.638-5.769
	C852.229,1194.081,849.648,1194.951,848.946,1197.891z"/>
<path style="fill:#3D1C10;" d="M845.714,1367.856c-2.91,11.174-2.824,20.756-0.545,29.083c9.369,34.204,56.23,47.005,89.133,59.452
	c5.76,2.18,8.223-7.034,2.532-9.189c-35.294-13.352-95.034-26.559-81.929-76.811c1.356-5.207-5.501-7.787-8.279-4.381
	C846.226,1366.5,845.912,1367.108,845.714,1367.856z"/>
<path style="fill:#3D1C10;" d="M1026.662,1471.247c12.241,1.754,24.523,0.332,36.792,1.46c6.122,0.563,6.068-8.971,0-9.532
	c-11.394-1.045-22.908,0.507-34.257-1.12C1023.189,1461.197,1020.599,1470.375,1026.662,1471.247z"/>
<path style="fill:#3D1C10;" d="M1176.887,1404.001c-2.69,21.922-26.883,32.718-45.588,38.034c-5.901,1.675-3.392,10.872,2.535,9.189
	c23.623-6.715,49.294-20.432,52.582-47.223C1187.166,1397.912,1177.625,1397.986,1176.887,1404.001z"/>
<path style="fill:#3D1C10;" d="M649.716,619.934c30.677-62.752,91.389-94.386,144.609-135.157
	c48.007-36.779,83.422-82.874,99.012-140.782c11.861,32.822,26.738,66.719,50.594,91.633
	c38.123,39.811,87.597,67.191,137.611,89.118c8.705,3.815,17.496,7.415,26.317,10.928c-20.479,10.469-38.647,25.613-52.65,44.536
	c-17.055,23.048-24.226,50.285-23.651,77.713c-9.313-10.096-21.618-16.598-36.264-17.217c-16.982-0.717-31.144,9.111-41.334,21.839
	c-5.382-67.526-54.691-129.885-123.717-141.903c-53.953-7.696-108.462,15.884-140.785,59.568
	c-32.553,43.996-29.151,103.26-4.449,149.969c4.53,8.565,9.775,16.713,15.648,24.26c27.05,34.774,70.197,52.315,113.511,54.247
	c12.609,0.558,25.233-0.19,37.477-2.239c55.398-9.267,92.185-53.702,100.918-107.719c1.062-6.583,1.633-13.189,1.812-19.782
	c8.845-15.659,22.003-28.3,40.919-28.711c16.991-0.37,30.353,12.381,37.844,26.391c4.122,28.171,15.965,55.571,33.271,77.815
	c26.429,33.97,68.215,51.494,110.513,54.085c13.607,0.834,27.261,0.132,40.478-2.076c43.525-7.283,75.551-36.275,91.516-74.568
	c4.36-10.444,7.529-21.577,9.4-33.154c4.725-29.217,0.489-58.945-10.71-85.625c11.765,7.091,22.599,15.344,31.669,25.337
	c0.233,0.253,0.436,0.535,0.661,0.796c-2.603,2.728-5.148,5.552-7.622,8.484c-3.932,4.667,2.775,11.445,6.74,6.738
	c35.355-41.923,83.909-62.466,137.482-44.171c1.138,0.39,2.145,0.339,2.991,0.013c3.491-1.354,4.193-7.615-0.456-9.204
	c-49.641-16.949-96.416-2.378-132.409,31.461c-12.451-14.371-28.652-25.149-45.981-33.96
	c-21.311-39.461-58.603-69.934-104.685-77.954c-26.097-3.724-52.319-0.106-76.104,9.542c-4.315-1.66-8.634-3.313-12.928-5.037
	c-52.919-21.248-104.834-47.862-146.876-86.981c-31.851-29.638-49.056-71.541-62.957-112.067
	c-4.223-55.167-8.434-112.328-22.411-165.969c-1.547-5.942-10.74-3.42-9.189,2.535c13.787,52.898,17.917,109.169,22.082,163.571
	c-0.041,0.286-0.041,0.586-0.015,0.895v0.003c-6.399,31.103-18.041,60.062-35.912,86.365
	c-20.406,30.029-48.688,53.527-77.794,74.704c-50.536,36.769-103.949,68.722-132.404,126.923c-1.784,3.653,1.242,6.992,4.269,7.217
	C647.28,622.453,648.809,621.786,649.716,619.934z M849.114,797.256c-11.385,2.162-22.753,2.951-33.933,2.515
	c-50.234-1.97-96.471-29.296-121.671-73.84c-1.584-2.801-3.113-5.65-4.525-8.586c-16.603-34.462-18.811-76.448-3.343-111.645
	c12.226-27.816,35.849-49.033,62.531-62.633c24.249-12.358,52.628-17.076,79.538-13.237
	c66.433,11.569,113.357,71.548,117.048,137.481c1.628,29.048-5.81,58.352-21.471,82.852
	C906.423,776.559,879.299,791.517,849.114,797.256z M1310.513,667.311c1.146,20.472-2.231,41.066-9.796,60.02
	c-3.166,7.942-7.052,15.6-11.673,22.832c-16.87,26.396-43.994,41.357-74.18,47.094c-13.088,2.487-26.157,3.169-38.934,2.236
	c-51.431-3.757-98.046-34.092-121.195-82.147c-16.604-34.462-18.812-76.448-3.341-111.645
	c12.224-27.818,35.846-49.033,62.529-62.633c1.891-0.963,3.81-1.863,5.746-2.73c36.832,14.16,74.387,26.427,111.494,39.857
	c20.145,7.29,42.057,14.908,62.283,25.113C1303.298,624.299,1309.288,645.47,1310.513,667.311z M1193.463,529.83
	c38.848,6.763,71.003,30.097,91.762,61.477c-10.018-4.416-20.133-8.388-29.862-12.188c-40.361-15.762-81.683-28.878-122.297-43.953
	C1152.463,528.871,1173.373,526.963,1193.463,529.83z"/>
<path style="fill:#3D1C10;" d="M626.339,854.908c0.286-6.145-9.245-6.117-9.529,0c-3.772,81.285,25.679,158.156,46.222,235.467
	c11.101,41.76,19.164,84.248,20.216,127.542c1.254,51.467-9.182,102.092-27.775,149.939c-2.228,5.737,6.988,8.198,9.192,2.535
	c18.064-46.493,27.995-95.159,28.191-145.079c0.172-43.089-7.584-85.825-18.048-127.478
	C654.685,1017.709,622.438,938.954,626.339,854.908z"/>
<path style="fill:#3D1C10;" d="M1348.405,859.344c21.549,86.573-13.641,178.553-36.817,261.168
	c-22.571,80.451-45.573,171.211-8.642,251.013c2.578,5.574,10.792,0.73,8.229-4.809c-37.77-81.617-9.615-176.063,13.549-257.657
	c22.759-80.157,53.745-168.39,32.87-252.251C1356.111,850.847,1346.922,853.38,1348.405,859.344z"/>
<path style="fill:#3D1C10;" d="M731.566,440.471c-45.048,43.358-107.8,76.337-133.411,136.288c-2.385,5.584,5.82,10.444,8.231,4.808
	c26.825-62.79,94.365-94.454,139.439-141.918c52.143-54.911,96.895-118.561,117.706-192.127c1.676-5.924-7.518-8.434-9.189-2.532
	C833.371,319.111,786.782,387.329,731.566,440.471z"/>
<path style="fill:#3D1C10;" d="M1256.44,498.262c-42.693-20.51-87.929-35.2-130.805-55.36
	c-91.688-43.112-163.624-114.718-198.573-210.617c-2.083-5.726-11.296-3.255-9.189,2.532c33.527,92,99.425,162.329,185.597,207.692
	c43.727,23.014,90.806,38.44,135.913,58.349c47.322,20.891,88.033,50.045,121.897,89.298c4.018,4.662,10.73-2.111,6.737-6.74
	C1336.714,547.133,1299.592,518.99,1256.44,498.262z"/>
<path style="fill:#3D1C10;" d="M1401.194,856.023c45.893,78.479,28.921,182.548,11.088,266.826
	c-17.058,80.611-56.174,177.706-6.006,254.131c3.356,5.113,11.613,0.345,8.229-4.809c-26.926-41.02-25.806-90.223-17.849-136.848
	c7.48-43.847,20.439-86.626,28.954-130.295c15.851-81.287,27.613-178.91-16.188-253.817
	C1406.323,845.915,1398.087,850.708,1401.194,856.023z"/>
<path style="fill:#3D1C10;" d="M1475.635,834.117c25.314,31.649,28.369,76.563,28.782,115.445
	c0.433,40.805-4.375,81.445-8.257,121.994c-9.617,100.454-51.428,207.61-14.127,306.827c2.145,5.699,11.356,3.232,9.19-2.53
	c-20.888-55.565-15.641-114.799-6.107-172.151c7.977-47.989,16.91-95.22,21.696-143.662c4.198-42.468,8.474-85.044,6.685-127.775
	c-1.524-36.452-7.724-75.627-31.124-104.888C1478.535,822.58,1471.838,829.369,1475.635,834.117z"/>
<path style="fill:#3D1C10;" d="M1186.595,360.329c51.071,26.234,101.747,51.596,145.102,89.916
	c40.211,35.542,70.453,80.012,92.37,128.782c2.515,5.594,10.725,0.745,8.229-4.812c-21.349-47.51-50.547-90.34-88.659-125.978
	c-40.49-37.869-88.814-63.797-137.821-88.77c-104.092-53.043-208.414-110.531-272.385-212.181
	c-3.262-5.189-11.514-0.408-8.231,4.806C987.059,250.389,1085.766,308.541,1186.595,360.329z"/>
<path style="fill:#3D1C10;" d="M1027.935,154.285c104.485,24.069,200.299,74.605,277.12,149.662
	c75.812,74.071,128.878,168.646,161.731,268.859c1.906,5.81,11.108,3.324,9.192-2.535
	c-33.484-102.124-87.46-197.214-164.185-273.064c-77.295-76.415-175.721-127.783-281.323-152.113
	C1024.487,143.715,1021.947,152.904,1027.935,154.285z"/>
<path style="fill:#3D1C10;" d="M526.521,557.567c-1.011,6.008,8.172,8.583,9.189,2.532
	c26.366-156.846,131.555-308.019,280.867-369.628c5.597-2.307,3.146-11.534-2.535-9.189
	C661.689,244.146,553.488,397.134,526.521,557.567z"/>
<path style="fill:#3D1C10;" d="M515.38,821.848c1.166-6.003-8.02-8.56-9.189-2.532c-36.635,188.796-6.659,385.958,33.035,571.778
	c1.285,6.005,10.471,3.458,9.189-2.535C509.099,1204.512,479.085,1008.877,515.38,821.848z"/>
<path style="fill:#3D1C10;" d="M577.177,929.858c0.315,146.072,27.628,290.88,22.87,437.095c-0.2,6.147,9.329,6.129,9.529,0
	c4.761-146.215-22.556-291.023-22.87-437.095C586.69,923.711,577.162,923.708,577.177,929.858z"/>
</svg>
