<?xml version="1.0" encoding="utf-8"?>
<!-- Generator: Adobe Illustrator 27.5.0, SVG Export Plug-In . SVG Version: 6.00 Build 0)  -->
<svg version="1.1" id="Capa_1" xmlns="http://www.w3.org/2000/svg" xmlns:xlink="http://www.w3.org/1999/xlink" x="0px" y="0px"
	 viewBox="0 0 2122 2122" style="enable-background:new 0 0 2122 2122;" xml:space="preserve">
<path style="fill:#E99C90;" d="M943.703,1018.492c-0.008,5.57,0,11.129-0.008,16.699c1.344,0.355,2.707,0.691,4.043,1.016
	c15.063,3.664,29.328,9.148,43.984,13.742c14.832,4.656,30.207,8.09,45.234,12.316c14.34,4.039,28.48,8.652,41.598,14.992
	c11.672,5.637,22.77,12.117,32.809,19.605c9.996,7.465,19,15.82,26.746,24.926c9.004,10.582,17.512,21.656,24.965,33.027
	c4.453,6.781,8.203,13.695,11.371,20.805c-0.09-17.289-0.012-34.559,1.227-51.758c1.773-24.375,7.34-48.895,7.418-73.418
	l0.008-0.422c0-5.648-0.281-11.297-0.973-16.938c-0.188-1.465,0.328-2.504,1.168-3.16l0.156-16.477
	c-42.203,13.332-87.563,18.594-131.684,18.719c-3.848,0.012-4.922-4.242-3.254-6.668c-40.125-3.262-77.145-11.867-110.594-25.191
	l0.211,14.387C940.559,1013.934,943.703,1015.195,943.703,1018.492z"/>
<path style="fill:#5D7C9B;" d="M736.066,1551.863c-22.469-28.648-46.098-56.402-69.672-84.129
	c-31.336-36.848-62.926-73.473-94.703-109.93c-54.215,9.453-96.027,21.496-122.551,36.395
	c-160.621,90.203-189.105,472.512-188.859,524.98c0.164,36,282.336,50.555,607.867,52.117c1.16-3.246,24.215-69.063,25.316-182.313
	c-16.352-31.309-33.113-62.406-51.625-92.27C810.434,1646.074,772.813,1598.715,736.066,1551.863z"/>
<path style="fill:#5D7C9B;" d="M1672.164,1394.199c-26.348-14.797-67.789-26.785-121.488-36.203
	c-33.188,34.785-64.516,71.332-95.004,108.5c-39.863,48.57-79.523,97.457-117.203,147.746
	c-41.023,54.742-79.668,111.988-110.637,172.91c0.906,113.957,24.234,179.52,25.336,182.535
	c325.484-1.355,607.684-14.52,607.859-50.508C1861.27,1866.711,1832.789,1484.402,1672.164,1394.199z"/>
<path style="fill:#476085;" d="M899.914,982.309c-70.898,25.691-228.938,94.895-357.582,237.125c0.09,0.066,0.227,0.172,0.324,0.242
	c7.25-5.012,14.586-9.875,21.961-14.57c46.859-29.813,96.672-55.445,146.484-79.914c58.145-28.543,119.199-51.906,182.762-65.031
	c13.758-2.844,27.625-5.207,41.559-7.117c-0.031-11.516-0.051-23.031-0.039-34.551c0-1.945,1.102-3.172,2.496-3.707l-0.137-14.547
	C924.566,994.981,911.949,988.996,899.914,982.309z"/>
<path style="fill:#476085;" d="M1239.855,989.266c-17.809,10.012-36.762,17.973-56.406,24.184l-0.156,16.477
	c2.191-1.707,6.676-0.645,7.141,3.16c0.859,6.906,1.055,13.816,0.879,20.723c12.102,1.77,24.156,3.875,36.129,6.352
	c63.563,13.125,124.621,36.488,182.762,65.031c49.813,24.469,99.625,50.102,146.484,79.914c7.375,4.695,14.715,9.559,21.965,14.57
	c0.098-0.07,0.223-0.176,0.309-0.242C1460.531,1088.48,1317.188,1019.449,1239.855,989.266z"/>
<path style="fill:#87A4C2;" d="M937.684,1579.012c-2.574-16.723-5.535-33.434-8.285-50.16c-1.141-5.078-2.141-9.738-2.914-14.219
	c-2.715-15.703-4.277-30.895-5.008-45.41c-1.957-23.359-2.141-46.809,1.082-70.406c2.945-21.504,7.164-42.84,12.523-63.859
	c1.129-4.383,2.258-8.754,3.527-13.098c0-0.16,0.008-0.418,0-0.828c-0.031-1.629-0.059-3.262-0.09-4.887
	c-1.48-87.746-2.855-175.375-3.098-263.102c-13.934,1.91-27.801,4.273-41.559,7.117c-63.563,13.125-124.617,36.488-182.762,65.031
	c-49.813,24.469-99.625,50.102-146.484,79.914c-7.375,4.695-14.711,9.559-21.961,14.57c30.363,22.457,366,325.004,409.437,671.805
	C956.488,1786.801,953.664,1683.004,937.684,1579.012z"/>
<path style="fill:#87A4C2;" d="M950.477,1925.168c0.242-4.492,0.457-8.977,0.691-13.469l-6.024-23.5
	c-2.543-8.031-5.387-16.188-8.543-24.453c-1.746,0.789-3.879,0.52-5.047-1.656c-12.863-24.168-25.356-48.699-38.09-73.105
	c-1.102,113.25-24.156,179.066-25.316,182.313c-0.031,0.082-0.051,0.141-0.051,0.141l44.531-0.012l38.219-0.008l4.949-39.715
	c-0.145-0.871-0.301-1.758-0.457-2.633C952.98,1929.535,950.301,1928.25,950.477,1925.168z"/>
<path style="fill:#87A4C2;" d="M1556.688,1205.105c-46.859-29.813-96.672-55.445-146.484-79.914
	c-58.141-28.543-119.199-51.906-182.762-65.031c-11.973-2.477-24.027-4.582-36.129-6.352c-0.488,17.461-3.539,34.895-5.582,52.199
	c-3.18,26.996-2.547,54.215-2.594,81.352c-0.047,27.938-1.93,55.93,0.953,83.781c2.75,26.617,8.137,52.809,14.434,78.797
	c8.125,33.504,16.711,65.156,14.715,99.871c-1.641,28.336-7.398,56.242-12.992,84.004c-19.664,97.762-30.633,195.328-30.75,295.199
	c0,2.535-1.863,3.848-3.813,3.988c-0.398,28.566-0.348,59.363,0.227,92.563c24.496-360.852,381.395-682.707,412.742-705.887
	C1571.402,1214.664,1564.063,1209.801,1556.688,1205.105z"/>
<path style="fill:#87A4C2;" d="M1227.832,1787.152c-23.422,46.098-42.465,94.289-54.789,145.109c-0.926,3.797-5.43,3.637-7.32,1.254
	l4.531,36.258v0.008l40.926,0.008l42.027,0.016c0,0-0.02-0.051-0.039-0.117C1252.066,1966.672,1228.738,1901.109,1227.832,1787.152z
	"/>
<path style="fill:#96B3D3;" d="M542.656,1219.676c-0.098-0.07-0.234-0.176-0.324-0.242c0,0-45.59,30.941-37.523,55.16
	c1.063,5.301,17.695,24.84,44.016,54.598c0.594-2.98,4.316-5.227,6.867-2.324c42.523,48.535,84.746,97.34,126.434,146.602
	c22.031,26.047,44.285,52.031,64.973,79.18c37.477,49.168,78.332,97.516,108.871,151.469
	c28.648,50.645,55.426,102.414,82.766,153.77c1.355,2.551-0.105,4.938-2.133,5.859c3.156,8.266,6,16.422,8.543,24.453
	c2.313,7.32,4.356,14.551,6.121,21.656c0.301-6.133,0.574-12.254,0.828-18.375C908.656,1544.68,573.019,1242.133,542.656,1219.676z"
	/>
<path style="fill:#96B3D3;" d="M1578.961,1219.434c-0.086,0.066-0.211,0.172-0.309,0.242
	c-31.348,23.18-388.246,345.035-412.742,705.887c-0.031,0.461-0.07,0.918-0.098,1.383c0.836-3.367,1.684-6.73,2.59-10.07
	c0.246-1.094,0.488-2.184,0.742-3.273c1.949-8.313,4.297-16.789,7.016-25.414c4.785-15.129,10.699-30.707,17.609-46.625
	c33.77-83.25,83.516-159.715,137.527-231.52c37.367-49.688,76.434-98.168,115.867-146.23
	c41.938-51.105,85.211-101.184,132.82-147.137c1.336-1.297,2.934-1.414,4.277-0.867c19.41-22.219,31.328-36.754,32.234-41.215
	C1624.566,1250.375,1578.961,1219.434,1578.961,1219.434z"/>
<path style="fill:#5F484B;" d="M757.777,809.887c-7.902,2.887-17.023,4.629-27.488,4.945
	c24.496,55.465,64.77,107.207,129.965,141.32C812.773,919.266,777.715,869.383,757.777,809.887z"/>
<path style="fill:#5F484B;" d="M1328.988,897.305c25.43-25.336,45.328-53.781,60.879-83.262c-7.133-0.906-13.602-2.504-19.352-4.777
	C1360.461,840.41,1346.664,870.242,1328.988,897.305z"/>
<path style="fill:#5F484B;" d="M1418.457,605.379c8.156-2.754,16.613-4.527,25.297-5.223c1.578-34.977-0.457-57.477-0.457-57.477
	S1433.023,572.406,1418.457,605.379z"/>
<path style="fill:#5F484B;" d="M728,611.012c-15.902-35.137-27.363-68.332-27.363-68.332s-4.23,23.547-5.672,59.91
	C706.785,603.324,717.785,606.301,728,611.012z"/>
<path style="fill:#F5BFA4;" d="M1174.164,1229.41c0.66-17.883,0.387-35.844,0.281-53.789c-3.168-7.109-6.918-14.023-11.371-20.805
	c-7.453-11.371-15.961-22.445-24.965-33.027c-7.746-9.105-16.75-17.461-26.746-24.926c-10.039-7.488-21.137-13.969-32.809-19.605
	c-13.117-6.34-27.258-10.953-41.598-14.992c-15.027-4.227-30.402-7.66-45.234-12.316c-14.656-4.594-28.922-10.078-43.984-13.742
	c-1.336-0.324-2.699-0.66-4.043-1.016c-0.031,60.234,0.106,120.375,1.305,180.613c0.488,24.453,0.945,48.898,1.363,73.352
	c0.148,8.215,0.293,16.43,0.43,24.645c0.039,2.273,0.516,5.176,0.332,7.703c0.391,0.637,0.816,1.262,1.285,1.867
	c6.723,2.469,12.98,9.145,25.148,15.91c2.504,0.942,4.953,1.789,7.203,2.555c19.762,6.703,40.563,10.504,61.398,11.609
	c44.637,2.371,91.32-5.867,127.695-32.391c2.145-2.039,4.102-3.688,6.168-4.734c1.785-1.449,3.52-2.969,5.242-4.512l0.012-2.336
	C1176.395,1283.086,1173.18,1256.211,1174.164,1229.41z"/>
<path style="fill:#F5BFA4;" d="M1510.023,648.484c-5.313-16.074-13.953-27.352-24.566-34.668
	c-25.684-8.613-50.035-6.984-71.871,2.332c-1.246,2.715-2.535,5.438-3.84,8.145c-8.77,18.25-24.195,26.262-42.457,26.965
	c-0.367,0.43-0.75,0.852-1.117,1.285c-2.242,2.652-5.457,1.117-6.539-1.395c-15.113-0.996-31.707-6.379-47.875-14.703
	c-5.797-3.106-11.418-6.117-16.875-9.051c-13.027,29.719-121.656,26.516-108.727-19.086c3.402-12.008,12.543-19.047,24.188-22.332
	c-38.879-15.348-79.086-23.684-138.379-23.684c-65.07,0-107.176,10.043-149.738,28.371c6.316,3.949,11.09,9.711,13.34,17.644
	c11.578,40.856-74.414,47.676-101.805,27.285c-0.535,0.285-1.055,0.563-1.598,0.852c-12.57,6.477-25.414,11.168-37.605,13.406
	c-5.934,6.105-13.184,10.633-22.262,8.727c-1.941-0.41-2.855-1.77-2.973-3.262c-0.438-0.227-0.867-0.566-1.269-1.051
	c-1.332-1.641-2.707-3.254-4.082-4.84c-12.648-3.344-23.133-11.285-29.785-25.133c-0.129-0.274-0.266-0.543-0.391-0.82
	c-13.867-8.348-29.508-13.246-47.164-12.754c-4.461,0.125-5.184-5.594-2.219-7.609c-27.898-0.887-53.32,11.898-64.391,45.375
	c-17.637,60.742,34.856,165.008,104.215,166.395c2.066,0.039,4.07,0.012,6.051-0.047c10.465-0.316,19.586-2.059,27.488-4.945
	c19.938,59.496,54.996,109.379,102.477,146.266c12.394,9.625,25.629,18.363,39.66,26.156c12.035,6.688,24.652,12.672,37.828,17.93
	c0.059,0.02,0.117,0.047,0.176,0.07c33.449,13.324,70.469,21.93,110.594,25.191c0.664-0.957,1.734-1.641,3.254-1.644
	c91.898-0.262,188.957-22.945,250.133-96.566c1.617-1.938,3.75-1.648,5.223-0.387c7.863-9.41,15.141-19.301,21.867-29.598
	c17.676-27.063,31.473-56.894,41.527-88.039c5.75,2.273,12.219,3.871,19.352,4.777c4.98,0.629,10.27,0.949,15.953,0.836
	C1475.18,813.492,1527.668,709.227,1510.023,648.484z"/>
<path style="fill:#E99C90;" d="M1359.809,743.379c-10.059-18.449-26.367-28.785-44.297-32.481
	c-46.324-9.543-103.492,25.27-91.742,79.258c5.195,23.93,15.602,49.945,39.531,58.266c29.137,9.367,62.43,6.246,82.203-17.691
	c1.449-1.75,2.777-3.602,4.023-5.508C1363.48,803.836,1372.805,767.219,1359.809,743.379z"/>
<path style="fill:#E99C90;" d="M906.219,790.156c11.742-53.988-45.418-88.801-91.742-79.258
	c-17.93,3.695-34.23,14.031-44.297,32.481c-12.996,23.84-3.672,60.457,10.281,81.844c1.246,1.906,2.563,3.758,4.016,5.508
	c19.77,23.938,53.074,27.059,82.199,17.691C890.617,840.102,901.023,814.086,906.219,790.156z"/>
<path style="fill:#968378;" d="M1071.965,149.883c-170.023,0-371.328,92.348-371.328,392.797c0,0,86.664-188.082,371.328-188.082
	c284.668,0,371.332,188.082,371.332,188.082C1443.297,242.23,1241.992,149.883,1071.965,149.883z"/>
<path style="fill:#B8A092;" d="M728,611.012c1.871,4.144,3.809,8.316,5.797,12.461c0.125,0.277,0.262,0.547,0.391,0.82
	c6.652,13.848,17.137,21.789,29.785,25.133c9.25,2.445,19.664,2.43,30.586,0.426c12.191-2.238,25.035-6.93,37.605-13.406
	c0.543-0.289,1.063-0.566,1.598-0.852c33.773-18.078,61.223-33.203,88.465-44.93c42.563-18.328,84.668-28.371,149.738-28.371
	c59.293,0,99.5,8.336,138.379,23.684c26.863,10.598,53.094,24.543,84.539,41.418c5.457,2.934,11.078,5.945,16.875,9.051
	c16.168,8.324,32.762,13.707,47.875,14.703c2.602,0.172,5.152,0.207,7.656,0.109c18.262-0.703,33.688-8.715,42.457-26.965
	c1.305-2.707,2.594-5.43,3.84-8.145c1.664-3.605,3.301-7.207,4.871-10.769c14.566-32.973,24.84-62.699,24.84-62.699
	s-14.531,24.285-33.551,63.84c-16.953,35.289-58.746,32.367-97.988,12.156c-87.617-46.859-132.41-74.156-239.793-74.156
	c-107.379,0-152.184,27.297-239.801,74.156c-39.242,20.211-81.031,23.133-97.977-12.156c-19.031-39.555-33.551-63.84-33.551-63.84
	S712.098,575.875,728,611.012z"/>
<path style="fill:#AB9588;" d="M1071.965,354.598c-284.664,0-371.328,188.082-371.328,188.082s14.52,24.285,33.551,63.84
	c16.945,35.289,58.734,32.367,97.977,12.156c87.617-46.859,132.422-74.156,239.801-74.156c107.383,0,152.176,27.297,239.793,74.156
	c39.242,20.211,81.035,23.133,97.988-12.156c19.02-39.555,33.551-63.84,33.551-63.84S1356.633,354.598,1071.965,354.598z"/>
<path style="fill:#E7DAD2;" d="M1185.035,1328.309c-0.523-2.473-1.039-4.953-1.539-7.445c-39.375,33.258-93.27,44.43-143.938,40.727
	c-22.531-1.641-45.477-5.441-66.582-13.781c-9.52-3.773-20.883-8.523-28.473-16.273c-5.645,20.281-10.281,41.219-13.262,62.262
	c63.785,24.082,139.223,32.402,206.43,18.473c5.23-1.082,7.453,6.93,2.211,8.016c-68.23,14.144-144.777,6.23-209.742-18.051
	c-1.277,10.699-2.125,21.406-2.418,32.051c-0.887,32.098,5.664,64.07,10.633,95.66c5.406,34.406,11.078,68.789,15.238,103.379
	c11.656,96.867,10.641,194.602,5.184,291.844c-0.117,2.133-1.52,3.398-3.137,3.828c0,0.078,0.012,0.152,0.012,0.223l0.309,1.199
	l-0.137,1.125c0.012,0.152,0.02,0.309,0.031,0.453c-0.02-0.098-0.039-0.195-0.059-0.293l-4.949,39.715
	c-3.344,0.004-6.688,0.008-10.027,0.016c75.742,0.074,153.188-0.508,229.434-1.66l-4.531-36.258
	c-0.691-0.887-1.043-2.059-0.699-3.469c0.254-1.043,0.523-2.063,0.789-3.102c0.027-0.465,0.066-0.922,0.098-1.383
	c-0.574-33.199-0.625-63.996-0.227-92.563c-2.191,0.156-4.5-1.156-4.492-3.988c0.098-83.699,6.48-167.082,21.672-249.43
	c10.484-56.848,29.641-116.883,19.918-175.152C1198.504,1378.762,1190.445,1353.766,1185.035,1328.309z"/>
<path style="fill:#4D3A3C;" d="M1186.156,608.309c-12.93,45.602,95.699,48.805,108.727,19.086
	c-31.445-16.875-57.676-30.82-84.539-41.418C1198.699,589.262,1189.559,596.301,1186.156,608.309z"/>
<path style="fill:#4D3A3C;" d="M922.227,590.664c-27.242,11.727-54.691,26.852-88.465,44.93
	c27.391,20.391,113.383,13.57,101.805-27.285C933.316,600.375,928.543,594.613,922.227,590.664z"/>
<path style="fill:#3D1C10;" d="M1462.695,698.16c3.5,4.074,9.355-1.836,5.875-5.875c-23.988-27.887-54.02-11.551-78.281,12.683
	c-0.285,4.238-0.625,8.481-1.035,12.731C1411.531,692.719,1440.508,672.379,1462.695,698.16z"/>
<path style="fill:#3D1C10;" d="M675.066,693.688c8.012-8.547,17.68-15.906,30.004-13.68c9.988,1.805,18.144,9.719,24.809,16.82
	c3.332,3.566,6.422,7.371,9.383,11.281c-0.203-4.324-0.352-8.672-0.418-13.055c-19.703-22.496-43.664-34.988-69.652-7.246
	C665.539,691.715,671.406,697.606,675.066,693.688z"/>
<path style="fill:#3D1C10;" d="M686.633,610.719c17.656-0.492,33.297,4.406,47.164,12.754c-1.988-4.145-3.926-8.317-5.797-12.461
	c-10.215-4.711-21.215-7.688-33.035-8.422c-2.738-0.168-5.504-0.262-8.332-0.18c-0.895,0.023-1.637,0.293-2.219,0.699
	C681.449,605.125,682.172,610.844,686.633,610.719z"/>
<path style="fill:#3D1C10;" d="M1485.457,613.816c0.207,0.07,0.422,0.129,0.625,0.199c5.086,1.738,7.25-6.293,2.203-8.012
	c-15.25-5.211-30.199-7-44.531-5.848c-8.684,0.695-17.141,2.469-25.297,5.223c-1.57,3.563-3.207,7.164-4.871,10.769
	C1435.422,606.832,1459.773,605.203,1485.457,613.816z"/>
<path style="fill:#3D1C10;" d="M1366.172,652.543c0.367-0.434,0.75-0.856,1.117-1.285c-2.504,0.098-5.055,0.063-7.656-0.109
	C1360.715,653.66,1363.93,655.195,1366.172,652.543z"/>
<path style="fill:#3D1C10;" d="M882.734,697.191c6.742,5.332,16.508,3.133,20.793-4.109c3.676-6.223,2.281-14.777-2.465-19.969
	c-5.914-6.484-16.008-3.832-21.074,2.168c-0.266,0.262-0.527,0.563-0.75,0.945c-0.324,0.465-0.527,0.922-0.633,1.371
	C875.574,684.168,876.898,692.574,882.734,697.191z"/>
<path style="fill:#3D1C10;" d="M1222.395,697.191c6.746,5.332,16.52,3.133,20.785-4.109c3.684-6.223,2.301-14.777-2.445-19.969
	c-5.926-6.484-16.008-3.832-21.078,2.164c-0.27,0.266-0.535,0.566-0.75,0.949c-0.34,0.465-0.523,0.926-0.641,1.379
	C1215.234,684.176,1216.559,692.574,1222.395,697.191z"/>
<path style="fill:#3D1C10;" d="M1016.043,577.668c33.133,16.113,56.828,43.652,58.203,81.516
	c1.129,31.102-12.219,61.004-36.211,80.629c-2.707,2.207-0.738,5.902,1.832,6.945c11.41,4.644,22.824,9.289,34.234,13.934
	c4.969,2.019,7.113-6.027,2.211-8.016c-9.188-3.738-18.367-7.48-27.559-11.215c23.387-21.703,34.887-52.691,33.715-84.715
	c-1.441-39.527-27.914-69.566-62.223-86.254C1015.43,568.156,1011.231,575.324,1016.043,577.668z"/>
<path style="fill:#3D1C10;" d="M1026.18,815.461c-3.461-4.098-9.309,1.813-5.879,5.879c14.844,17.523,33.988,27.672,57.18,23.637
	c11.598-2.016,23.512-8.231,32.273-16.082c3.984-3.586-1.91-9.445-5.887-5.879c-6.266,5.625-14.273,9.648-22.188,12.305
	C1059.738,842.688,1040.328,832.176,1026.18,815.461z"/>
<path style="fill:#3D1C10;" d="M1048.512,1025.5c-1.668,2.426-0.594,6.68,3.254,6.668c44.121-0.125,89.48-5.387,131.684-18.719
	c19.645-6.211,38.598-14.172,56.406-24.184c25.387-14.258,48.449-32.664,67.93-56.098c1.801-2.172,0.992-4.844-0.664-6.266
	c-1.473-1.262-3.605-1.551-5.223,0.387c-61.176,73.621-158.234,96.305-250.133,96.566
	C1050.246,1023.859,1049.176,1024.543,1048.512,1025.5z"/>
<path style="fill:#3D1C10;" d="M769.324,655.316c0.117,1.492,1.031,2.852,2.973,3.262c9.078,1.906,16.328-2.621,22.262-8.727
	c-10.922,2.004-21.336,2.019-30.586-0.426c1.375,1.586,2.75,3.199,4.082,4.84C768.457,654.75,768.887,655.09,769.324,655.316z"/>
<path style="fill:#3D1C10;" d="M1169.496,1829.012c0.117-99.871,11.086-197.438,30.75-295.199
	c5.594-27.762,11.352-55.668,12.992-84.004c1.996-34.715-6.59-66.367-14.715-99.871c-6.297-25.988-11.684-52.18-14.434-78.797
	c-2.883-27.852-1-55.844-0.953-83.781c0.047-27.137-0.586-54.355,2.594-81.352c2.043-17.305,5.094-34.738,5.582-52.199
	c0.176-6.906-0.02-13.816-0.879-20.723c-0.465-3.805-4.949-4.867-7.141-3.16c-0.84,0.656-1.355,1.695-1.168,3.16
	c0.691,5.641,0.973,11.289,0.973,16.938c0,0.141,0,0.285-0.008,0.422c-0.078,24.523-5.645,49.043-7.418,73.418
	c-1.238,17.199-1.316,34.469-1.227,51.758c0.105,17.945,0.379,35.906-0.281,53.789c-0.984,26.801,2.23,53.676,7.113,80.063
	c0.125,0.668,0.25,1.328,0.379,1.984c-0.137,0.117-0.262,0.238-0.391,0.352c-1.723,1.543-3.457,3.063-5.242,4.512
	c-2.016,1.641-4.074,3.215-6.168,4.734c-36.375,26.523-83.059,34.762-127.695,32.391c-20.836-1.105-41.637-4.906-61.398-11.609
	c-2.25-0.766-4.699-1.613-7.203-2.555c-9.234-3.484-19.438-8.375-25.148-15.91c-0.469-0.605-0.895-1.23-1.285-1.867
	c0.184-2.527-0.293-5.43-0.332-7.703c-0.137-8.215-0.281-16.43-0.43-24.645c-0.418-24.453-0.875-48.898-1.363-73.352
	c-1.199-60.238-1.336-120.379-1.305-180.613c0.008-5.57,0-11.129,0.008-16.699c0-3.297-3.144-4.559-5.574-3.797
	c-0.086,0.027-0.164,0.055-0.25,0.09c-1.395,0.535-2.496,1.762-2.496,3.707c-0.012,11.52,0.008,23.035,0.039,34.551
	c0.242,87.727,1.617,175.355,3.098,263.102c0.031,1.625,0.059,3.258,0.09,4.887c0.008,0.41,0,0.668,0,0.828
	c-1.27,4.344-2.398,8.715-3.527,13.098c-5.359,21.02-9.578,42.355-12.523,63.859c-3.223,23.598-3.039,47.047-1.082,70.406
	c1.688,19.922,4.648,39.793,7.922,59.629c2.75,16.727,5.711,33.438,8.285,50.16c15.98,103.992,18.805,207.789,14.41,312.469
	c-0.254,6.121-0.527,12.242-0.828,18.375c-0.039,0.617-0.066,1.23-0.098,1.844c-0.234,4.492-0.449,8.977-0.691,13.469
	c-0.176,3.082,2.504,4.367,4.863,3.902c0.105-0.02,0.195-0.047,0.301-0.074c1.617-0.43,3.02-1.695,3.137-3.828
	c5.457-97.242,6.473-194.977-5.184-291.844c-4.16-34.59-9.832-68.973-15.238-103.379c-4.969-31.59-11.52-63.563-10.633-95.66
	c0.293-10.645,1.141-21.352,2.418-32.051c64.965,24.281,141.512,32.195,209.742,18.051c5.242-1.086,3.02-9.098-2.211-8.016
	c-67.207,13.93-142.645,5.609-206.43-18.473c2.98-21.043,7.617-41.98,13.262-62.262c7.59,7.75,18.953,12.5,28.473,16.273
	c21.105,8.34,44.051,12.141,66.582,13.781c50.668,3.703,104.563-7.469,143.938-40.727c0.5,2.492,1.016,4.973,1.539,7.445
	c5.41,25.457,13.469,50.453,17.746,76.121c9.723,58.27-9.434,118.305-19.918,175.152c-15.191,82.348-21.574,165.73-21.672,249.43
	c-0.008,2.832,2.301,4.145,4.492,3.988C1167.633,1832.859,1169.496,1831.547,1169.496,1829.012z"/>
<path style="fill:#3D1C10;" d="M1584.262,1315.809c-1.344-0.547-2.941-0.43-4.277,0.867
	c-47.609,45.953-90.883,96.031-132.82,147.137c-39.434,48.063-78.5,96.543-115.867,146.23
	c-54.012,71.805-103.758,148.27-137.527,231.52c-7.895,19.449-14.902,39.273-20.902,59.488c-1.297,4.363-2.535,8.75-3.734,13.152
	c-0.242,0.895-0.496,1.781-0.73,2.672c-0.906,3.34-1.754,6.703-2.59,10.07c-0.266,1.039-0.535,2.059-0.789,3.102
	c-0.344,1.41,0.008,2.582,0.699,3.469c1.891,2.383,6.395,2.543,7.32-1.254c12.324-50.82,31.367-99.012,54.789-145.109
	c30.969-60.922,69.613-118.168,110.637-172.91c37.68-50.289,77.34-99.176,117.203-147.746c30.488-37.168,61.816-73.715,95.004-108.5
	c11.496-12.039,23.191-23.871,35.176-35.441C1588.367,1320.133,1586.75,1316.816,1584.262,1315.809z"/>
<path style="fill:#3D1C10;" d="M855.969,1704.117c-30.539-53.953-71.395-102.301-108.871-151.469
	c-20.688-27.148-42.941-53.133-64.973-79.18c-41.688-49.262-83.91-98.066-126.434-146.602c-2.551-2.902-6.273-0.656-6.867,2.324
	c-0.227,1.16,0,2.43,0.992,3.559c7.309,8.34,14.59,16.699,21.875,25.055c31.777,36.457,63.367,73.082,94.703,109.93
	c23.574,27.727,47.203,55.48,69.672,84.129c36.746,46.852,74.367,94.211,105.773,144.852c18.512,29.863,35.273,60.961,51.625,92.27
	c12.734,24.406,25.227,48.938,38.09,73.105c1.168,2.176,3.301,2.445,5.047,1.656c2.027-0.922,3.488-3.309,2.133-5.859
	C911.394,1806.531,884.617,1754.762,855.969,1704.117z"/>
<path style="fill:#3D1C10;" d="M625.168,1855.559c0.09,34.758,2.086,69.563,3.859,104.273c0.273,5.328,8.594,5.355,8.32,0
	c-1.781-34.711-3.781-69.516-3.867-104.273C633.461,1850.199,625.16,1850.199,625.168,1855.559z"/>
<path style="fill:#3D1C10;" d="M1515.082,1855.559c-0.117,33.145-2.621,66.227-2.75,99.375c-0.008,5.359,8.301,5.359,8.32,0
	c0.117-33.148,2.633-66.23,2.75-99.375C1523.422,1850.199,1515.102,1850.199,1515.082,1855.559z"/>
</svg>
